<svg xmlns="http://www.w3.org/2000/svg" viewBox="0 0 2162.02 3126.01"><defs><style>.cls-1{fill:#56aa37;}.cls-2{opacity:0.5;}.cls-3{fill:#fff;}.cls-4{opacity:0.35;}.cls-5{fill:#371a45;}.cls-6{opacity:0.2;}.cls-7{fill:#390075;}.cls-8{fill:#22a7f0;}.cls-9{fill:#ff791f;}.cls-10{opacity:0.4;}.cls-11{opacity:0.7;}.cls-12{fill:#111a28;}</style></defs><g id="Layer_2" data-name="Layer 2"><g id="Layer_1-2" data-name="Layer 1"><path class="cls-1" d="M1122.35,218.5c-17.94,60.5-72.5,104.67-146.57,78.94-78.6-27.3-65-117.65-25-121a19.61,19.61,0,0,1,2.33-.13c29,0,14.58,45.92,52.57,49.65,20.39,2,36.89-17.6,40.4-43.08,2.8-20.05-2.45-43.75-20.22-63.46C994.18,84.23,873.44,92.67,865.09,173.9s48.37,255.82,48.37,255.82-111.25,80-191.42,25.64c0,0,32.27-24.37,42.27-137.91.34-4,.64-8.22.89-12.51C771.73,189.16,741.46-6.63,965.73,17,1106.53,31.79,1145.92,139.18,1122.35,218.5Z"/><g class="cls-2"><path class="cls-3" d="M1124.89,140c-21.71-45.7-68.89-83.6-148.43-92-224.27-23.61-194,172.17-200.53,288-.26,4.28-.55,8.48-.89,12.5-5.68,64.66-18.62,100.4-28.71,119.18A108.68,108.68,0,0,1,722,455.36S754.31,431,764.31,317.45c.34-4,.64-8.22.89-12.51C771.73,189.16,741.46-6.63,965.73,17,1062.74,27.16,1111.62,81.3,1124.89,140Z"/></g><g class="cls-4"><path class="cls-5" d="M1046.07,182.84c2.8-20.05-2.45-43.75-20.22-63.46C994.18,84.23,873.44,92.67,865.09,173.9s48.37,255.82,48.37,255.82-111.25,80-191.42,25.64c0,0,32.27-24.37,42.27-137.91.34-4,.64-8.22.89-12.51,19.76,19,40.91,29.64,57.45,27.39,30-4.15,22.09-87.67,10.34-148.89C820.27,117.26,891.58,78,930.16,69s125.45,1.4,131.64,55.16C1064.69,148.93,1056.12,168.73,1046.07,182.84Z"/></g><g class="cls-4"><path class="cls-5" d="M1122.35,218.5c-17.94,60.5-72.5,104.67-146.57,78.94-78.6-27.3-65-117.65-25-121-2.71,19.37-5.77,68.43,42.56,86.32C1039.29,279.72,1094.53,256.57,1122.35,218.5Z"/></g><path class="cls-5" d="M786.82,489.42c-24.64,0-49.9-5.85-73.18-21.66L695,455.12l17.79-11.6c2.47-2.41,27.93-29.52,36.57-127.37,1.54-17.56,1.84-37.86,2.14-59.34,1.07-74.49,2.4-167.2,60.3-218.59C847.43,6.63,898.3-5.2,967.32,2.07,1050.19,10.79,1111,53,1134.06,117.78c20.63,57.89,7,126.63-33.25,167.16-33.66,33.94-81,43.65-130,26.66-54.23-18.83-72.23-64.49-66-101.39,4.94-29.27,24.34-48.94,48.26-48.94s31.48,19.31,36,30.84c5.32,13.46,7.89,17.89,18,18.89,10.64,1.06,17.43-10.61,19.25-14.21,8.48-16.78,8.44-45-11.7-67.38-12.08-13.41-49.93-20.39-84.94-9-17,5.56-46.17,20.1-49.77,55-8,77.14,47.16,247.9,47.72,249.62l3.38,10.41-8.88,6.4C918.61,444.46,855.1,489.42,786.82,489.42ZM744.7,450.83c56.42,25.05,126.47-12.38,151-27.48-12.45-40.22-53-178.63-45.57-251,3.91-37.83,29.54-67.16,70.32-80.46,43.71-14.25,94.89-6.59,116.53,17.43,29.75,33,29.56,74.52,16.18,101-10.66,21.1-28.92,32.54-49,30.54-29.19-2.89-37.81-24.69-43-37.72-4.7-11.87-5.57-11.87-8.14-11.87-10.06,0-16.73,12.41-18.67,23.93-4.13,24.45,8.58,55,46.26,68.06,38.15,13.25,73.25,6.34,98.83-19.45,32.37-32.63,43.19-88.54,26.29-135.95-11.2-31.45-44.5-85.73-141.62-96C904,25.57,860.68,35,831.74,60.66c-48,42.6-49.19,124.41-50.22,196.58-.32,22.05-.61,42.89-2.26,61.54C772.71,393,756.57,431.75,744.7,450.83Z"/><rect class="cls-3" x="294.26" y="1381.62" width="1046.97" height="1092.58" rx="214.83" transform="translate(1635.5 3855.82) rotate(180)"/><path class="cls-5" d="M1126.41,1381.62c118.15,0,214.83,96.67,214.83,214.83v662.92c0,118.16-96.68,214.83-214.83,214.83H509.09c-118.15,0-214.83-96.67-214.83-214.83V1596.45c0-118.16,96.68-214.83,214.83-214.83h617.32m0-33.92H509.09c-137.16,0-248.74,111.59-248.74,248.75v662.92c0,137.16,111.58,248.75,248.74,248.75h617.32c137.16,0,248.74-111.59,248.74-248.75V1596.45c0-137.16-111.58-248.75-248.74-248.75Z"/><path class="cls-3" d="M374.9,1778.67c-8.77,22.43-13.69,40-11.15,46.89a5.52,5.52,0,0,0,1.23,2C398.22,1860,424,1899.84,441,1943.76c57.7,149.36,20.56,308-16.83,348.33-22.89,25.95-63.68,46.47-111.38,57.53-68.25,15.81-150.59,12.21-214.35-22.6-121.34-66.26-57.79-186,46.76-179.42,0,0-118.92-113.07-99.12-254.71,16.11-115.4,113.16-249.8,280.88-357.4,63.55-40.79,137.23-77.71,220.5-108.32l-54.19,67.75-30.48,101.37-2.08,6.82s-15.55,28.36-34.25,65C408.52,1703.29,387.62,1746.11,374.9,1778.67Z"/><path class="cls-5" d="M46.74,1976.93a15,15,0,0,1-5.87-28.82c158.74-67.37,353.09-45.9,432.36-4.49a15,15,0,1,1-13.89,26.59c-74-38.66-256.53-58.25-406.75,5.52A15,15,0,0,1,46.74,1976.93Z"/><g class="cls-4"><path class="cls-5" d="M363.75,1825.56c-26.07-15.73-59-36.75-66.26-46.67-10.64-14.55,71.94-88.82,129-110.79C396.14,1727.5,357.52,1808.69,363.75,1825.56Z"/></g><g class="cls-4"><path class="cls-5" d="M98.44,2327c34.45,18.81,74.3,28.49,114.48,30.94,86.07,5.28,173.36-22.81,211.31-65.84,27.58-29.72,54-95.71,46.85-205C465.94,2156,445.4,2200.17,424.23,2223c-38,43-125.24,71.12-211.31,65.85-23.24-1.42-117.43-17.6-132.2-50.24-27.2-60.1,84.12-73.85,68.95-80.46-51.22-22.34-82.06,5.24-101.49,31.45C19.51,2229,26.1,2287.51,98.44,2327Z"/></g><g class="cls-4"><path class="cls-5" d="M268.1,2201.65S75,2012.24,61.56,1832.29a303.14,303.14,0,0,0-15.27,60.39c-19.77,141.65,99.16,254.76,99.16,254.76-21.59-1.36-41.4,2.63-58.22,10.5C126,2147.57,190.39,2156.07,268.1,2201.65Z"/></g><g class="cls-6"><path class="cls-7" d="M48.18,2189.58A99,99,0,0,1,87,2158.13C65.54,2163.86,51.91,2175.35,48.18,2189.58Z"/></g><path class="cls-5" d="M549.45,1432.46c-8.9,5.72-18,10.68-27.13,15.69l-13.59,7.53c-4.56,2.42-9.16,4.72-13.67,7.24-18.13,9.8-36.38,19.09-54.5,28.58-36.15,19.13-71.74,39.09-106.34,60.65a815.22,815.22,0,0,0-98.36,72.22c-30.6,26.73-59.33,55.56-84.61,87S103.92,1776.76,87.61,1813s-27,75-26.67,113.3c.48,77.36,42.19,153.28,96,209L188,2167.49l-43.8-2.95c-22.39-1.51-44.89,4.06-62.71,16.2-17.85,12-30.32,31-31.92,51-1.8,20,7.42,40.12,23.29,55.79a142.38,142.38,0,0,0,27.27,20.84,194.77,194.77,0,0,0,32,15.55c44.81,17.3,95.25,21,143.76,15.07,24.27-3.11,48.32-8.66,70.88-17.31s43.9-20.26,59.91-35.71c1.85-2,4.05-4.1,5.63-6.13l4.72-6c2.73-4.86,5.89-9.2,8.18-14.72l3.75-7.9,3.18-8.4c2.28-5.5,4-11.35,5.77-17.17,6.95-23.35,11.27-47.84,13.79-72.46s2.5-49.6,1.18-74.36l-1.52-18.55c-.54-6.18-1.65-12.29-2.44-18.44-1.37-12.35-4.45-24.37-6.76-36.54-6.08-23.89-13.25-47.88-23.16-70.16a296.68,296.68,0,0,0-16.84-32.51,316.64,316.64,0,0,0-21-29.89A453.37,453.37,0,0,0,331,1820.2c-18.11-16.28-37.44-31.24-57.72-47.68l0,0a5.86,5.86,0,0,1,4.5-10.36,144,144,0,0,1,38.86,11.46,188.89,188.89,0,0,1,35.42,20A249.5,249.5,0,0,1,383.13,1820a283,283,0,0,1,26.42,31.06A402.61,402.61,0,0,1,450,1921.32c11,24.79,18.62,50.3,25.2,76.23,2.52,13.1,5.79,26.08,7.29,39.34.85,6.6,2,13.18,2.61,19.81l1.64,19.92c1.43,26.58,1.52,53.28-1.27,79.82s-7.34,52.95-15.07,78.93c-2,6.49-3.9,13-6.52,19.4l-3.68,9.64-4.5,9.55c-2.7,6.38-6.92,12.67-10.63,18.94l-7.19,9.18c-2.43,3-4.94,5.37-7.44,8.05-21.21,20.35-46.17,33.35-71.58,43.19s-52,15.84-78.72,19.27a364.88,364.88,0,0,1-80.79,1.29c-26.92-2.67-53.78-8.4-79.44-18.38a227.38,227.38,0,0,1-37.29-18.12,175.85,175.85,0,0,1-33.84-26,118.08,118.08,0,0,1-25.39-36.79c-6-14.12-9.14-30.09-7.64-45.8a96.61,96.61,0,0,1,15-43.77,110.81,110.81,0,0,1,31.55-32.3c24.81-16.91,55.06-24,84-22l-12.75,29.21c-4.43-4.31-7.91-8.07-11.66-12.19s-7.2-8.15-10.63-12.34q-10.36-12.51-19.7-25.77a402.51,402.51,0,0,1-33.14-55.9C39.58,2014.6,27.1,1971.17,27,1926.51c-.33-45,12-88,29.65-127.4s41.4-75.75,68.16-109c53.69-66.6,119.82-121,190-168.07a796,796,0,0,1,110.62-61.5,556.51,556.51,0,0,1,58.75-23.27c10-3.25,20.17-6.16,30.34-8.92,10.28-2.48,20.57-4.84,31.06-6.53a5.76,5.76,0,0,1,4,10.53Z"/><path class="cls-5" d="M148.15,2128.47c11.13,7.53,23.34,15.06,35.39,22.12s24.45,13.94,37,20.43,25.16,12.74,38,18.54,25.88,11.21,39,16.36l.17.07a8.61,8.61,0,0,1-5.49,16.29c-13.94-4-27.88-8.06-41.58-12.84s-27.35-9.75-40.82-15.2-26.83-11.16-40-17.28-26.14-12.41-39.48-19.65a17,17,0,1,1,16.21-29.85,16.2,16.2,0,0,1,1.4.84Z"/><path class="cls-5" d="M199.42,2170.16a85,85,0,0,1,23.18,16.38c6.79,6.81,13.08,14.7,16.67,25.6a33.4,33.4,0,0,1,.65,18.82,28,28,0,0,1-4.43,9.27,30.62,30.62,0,0,1-6.91,6.55,34.72,34.72,0,0,1-15.3,5.66,38.65,38.65,0,0,1-14.93-.89,3,3,0,0,1-1.14-5.34l.09-.08c7.53-5.89,14.86-10.24,18.77-14.79a13.23,13.23,0,0,0,3.31-5.83,15.17,15.17,0,0,0-.41-7.45c-1.6-6.15-5.62-13.21-10.1-20s-9.79-13.62-15.12-20.5l-.11-.15a4.77,4.77,0,0,1,5.78-7.24Z"/><path class="cls-3" d="M1628.55,1710.5l-380.71,49.6-151.31,19.72s-13.53-55.5-25.31-123.71c-1.83-10.56-3.61-21.37-5.3-32.35-6.79-44-12-90.31-12-128.84,0-55.42,10.6-94.76,42.69-87.81,90.18,19.63,147.92,54.27,202.27,95.69,8.19,6.23,16.28,12.64,24.42,19.12C1397.79,1581.7,1474.06,1651.91,1628.55,1710.5Z"/><path class="cls-5" d="M1083.66,1798.58l-3.6-14.77c-.19-.79-19.41-80-32-164.64-23.75-159.59-4.73-200.36,11.63-217.14,10.53-10.8,24.93-14.88,40.54-11.49h0c121,26.31,187.42,80.43,257.74,137.72,66.17,53.9,141.16,115,276.62,166.35l63.16,24Zm5.89-375.31a7,7,0,0,0-5.59,2.44c-29.86,30.62-3.87,209.41,25.52,335.3l454.09-59.18c-104.5-47.46-169.06-100-227-147.28-70-57-130.45-106.28-243.53-130.86h0A16,16,0,0,0,1089.55,1423.27Z"/><g class="cls-4"><path class="cls-5" d="M601.79,2650.74c1.78.77,3.56,1.49,5.34,2.21v0C605.35,2652.27,603.57,2651.51,601.79,2650.74Z"/></g><g class="cls-4"><path class="cls-5" d="M826.57,2176.5q6.81,10.42,13.19,20.48C835.48,2190.28,831.07,2183.41,826.57,2176.5Z"/></g><path class="cls-3" d="M1383.93,3010.41a77.29,77.29,0,0,1-1.15,7.75c-13.73,77.63-109,105.36-280.57,84-77.67-9.63-185.06-21.07-213.38-80.09-56.56-117.73,1.14-356-5.56-508.67v-.25a671.72,671.72,0,0,1-139.86,0c0,1.23-.09,2.46-.13,3.73-5.72,152.75,50.67,388.35-5.42,505.19-28.33,59-135.67,70.46-213.38,80.09-171.75,21.41-267.06-6.36-280.67-84.16-.42-2.5-.8-5-1.1-7.54-9.88-94.8,128.8-138.85,128.8-138.85s-30.23-201.21-50.2-382.75c-5-45.66-7.71-92.26-8.48-139.19-.59-31.5-.25-63.13.81-94.71,0-.76,0-1.53.09-2.29,1.61-48.59,5-97,9.58-144.44q1.45-14.89,3.09-29.6c9.75-89.16,23.62-174.46,38.58-251q4.26-21.82,8.61-42.7c.42-2.07.85-4.15,1.31-6.19,13.57-64.74,27.43-121.59,39.39-167.08,2.5-9.45,4.92-18.44,7.21-26.88.21-.76.42-1.57.63-2.33a9.83,9.83,0,0,1,.3-1c14.88-54.65,25.18-86.44,25.18-86.44h731.46s10.35,32,25.27,86.78c.13.38.21.81.34,1.19,8.9,32.56,19.37,73.13,30.27,119.77,4.24,18.23,8.56,37.43,12.89,57.44,20,92.43,39.77,202.44,52.4,318.91,1.06,9.37,2,18.78,3,28.23,4.7,47.87,8.09,96.67,9.71,145.68.12,2.33.17,4.7.25,7q.63,21.18.85,42.4c.59,62.79-2,125.49-8.69,186.46-19.93,181.54-50.16,382.75-50.16,382.75S1393.81,2915.61,1383.93,3010.41Z"/><g class="cls-4"><path class="cls-5" d="M737.84,3022c-28.33,59-135.68,70.44-213.37,80.11-171.76,21.35-267.07-6.39-280.66-84.21,140.6,53.28,388.46,22.85,430.84-44.76,54.88-87.55,63.78-175.05-21.58-284.13s-91.92-251.41-91.92-251.41c40.78,28.65,124.68,59.76,182.12,79.2C737.52,2669.59,794,2905.13,737.84,3022Z"/></g><g class="cls-4"><path class="cls-5" d="M1382.78,3018.18c-13.73,77.6-109,105.29-280.57,83.94-77.69-9.67-185.08-21.12-213.41-80.11-56.53-117.75,1.18-356-5.52-508.67,47.53-14.19,135.54-43.2,181.89-75.73,0,0,23.35,102.37-76.05,242.29-80.2,112.91-86,202.74-31.16,290.24C996.87,3032.23,1228.21,3057.73,1382.78,3018.18Z"/></g><path class="cls-5" d="M419.77,1613c-18.56,104.55-38.45,208.2-54.54,312.46s-28,209-33.36,314.06c-1.94,52.51-2.93,105.13-.19,157.51l.84,19.65.43,9.83.83,9.79,3.41,39.14c2.34,26.12,5.73,52.52,8.73,78.76Q364.87,2711.8,388.27,2869l2.08,14.12-13.72,4.56c-5.28,1.75-11.5,4.18-17.2,6.61s-11.54,5.12-17.17,8a250.36,250.36,0,0,0-32.18,19.2c-20.09,14.17-37.42,31.93-45.57,52.37a70.54,70.54,0,0,0-5.06,31.8,78.86,78.86,0,0,0,8.48,31.56c9.89,19,29.28,32.49,52.09,40.54s48.18,11.92,73.75,13.51a600.54,600.54,0,0,0,77.81-.95c26.08-1.73,52.18-5.15,78.66-8.47,26.25-3.4,52.21-7.19,77.25-13.05,24.88-5.85,49.37-13.73,68.94-26.38,9.72-6.3,17.87-13.88,23.24-22.57a30.43,30.43,0,0,0,1.89-3.32,28.65,28.65,0,0,0,1.81-3.71l3.63-8.29c2-5.77,4.27-11.45,5.87-17.47,1.9-5.88,3.13-12.08,4.63-18.16,1.12-6.23,2.49-12.37,3.3-18.73,2-12.57,3.06-25.44,4-38.33,1.52-25.87,1.4-52.09.46-78.4-2.05-52.66-7.21-105.61-11.8-158.92-4.44-53.35-9.09-107.07-7-162.16l.69-18.07,18.23,2c10.88,1.19,22.51,2,33.82,2.63s22.78.89,34.14.91,22.75-.32,34.14-.91,22.94-1.44,33.82-2.63l18.22-2,.7,18.07c2.1,55.09-2.54,108.81-7,162.16-4.59,53.31-9.76,106.26-11.8,158.92-.95,26.31-1.07,52.53.45,78.4.91,12.89,2,25.76,4,38.33.81,6.36,2.18,12.5,3.3,18.73,1.5,6.08,2.73,12.28,4.62,18.16,1.61,6,3.83,11.7,5.88,17.47l3.62,8.29a64.72,64.72,0,0,0,3.71,7c5.37,8.69,13.52,16.27,23.24,22.57,19.56,12.65,44,20.53,68.94,26.38,25,5.86,51,9.65,77.25,13.05,26.48,3.32,52.58,6.74,78.65,8.47a600.71,600.71,0,0,0,77.82.95c25.57-1.59,50.94-5.34,73.74-13.51s42.2-21.57,52.1-40.54a78.86,78.86,0,0,0,8.48-31.56,70.67,70.67,0,0,0-5.06-31.8c-8.15-20.44-25.49-38.2-45.58-52.37a250.24,250.24,0,0,0-32.17-19.2c-5.63-2.83-11.37-5.48-17.17-8s-11.93-4.86-17.2-6.61l-13.72-4.56,2.08-14.12q23.35-158.28,42.64-317.32c3-26.43,6.42-53.09,8.78-79.35,1.1-13.16,2.66-26.26,3.39-39.46l2.35-39.57c2.16-52.85,1.85-105.86-.37-158.83-4.22-106-17.24-211.69-35.49-316.37-9-52.25-18.64-104.93-28.29-156.7-10.76-52-21-104.37-31.92-156.44l0-.07a5.69,5.69,0,0,1,10.69-3.65c11.85,24.51,21.11,49.91,29.78,75.4,4.27,12.78,8.4,25.58,12.18,38.48s7.59,25.79,11,38.83c13.14,52.65,23.66,105,32.22,158.2,4.41,26.51,8.17,53.13,11.64,79.8q2.71,20,5,40c1.62,13.35,3.27,26.69,4.56,40.08s2.94,26.73,4.08,40.14l3.56,40.21,2.78,40.28c.93,13.43,1.35,26.9,2,40.35,2.26,53.83,2.58,107.8.37,161.77l-2.39,40.46c-.75,13.49-2.35,26.95-3.48,40.42-2.43,27-5.8,53.35-8.85,80q-19.12,159.57-42.78,318.35l-11.63-18.69c7.39,2.46,13.6,4.93,20.19,7.72s12.87,5.71,19.16,8.88a284,284,0,0,1,36.54,21.82,194.79,194.79,0,0,1,32.87,28.84,130,130,0,0,1,24.57,38.59,104.47,104.47,0,0,1,7.42,46.6,112.5,112.5,0,0,1-12.3,45.16,107.06,107.06,0,0,1-30.81,35.66,149,149,0,0,1-39.73,21c-27.56,9.83-55.63,13.72-83.26,15.48a633.33,633.33,0,0,1-82.26-1c-27.23-1.81-54.11-5.34-80.6-8.67-26.69-3.45-53.66-7.35-80.65-13.65s-54.26-14.69-79.77-31c-12.61-8.19-24.76-19-33.48-33.05a55.62,55.62,0,0,1-3.07-5.37,50.83,50.83,0,0,1-2.59-5.28L868.14,3017c-2.46-6.79-5.06-13.58-6.91-20.46-2.17-6.85-3.57-13.76-5.25-20.65-1.26-6.9-2.77-13.81-3.66-20.71-2.19-13.81-3.33-27.57-4.29-41.31-1.61-27.44-1.46-54.69-.49-81.74,2.1-54.09,7.33-107.49,11.9-160.57s8.89-106,6.88-157.74l18.92,16.09c-12.34,1.34-24,2.17-36,2.81s-23.89.94-35.89,1-24-.34-35.89-1-23.69-1.47-36-2.81l18.91-16.09c-2,51.73,2.45,104.73,6.89,157.74s9.8,106.48,11.9,160.57c1,27,1.12,54.3-.49,81.74-1,13.74-2.1,27.5-4.3,41.31-.88,6.9-2.39,13.81-3.65,20.71-1.68,6.89-3.08,13.8-5.26,20.65-1.85,6.88-4.44,13.67-6.9,20.46l-4.39,10.06a50.83,50.83,0,0,1-2.59,5.28,60.17,60.17,0,0,1-3.07,5.37c-8.72,14.06-20.88,24.86-33.48,33.05-25.51,16.33-52.89,24.58-79.77,31s-54,10.2-80.65,13.65c-26.49,3.33-53.38,6.86-80.6,8.67a633.33,633.33,0,0,1-82.26,1c-27.63-1.76-55.7-5.65-83.27-15.48a149,149,0,0,1-39.72-21A107.06,107.06,0,0,1,237.91,3053a112.68,112.68,0,0,1-12.31-45.16,104.75,104.75,0,0,1,7.42-46.6,130,130,0,0,1,24.58-38.59,194.79,194.79,0,0,1,32.87-28.84A284,284,0,0,1,327,2872q9.44-4.75,19.16-8.88c6.59-2.79,12.8-5.26,20.19-7.72l-11.63,18.69q-23.3-157.74-42.49-315.83c-3-26.45-6.39-52.66-8.79-79.36l-3.5-40.1-.89-10-.49-10-1-20.07c-3.17-53.54-2.23-107.08-1-160.55,2.34-53.39,5.51-106.79,11.69-159.82,2.54-26.59,6.24-53,9.73-79.47l6-39.56c2-13.19,4.19-26.34,6.61-39.45,18.45-105,43-209,78.14-309.65a5.67,5.67,0,0,1,10.93,2.87Z"/><path class="cls-5" d="M1112.49,2756.44c-60.07,0-138-11.32-238.13-44a15,15,0,0,1,9.3-28.52c297.49,97,384.59-3.3,385.43-4.33a15,15,0,0,1,23.46,18.7C1289.9,2701.68,1244.52,2756.44,1112.49,2756.44Z"/><path class="cls-5" d="M500.88,2763.7c-63.07,0-123.66-11.31-162.53-45.58a15,15,0,1,1,19.84-22.51c99.22,87.48,384.57-2.12,387.44-3a15,15,0,0,1,9.12,28.58C746.67,2723.73,619.41,2763.7,500.88,2763.7Z"/><path class="cls-5" d="M740.68,2529.83a224.17,224.17,0,0,1-25.82-4.93c-8.35-2-16.53-4.53-24.68-7.11a373.4,373.4,0,0,1-47.38-19.43c-7.69-3.69-15.16-7.86-22.63-11.92a252,252,0,0,1-21.43-14,192.7,192.7,0,0,1-37.57-34.79c16.58,5.11,31.69,11.41,47.2,16.78s30.41,11.35,45.78,16.25q22.92,7.59,46.12,13.88c7.69,2.21,15.45,4.11,23.15,6.18l22.69,5.62.81.2a17,17,0,0,1-6.24,33.29Z"/><path class="cls-5" d="M880.21,2496.34l22.69-5.62c7.69-2.07,15.45-4,23.14-6.18q23.19-6.26,46.12-13.88c15.37-4.9,30.39-10.75,45.78-16.25s30.62-11.67,47.21-16.78a192.47,192.47,0,0,1-37.58,34.79,252,252,0,0,1-21.43,14c-7.47,4.06-14.94,8.23-22.63,11.92a372.8,372.8,0,0,1-47.38,19.43c-8.14,2.58-16.33,5.12-24.68,7.11a224.17,224.17,0,0,1-25.82,4.93,17,17,0,0,1-6.24-33.29Z"/><path class="cls-5" d="M1251.8,2888.15l-24-1.36c-4.11-.19-8.23-.27-12.34-.55-4.13-.06-8.25-.15-12.38-.33a489.68,489.68,0,0,0-49.75,1.25c-8.35.57-16.59,1.74-25,2.77-8.15,1.73-16.7,2.53-24.82,4.82-16.74,3.33-32.79,9.14-49.52,14.85l-.14.05a2.44,2.44,0,0,1-2.36-4.19c13.68-11.43,28.73-21.94,45.19-29.72a131.57,131.57,0,0,1,12.44-5.71c4.21-1.77,8.45-3.51,12.75-5.13,8.69-2.75,17.37-6,26.35-7.9,17.83-4.39,36.14-7.49,54.57-7.88a220.59,220.59,0,0,1,27.67.84c4.62.41,9.21,1,13.83,1.79a131.6,131.6,0,0,1,14.23,3.18,17,17,0,0,1-5.54,33.3Z"/><g class="cls-4"><path class="cls-5" d="M569.32,2442.82s129.13,20.77,228.85,20.77,259.34-20.77,259.34-20.77-95.83,73.43-248.62,70.26C652.27,2509.84,569.32,2442.82,569.32,2442.82Z"/></g><g class="cls-4"><path class="cls-5" d="M1140.53,2242c6,182.39-140.58,109.13-342.3,123.8-195.49-7.42-324.59,41.5-318.35-116.72-70.89,8.86-125.2,9.07-166.15,3.52,1.61-48.59,5-97,9.58-144.44q1.45-14.89,3.09-29.6c49.05.47,101.16,7.17,153.48-.76-13.15-211.94,110.31-138.72,342.22-151.69,216,8.43,332.47-48.89,318.43,147.75,50,11.15,106.16,6.27,159.71,5.13,1.06,9.37,2,18.78,3,28.23,4.7,47.87,8.09,96.67,9.71,145.68C1257.5,2256.6,1197.22,2256.18,1140.53,2242Z"/></g><path class="cls-3" d="M570.79,2166.22c-67.15,27.18-171.08,21.49-241.93,12.92a76.07,76.07,0,0,1-66.06-86.7h0a76.05,76.05,0,0,1,78.74-64.91c66.27,3.11,165.67,4.56,228.62-9.4"/><g class="cls-4"><path class="cls-5" d="M570.8,2166.21c-67.17,27.22-171.09,21.48-241.93,13a76.22,76.22,0,0,1-58.24-110.85,75.91,75.91,0,0,0,58.24,40.24c70.72,8.58,174.47,14.27,241.64-12.78Z"/></g><path class="cls-5" d="M437.3,2203.18c-38.81,0-77.42-3.21-110.48-7.2a93.09,93.09,0,0,1,15.51-185.39c69.12,3.24,164.1,4.3,224.16-9,9.15-2,31.92-2,45.47,41.53,13.89,44.69,12.44,119.71-34.81,138.84h0C537.88,2197.83,487.42,2203.18,437.3,2203.18ZM337.92,2044.4a59.17,59.17,0,0,0-7,117.9c101.46,12.28,184.39,8.09,233.53-11.8,15.45-6.26,19.53-31.28,20.57-41.75,3.46-34.91-7.38-66.43-13.89-73.48-63.75,13.52-160.19,12.49-230.36,9.2C339.8,2044.43,338.86,2044.4,337.92,2044.4Zm232.87,121.82h0Z"/><path class="cls-3" d="M1326.34,2179.14c-33.24,4-73.81,7.42-114.43,7-2.8,0-5.55,0-8.35-.12s-5.89-.13-8.82-.26c-2,0-3.94-.13-5.85-.21l-6.91-.38c-2.92-.17-5.85-.38-8.73-.59H1173c-2.89-.22-5.81-.47-8.7-.77-1.9-.17-3.81-.38-5.68-.59-1.61-.13-3.22-.34-4.79-.51-2.5-.3-5-.64-7.42-1s-4.62-.67-6.87-1.06a6.56,6.56,0,0,1-1.35-.21c-2.67-.38-5.3-.85-7.89-1.35s-5.21-1-7.76-1.53l-.63-.13c-1.44-.34-2.89-.63-4.28-1-1.57-.34-3.14-.72-4.71-1.15h0c-4.79-1.18-9.5-2.54-14.08-4-2.46-.77-4.92-1.61-7.33-2.46s-4.79-1.78-7.08-2.71l.29-71.1.34-77c16.11,3.6,34.64,6.14,54.35,7.92,57.32,5.22,124.95,3.78,174.25,1.49,1.19,0,2.38-.09,3.61-.09a76.13,76.13,0,0,1,9.07,151.7Z"/><g class="cls-4"><path class="cls-5" d="M1326.36,2179.15c-33.24,4-73.82,7.42-114.43,7-2.8,0-5.56,0-8.35-.13s-5.9-.12-8.82-.25c-2,0-3.94-.13-5.85-.21l-6.91-.39c-2.93-.16-5.85-.38-8.74-.59h-.21c-2.88-.21-5.81-.47-8.69-.76-1.91-.17-3.82-.38-5.68-.6-1.61-.12-3.22-.33-4.79-.5-2.5-.3-5-.64-7.42-1s-4.62-.68-6.87-1.06a6.66,6.66,0,0,1-1.36-.21c-2.67-.38-5.3-.85-7.88-1.36s-5.22-1-7.76-1.52l-.64-.13c-1.44-.34-2.88-.64-4.28-1-1.57-.34-3.14-.72-4.7-1.14h0c-4.79-1.19-9.49-2.54-14.07-4-2.46-.76-4.92-1.61-7.34-2.46s-4.79-1.78-7.08-2.71l.3-71.1,0-5.42c2.16.89,4.45,1.78,6.74,2.58s4.88,1.7,7.34,2.46c4.58,1.44,9.28,2.8,14.07,4h0c1.56.42,3.13.8,4.7,1.14,1.4.34,2.84.64,4.28,1l.64.12q3.81.83,7.76,1.53c2.58.51,5.21,1,7.88,1.36a7.43,7.43,0,0,0,1.36.21c2.25.38,4.54.72,6.87,1.06s4.92.68,7.42,1c1.57.17,3.18.39,4.79.51,1.86.21,3.77.43,5.68.6,2.88.29,5.81.55,8.69.76h.21c2.89.21,5.81.42,8.74.59l6.91.38c1.91.09,3.86.17,5.85.22,2.92.12,5.89.21,8.82.25s5.55.13,8.35.13c40.61.38,81.19-3,114.43-7a75.86,75.86,0,0,0,56.55-37.22,76.17,76.17,0,0,1-56.55,113.87Z"/></g><path class="cls-5" d="M1217.91,2203.18c-50.13,0-100.58-5.34-139.86-21.24h0c-47.25-19.13-48.71-94.15-34.82-138.84,13.56-43.58,36.32-43.55,45.48-41.53,60,13.32,155,12.25,224.15,9A93.08,93.08,0,0,1,1328.38,2196C1295.33,2200,1256.72,2203.18,1217.91,2203.18Zm-133.82-167.91c-6.5,7-17.34,38.58-13.88,73.48,1,10.47,5.12,35.49,20.57,41.75h0c49.14,19.89,132.08,24.08,233.53,11.8a59.16,59.16,0,0,0-9.85-117.83C1244.3,2047.76,1147.85,2048.79,1084.09,2035.27Z"/><path class="cls-3" d="M1110.37,1969.19v237.32a80.32,80.32,0,0,1-80.07,80.07H593.23c-44,0-80-36-80-80.07V1969.19a80.26,80.26,0,0,1,80-80H1030.3a80.24,80.24,0,0,1,80.07,80Z"/><g class="cls-4"><path class="cls-5" d="M1110.37,1969.19v237.33a80.31,80.31,0,0,1-80.08,80.05H593.23a80.24,80.24,0,0,1-80-80v-88.82c46.83,91,205.92,126.83,336.81,113.58,29.23-3,50.14-30.74,43.17-59.29a113.46,113.46,0,0,1-3.2-26.91c0-51.76,34.3-93.73,76.61-93.73,40.91,0,76,47.11,78.17,96.55,52.38-11,53.68-168.16,49.27-227A79.58,79.58,0,0,1,1110.37,1969.19Z"/></g><path class="cls-5" d="M1030.32,2303.53H593.25a97.1,97.1,0,0,1-97-97V1969.19a97.09,97.09,0,0,1,97-97h437.07a97.09,97.09,0,0,1,97,97v237.35A97.09,97.09,0,0,1,1030.32,2303.53ZM593.25,1906.11a63.15,63.15,0,0,0-63.07,63.08v237.35a63.14,63.14,0,0,0,63.07,63.07h437.07a63.15,63.15,0,0,0,63.08-63.07V1969.19a63.15,63.15,0,0,0-63.08-63.08Z"/><circle class="cls-8" cx="966.63" cy="2087.86" r="69.02" transform="translate(-1287.47 2548.94) rotate(-76.72)"/><path class="cls-3" d="M1035.65,2087.88a65.5,65.5,0,0,1-.89,11,69,69,0,0,0-136.27,0,65.49,65.49,0,0,1-.9-11,69,69,0,0,1,138.06,0Z"/><g class="cls-4"><path class="cls-5" d="M1035.62,2087.85a69,69,0,1,1-138,0,67.44,67.44,0,0,1,4.74-25,69,69,0,0,0,128.54,0A67.43,67.43,0,0,1,1035.62,2087.85Z"/></g><path class="cls-5" d="M966.63,2169.6a81.74,81.74,0,1,1,81.73-81.74A81.83,81.83,0,0,1,966.63,2169.6Zm0-138a56.3,56.3,0,1,0,56.29,56.3A56.36,56.36,0,0,0,966.63,2031.56Z"/><path class="cls-5" d="M771,2301.57a15,15,0,0,1-15-15V2156.35a63.53,63.53,0,0,0-25.2-50.5L705.77,2087a93.67,93.67,0,0,1-37.14-74.46V1889.15a15,15,0,0,1,30,0v123.37A63.49,63.49,0,0,0,723.82,2063l25.07,18.88A93.68,93.68,0,0,1,786,2156.35v130.22A15,15,0,0,1,771,2301.57Z"/><g class="cls-4"><path class="cls-5" d="M1323.3,1521.92a741.94,741.94,0,0,1-119,59.78,888.66,888.66,0,0,1-138.42,42.06c-76.4,16.83-160.52,25.86-252.09,25.86-133,0-250.26-19-351-53.33q-20.67-7.07-40.4-14.93A760.08,760.08,0,0,1,327,1535.49c63.55-40.79,137.23-77.71,220.5-108.32l-54.19,67.75h560.61c0-55.42,10.6-94.76,42.69-87.81,90.18,19.63,147.92,54.27,202.27,95.69C1307.07,1509,1315.16,1515.44,1323.3,1521.92Z"/></g><path class="cls-9" d="M1610.67,919.08c0,356.63-278.35,645.74-796.86,645.74S17,1275.71,17,919.08c0-698.56,612.39-542.94,796.85-542.94S1610.67,220.52,1610.67,919.08Z"/><g class="cls-2"><path class="cls-3" d="M721.6,1275.77l-5.86,24.55v0a12.54,12.54,0,0,0-1-.73,7,7,0,0,0-1-.64,4.75,4.75,0,0,0-.89-.47,8.33,8.33,0,0,0-1.25-.58c-.41-.16-.86-.32-1.3-.45l-116.24-35.16a16.57,16.57,0,0,0-20.34,10.11l-31.62,85.5C254.47,1230.19,230.84,913,230.84,913c2.43,2,4.88,4,7.33,6v0c19,93.38,85.06,300.31,303.92,397.52L573.71,1231a16.58,16.58,0,0,1,20.34-10.1L710.29,1256A16.57,16.57,0,0,1,721.6,1275.77Z"/></g><g class="cls-2"><path class="cls-3" d="M903.83,1405.4a797.86,797.86,0,0,1-90,4.88,790.83,790.83,0,0,1-112.54-7.72l9.57-40.17a792.29,792.29,0,0,0,103,6.44,804.67,804.67,0,0,0,80.4-3.86Z"/></g><g class="cls-2"><path class="cls-3" d="M1396.76,913s-24.71,331.87-331.33,453.36l-34.69-93.88a16.59,16.59,0,0,0-20.37-10.11l-116.23,35.16c-.45.13-.9.29-1.31.45a8.22,8.22,0,0,0-1.24.58,4.54,4.54,0,0,0-.9.47,6.35,6.35,0,0,0-1,.64,11,11,0,0,0-1,.73l-5.87-24.58A16.62,16.62,0,0,1,894.14,1256l116.23-35.16a16.59,16.59,0,0,1,20.37,10.1l34.69,93.89c234.92-93.09,304.36-309.65,324-405.86v0Q1393.08,916,1396.76,913Z"/></g><g class="cls-2"><path class="cls-3" d="M1610.67,919.07c0,5.45-.06,10.9-.21,16.35C1604,601,1407.93,429.32,1237.57,410.35c-104.71-11.66,67.88,156.56,55.68,157.25-35.52,2-254-212.45-349.39-172.64-43.06,18,100.26,193.5,64.4,230.64C1003.8,630.22,881,442.06,845.85,427.44c-28.27-11.75-55.62-3.74-71.44,3.11C722.24,453.13,614.82,636.7,614.82,636.7s3.81-58.17,23.93-114.41c24.1-67.38,62.66-99,54-114-16.41-28.42-82.91-5.18-121,9.85-27.17,10.73-183.81,86.73-183.81,86.73s117.33-124,1.81-100.71C200.47,442.34,24.11,575.52,17.17,935.42,17,930,17,924.52,17,919.07c0-698.55,612.38-542.92,796.85-542.92S1610.67,220.52,1610.67,919.07Z"/></g><g class="cls-4"><path class="cls-5" d="M1610.66,919.08c0,356.64-278.34,645.73-796.85,645.73S17,1275.72,17,919.08q0-26.49,1.19-51.36C29,1051.1,128.48,1247.09,232.59,1286.54c33.09,12.54,5.58-88.91,5.58-88.91s210.49,230.58,309,251.31c68.46,14.41,97.2-7.56,97.2-7.56s77.42,83.23,169.42,83.23,165.48-75.51,165.48-75.51,48.84-1.25,93.93-4.3c122.52-8.3,325.09-272.78,325.09-272.78s-40.4,110.78-11.46,118.32c63.63,16.59,212.23-247.38,222.62-422.62Q1610.67,892.59,1610.66,919.08Z"/></g><path class="cls-5" d="M813.82,1581.78c-249.7,0-458.56-66.84-604-193.29C74.52,1270.84,0,1104.14,0,919.08,0,715.26,52.38,563.75,155.69,468.77,318.1,319.44,572.28,340.82,724.13,353.6c35.67,3,66.47,5.59,89.69,5.59s54-2.59,89.68-5.59c151.86-12.78,406-34.16,568.44,115.17,103.31,95,155.69,246.49,155.69,450.31,0,185.06-74.52,351.76-209.82,469.41C1272.37,1514.94,1063.51,1581.78,813.82,1581.78ZM550.09,378.18c-128.51,0-269.13,21.49-371.45,115.55C82.61,582,33.92,725.14,33.92,919.08c0,382,306.13,628.78,779.9,628.78s779.89-246.81,779.89-628.78C1593.71,725.14,1545,582,1449,493.73c-151.45-139.24-386.86-119.44-542.63-106.34-36.44,3.07-67.9,5.71-92.53,5.71s-56.11-2.64-92.53-5.71C670.74,383.14,611.81,378.18,550.09,378.18Z"/><path class="cls-5" d="M634.91,1435a182.48,182.48,0,0,1,12.27,14.54c4,4.86,7.54,9.86,11.16,14.81,7.32,9.85,13.88,20,20.83,29.84s13.84,19.62,20.9,29.18l10.53,14.27,10.28,13.57.55.73a14.08,14.08,0,0,1-21.24,18.4,147.7,147.7,0,0,1-12.91-15c-4-5-7.47-10.32-11-15.59a336,336,0,0,1-18.56-32.94c-5.43-11.34-10.69-22.72-14.5-34.73A173.28,173.28,0,0,1,634.91,1435Z"/><path class="cls-5" d="M785.21,387.63c-1.88,1.75-4.46,4.25-6.7,6.56l-7,7.18c-2.36,2.37-4.55,5-6.85,7.45s-4.59,5-6.78,7.58C749,426.62,740.29,437.19,732,448.1c-16.78,21.69-32.25,44.54-46.94,68-7.05,11.91-14.38,23.7-20.88,36-3.35,6.08-7,12.07-10.13,18.27s-6.51,12.33-9.76,18.53c-6.77,12.28-12.52,25.05-19.28,37.5-6.28,12.63-12.34,25.43-19.31,38.05,2.13-14.13,4.58-28.28,7.9-42.21,1.73-6.94,3.61-13.85,5.55-20.75L622,591.1l3.46-10.18c8.78-27.36,20.67-53.62,33.48-79.49a592.75,592.75,0,0,1,45.2-74.13c4.3-5.87,8.61-11.73,13.24-17.38l6.85-8.55,7.23-8.27c4.78-5.54,9.88-10.87,15.11-16.11,2.68-2.59,5.21-5.25,8.07-7.75s5.45-4.9,8.93-7.75A17,17,0,0,1,785.91,387Z"/><path class="cls-5" d="M525,1545.14a14.94,14.94,0,0,1-7.13-1.82c-3.57-1.93-88.29-48.49-174.13-146.59-79.29-90.61-173.92-243.94-174.44-459.81-.49-204,88.85-341.55,163.88-421,90.32-95.65,208.21-157.71,315.37-166a15,15,0,1,1,2.31,29.91C552.45,387.43,439.08,447.47,355,536.5,283.73,612,198.85,742.74,199.32,936.85c.49,206.09,90.69,352.62,166.26,439.26,82.34,94.39,165.79,140.4,166.62,140.85a15,15,0,0,1-7.18,28.18Z"/><path class="cls-5" d="M990.18,1439.35a165.61,165.61,0,0,1-8,35.94c-3.69,11.65-8.81,22.65-14.09,33.62a326.44,326.44,0,0,1-18,31.87c-3.42,5.09-6.82,10.21-10.67,15.08a142.35,142.35,0,0,1-12.54,14.51A14.08,14.08,0,0,1,905.6,1552l.54-.71,9.94-13.12,10.22-13.77c6.87-9.23,13.6-18.66,20.37-28.14s13.22-19.25,20.41-28.72c3.55-4.76,7.09-9.55,11-14.22A169.08,169.08,0,0,1,990.18,1439.35Z"/><path class="cls-5" d="M863.42,361.49c3.43,2.81,6,5.07,8.79,7.62s5.32,5.07,8,7.62c5.15,5.15,10.17,10.38,14.88,15.83l7.13,8.12,6.75,8.4c4.57,5.55,8.82,11.31,13.06,17.07A587.34,587.34,0,0,1,966.66,499c12.68,25.4,24.47,51.19,33.21,78.07l3.44,10,2.87,10.2c1.94,6.78,3.82,13.57,5.54,20.39,3.32,13.69,5.79,27.61,7.93,41.51-7-12.36-13-24.9-19.31-37.28-6.74-12.2-12.5-24.71-19.23-36.75-3.24-6.08-6.64-12.06-9.72-18.17S964.66,555,961.33,549c-6.46-12-13.73-23.62-20.72-35.29-14.55-23-29.84-45.43-46.4-66.71-8.18-10.71-16.76-21.09-25.56-31.13-2.16-2.56-4.4-5-6.67-7.44s-4.43-5-6.74-7.31l-6.85-7.06c-2.2-2.28-4.74-4.73-6.58-6.45l-.66-.61a16.95,16.95,0,0,1,22.27-25.53Z"/><path class="cls-5" d="M1102,1545.14a15,15,0,0,1-7.16-28.19c.82-.44,84.28-46.45,166.61-140.84,75.57-86.64,165.77-233.17,166.26-439.26.47-194.11-84.41-324.85-155.7-400.35-84.06-89-197.43-149.07-295.86-156.69a15,15,0,0,1,2.31-29.91c107.16,8.3,225,70.36,315.37,166,75,79.46,164.37,217,163.88,421-.52,215.87-95.15,369.2-174.44,459.81-85.84,98.1-170.56,144.66-174.13,146.59A15,15,0,0,1,1102,1545.14Z"/><g class="cls-2"><path class="cls-3" d="M988.26,1117.6l14,54.42a16.55,16.55,0,0,1-11.13-11.7l-10.71-41.64C983,1118.33,985.61,1118,988.26,1117.6Z"/></g><path class="cls-5" d="M1389.39,919c-19.6,96.21-89,312.77-324,405.86L1030.74,1231a16.59,16.59,0,0,0-20.37-10.1L894.14,1256a16.62,16.62,0,0,0-11.32,19.73l5.87,24.58a16.64,16.64,0,0,0-5.87,16.87L894.2,1365a804.67,804.67,0,0,1-80.4,3.86,792.29,792.29,0,0,1-103-6.44l10.77-45.17a16.56,16.56,0,0,0-5.86-16.87v0l5.86-24.55A16.57,16.57,0,0,0,710.29,1256l-116.24-35.16a16.58,16.58,0,0,0-20.34,10.1l-31.62,85.51C323.23,1219.28,257.21,1012.35,238.17,919c82.7,67,172.79,109.77,256.54,137l-9.88,75a16.57,16.57,0,0,0,13.23,18.43l119.23,23.08a16.54,16.54,0,0,0,19.19-12.11l17.38-67.62c94.78,13.71,159.94,9.18,159.94,9.18s65.19,4.53,160-9.18l17.35,67.62a16.55,16.55,0,0,0,19.19,12.11l119.23-23.08a16.56,16.56,0,0,0,13.26-18.43l-9.91-75C1216.67,1028.74,1306.7,986,1389.39,919Z"/><path class="cls-5" d="M813.8,1381.55A808.65,808.65,0,0,1,709.17,1375a12.7,12.7,0,0,1-10.71-15.56l10.77-45.17a3.83,3.83,0,0,0-1.31-3.89,12.76,12.76,0,0,1-4.55-13l5.86-24.54a3.88,3.88,0,0,0-2.63-4.61l-116.23-35.16a3.86,3.86,0,0,0-4.73,2.34L554,1320.9a12.74,12.74,0,0,1-17.1,7.21c-226.6-100.64-293.12-317.87-311.21-406.6a12.72,12.72,0,0,1,20.47-12.42c72.07,58.4,157,103.75,252.46,134.78a12.7,12.7,0,0,1,8.68,13.75l-9.88,75a3.88,3.88,0,0,0,3.08,4.28L619.71,1160a3.82,3.82,0,0,0,4.45-2.77l17.38-67.64a12.71,12.71,0,0,1,14.14-9.42c92.13,13.33,156.6,9.13,157.24,9.08a12.92,12.92,0,0,1,1.76,0c.64,0,65.14,4.25,157.27-9.08a12.73,12.73,0,0,1,14.14,9.43l17.35,67.62a3.8,3.8,0,0,0,4.45,2.78l119.23-23.08a3.81,3.81,0,0,0,3.08-4.21l-9.92-75a12.72,12.72,0,0,1,8.68-13.77c95.37-31,180.31-76.32,252.43-134.74a12.72,12.72,0,0,1,20.47,12.42c-18.91,92.79-89.09,319-331.75,415.15a12.71,12.71,0,0,1-16.61-7.41l-34.69-93.89a3.85,3.85,0,0,0-4.75-2.34l-116.24,35.16a3.93,3.93,0,0,0-2.62,4.66l5.86,24.53a12.73,12.73,0,0,1-4.48,12.93,3.93,3.93,0,0,0-1.38,4L906.57,1362a12.72,12.72,0,0,1-11.1,15.6C869.46,1380.23,842,1381.55,813.8,1381.55Zm-87.29-30.08a798.86,798.86,0,0,0,87.29,4.64c22.14,0,43.81-.84,64.62-2.49l-8-33.45a29.46,29.46,0,0,1,4.33-23.31l-4.33-18.13a29.42,29.42,0,0,1,20-34.86l116.25-35.16a29.32,29.32,0,0,1,36,17.86l30.12,81.53c196-83.41,269.43-257.8,296-357.18-65.4,47.89-139.86,86.08-221.93,113.81l8.54,64.55a29.27,29.27,0,0,1-23.42,32.57l-119.27,23.09a29.31,29.31,0,0,1-33.93-21.45l-14.52-56.61c-84.16,11.22-142.36,8.26-150.47,7.77-8.1.49-66.28,3.44-150.45-7.77L648.8,1163.5a29.3,29.3,0,0,1-33.91,21.44l-119.25-23.08a29.3,29.3,0,0,1-23.41-32.63l8.5-64.5c-82.12-27.75-156.58-66-222-113.83,25.54,95.36,94.82,261.87,276.14,348.29l26.86-72.62a29.29,29.29,0,0,1,36-17.86L714,1243.87a29.34,29.34,0,0,1,20,34.86l-4.32,18.09a29.41,29.41,0,0,1,4.33,23.32Z"/><path class="cls-5" d="M542.09,1367.93a10,10,0,0,1-4.06-.86c-151.5-67.29-229.68-187-268.58-275.51C227.39,995.81,221.12,917,220.87,913.69a10,10,0,0,1,16.42-8.39c2.34,2,4.72,3.92,7.09,5.8a10,10,0,0,1,3.66,6.19c17.21,84.19,79.51,287.56,288.41,385.63l27.88-75.41a26.6,26.6,0,0,1,32.63-16.2l116.22,35.16a26.62,26.62,0,0,1,18.15,31.63h0l-5.84,24.43a10,10,0,0,1-16,5.63c-.21-.13-.46-.31-.69-.48l-.2-.12c-.26-.12-.52-.26-.77-.4l-116.67-35.27a6.54,6.54,0,0,0-8.06,4l-31.62,85.5a10,10,0,0,1-5.5,5.74A9.86,9.86,0,0,1,542.09,1367.93Zm-241.51-257.2c39.83,79.16,111.16,175.07,235.87,233.63l6.62-17.92a10,10,0,0,1-5-.82C421.37,1273.81,347.34,1190.91,300.58,1110.73Zm408.53,197h0ZM589.26,1251.6a26.38,26.38,0,0,1,7.7,1.15l111.78,33.82,3.14-13.12a6.61,6.61,0,0,0-4.49-7.84l-116.24-35.16a6.55,6.55,0,0,0-8.06,4l-7.82,21.14A26.64,26.64,0,0,1,589.26,1251.6Zm132.34,24.18h0Z"/><path class="cls-5" d="M813.8,1420.28a805.28,805.28,0,0,1-114-7.82,10,10,0,0,1-8.3-12.21l9.56-40.18a10,10,0,0,1,11-7.59,787.74,787.74,0,0,0,101.67,6.35c27.43,0,54.15-1.28,79.41-3.81a10,10,0,0,1,10.72,7.64l9.63,40.42a10,10,0,0,1-8.6,12.26A814.7,814.7,0,0,1,813.8,1420.28Zm-100.25-26.15a795.21,795.21,0,0,0,100.25,6.15c26.77,0,52.84-1.22,77.66-3.63l-5-20.91c-23.32,2-47.73,3.09-72.69,3.09a816.17,816.17,0,0,1-95.32-5.41Z"/><path class="cls-5" d="M1065.43,1376.31a10.16,10.16,0,0,1-4.08-.86,10,10,0,0,1-5.3-5.67l-34.69-93.89a6.59,6.59,0,0,0-8.09-4L896.4,1307.27c-.24.14-.42.23-.61.32l-.17.1-.57.39a10.06,10.06,0,0,1-16.09-5.4l-5.87-24.58a26.71,26.71,0,0,1,18.14-31.63l116.25-35.16a26.6,26.6,0,0,1,32.64,16.21l31.11,84.19c224.6-94.11,290.39-306.57,308.34-394.58a10.07,10.07,0,0,1,3.55-6q3.63-2.91,7.25-5.92a10,10,0,0,1,16.36,8.43c-.26,3.46-6.82,85.87-51.55,184.51-41.36,91.23-124.57,213.42-286.07,277.41A9.94,9.94,0,0,1,1065.43,1376.31Zm-1-41.49,6.78,18.33c129.75-54.37,206.59-148.41,251.87-235.71-49.73,82.68-128.78,167.11-254,216.73A10,10,0,0,1,1064.45,1334.82Zm-168.51-27.38h0Zm0,0h0Zm.26-.1h0Zm119-77.17a6.72,6.72,0,0,0-1.92.29L897,1265.61a6.66,6.66,0,0,0-4.48,7.88l3.13,13.08,111.8-33.82a26.56,26.56,0,0,1,21.69,2.84l-7.81-21.14A6.58,6.58,0,0,0,1015.19,1230.16Z"/><g class="cls-10"><path class="cls-3" d="M1433.82,572.56c38.87,26.23,85.8,90.75,106.81,177,22,90.24,18.24,195.08-29.12,220.46s-22.89-42.51-49-191.35C1437,634,1342.64,511,1433.82,572.56Z"/></g><g class="cls-2"><path class="cls-3" d="M1368.29,686.29s-.23,78.35-30.89,156c-15.17,38.44-37.8,76.72-71.58,105.23a193.59,193.59,0,0,1-27.4,19.32,196.13,196.13,0,0,1-59.35,22.48c-2.3.47-4.6.91-6.87,1.25C1015,1017.64,937.49,843.73,937.49,843.73l10.83-4c35.72,49.6,104.87,117.2,208,98.38,1.58-.27,3.16-.57,4.77-.91a196.65,196.65,0,0,0,42.7-13.9,182.24,182.24,0,0,0,24.57-13.43c33-21.42,57-51.49,74.51-84,24.11-44.55,36-93.64,41.78-131Z"/></g><g class="cls-2"><path class="cls-3" d="M261.06,686.29s.23,78.35,30.88,156c15.17,38.44,37.8,76.72,71.58,105.23a193.69,193.69,0,0,0,27.41,19.32,196,196,0,0,0,59.34,22.48c2.3.47,4.6.91,6.87,1.25,157.24,27.09,234.71-146.82,234.71-146.82l-10.82-4C645.3,889.36,576.16,957,473,938.14c-1.58-.27-3.16-.57-4.77-.91a196.83,196.83,0,0,1-42.7-13.9A183.47,183.47,0,0,1,401,909.9c-33-21.42-57-51.49-74.51-84-24.11-44.55-35.95-93.64-41.78-131Z"/></g><path class="cls-9" d="M1355,674.23s-.22,73.68-29.93,146.68c-14.7,36.15-36.63,72.15-69.37,99A187.49,187.49,0,0,1,1229.13,938a193.38,193.38,0,0,1-57.51,21.13c-2.23.45-4.46.87-6.66,1.18-152.39,25.48-227.47-138.07-227.47-138.07L948,818.55c34.62,46.64,101.64,110.21,201.61,92.52,1.53-.26,3.06-.54,4.62-.86a194.75,194.75,0,0,0,41.38-13.07,179.6,179.6,0,0,0,23.82-12.63c31.94-20.15,55.25-48.42,72.21-79,23.37-41.89,34.84-88,40.48-123.18Z"/><g class="cls-2"><path class="cls-3" d="M1325.06,820.91c-14.7,36.15-36.63,72.15-69.37,99l-36.28-35.36c31.94-20.15,55.25-48.42,72.21-79Z"/></g><g class="cls-2"><path class="cls-3" d="M1229.13,938a193.38,193.38,0,0,1-57.51,21.13c-2.23.45-4.46.87-6.66,1.18l-15.37-49.28c1.53-.26,3.06-.54,4.62-.86a194.75,194.75,0,0,0,41.38-13.07Z"/></g><path class="cls-5" d="M1133.45,975.79c-137.74,0-206.76-146.58-207.5-148.21a12.71,12.71,0,0,1,7.31-17.29l10.48-3.71A12.71,12.71,0,0,1,958.2,811c37,49.83,100.59,105.33,193.52,86.75,119.44-23.88,156.41-146.47,167.82-217.42a12.74,12.74,0,0,1,8.31-10l22.9-8.11a12.72,12.72,0,0,1,17,12c0,2.62-.45,65-23.89,132.89-31.66,91.74-90.35,148.63-169.71,164.52h0A207.25,207.25,0,0,1,1133.45,975.79Zm38.17-16.6h0ZM996.54,885.67c36.34,38.89,93.67,76.83,172.59,61.05h0c127.71-25.57,161.25-164.82,170.05-233.81-17.57,78.15-63.34,185.94-182.46,209.76C1089.32,936.16,1035.81,914.77,996.54,885.67Z"/><path class="cls-5" d="M1332.1,682.33c-12.17,75.68-51.39,202.58-177.88,227.87C1051.68,930.72,983.14,865.91,948,818.56Z"/><path class="cls-5" d="M1116,926.81c-88.88,0-148.63-60.84-178.2-100.66a12.72,12.72,0,0,1,6-19.57l384.11-136.24a12.73,12.73,0,0,1,16.81,14c-12.46,77.46-53.44,211.43-188,238.32A207.29,207.29,0,0,1,1116,926.81Zm-147-102.18c38.06,45.65,98.31,90,182.79,73.1,108.15-21.62,148.69-124.18,163.86-196Z"/><path class="cls-5" d="M299,682.33C311.13,758,350.35,884.91,476.84,910.2c102.55,20.52,171.08-44.29,206.24-91.64Z"/><path class="cls-5" d="M515.09,926.81a207.29,207.29,0,0,1-40.74-4.14c-134.5-26.89-175.49-160.86-188-238.32a12.73,12.73,0,0,1,16.81-14L687.33,806.58a12.71,12.71,0,0,1,6,19.57C663.72,866,604,926.81,515.09,926.81ZM315.49,701.69c15.17,71.86,55.71,174.42,163.85,196,84.47,16.89,144.73-27.45,182.79-73.1Z"/><path class="cls-5" d="M879.58,966.43c-14.44,26.9-65.77-3.42-65.77-3.42s-51.32,30.32-65.8,3.45c20.6-26.81,65.8-52.35,65.8-52.35S859,939.61,879.58,966.43Z"/><path class="cls-5" d="M769.17,987.55A41.5,41.5,0,0,1,758,986.14a30,30,0,0,1-18.82-14.94,10,10,0,0,1,.87-10.83c21.59-28.11,66.9-53.88,68.81-55a10,10,0,0,1,9.84,0c1.92,1.09,47.2,26.83,68.78,54.93a10,10,0,0,1,.88,10.82,29.94,29.94,0,0,1-18.81,15c-19.38,5.41-44.8-6-55.77-11.69C804.85,979.09,786.25,987.55,769.17,987.55Zm-7.79-21.41a14,14,0,0,0,2,.73c13.46,3.75,37.85-8,45.34-12.47a10,10,0,0,1,10.16,0c11.2,6.59,33.4,15.78,45.33,12.45a12.85,12.85,0,0,0,2-.73c-16.22-17.55-41.76-33.92-52.42-40.39C803.16,932.2,777.6,948.58,761.38,966.14Z"/><g class="cls-2"><path class="cls-3" d="M887.73,1017.64c-5.93,12.4-18.36,14.79-31.37,13-11.13-1.47-22.64-5.93-30.89-9.72-7-3.25-11.67-6-11.67-6s-4.24,2.49-10.71,5.55c-8.07,3.76-19.67,8.39-30.93,10-13.35,2-26.23-.22-32.29-12.91-4.69-9.78-.35-21,8.13-32.07,6,11.1,18.27,12.43,30.6,10.2,8.9-1.62,17.86-5.13,24.49-8.16,6.44-3,10.71-5.48,10.71-5.48s4.72,2.77,11.67,5.9c6.79,3.06,15.68,6.44,24.48,7.87,12,2,23.82.48,29.62-10.36C888.08,996.57,892.42,1007.86,887.73,1017.64Z"/></g><path class="cls-9" d="M887.73,998.51c-5.93,12.41-18.36,14.8-31.37,13-11.13-1.46-22.64-5.93-30.89-9.72-7-3.25-11.67-6-11.67-6s-4.24,2.48-10.71,5.54c-8.07,3.77-19.67,8.39-30.93,10-13.35,2-26.23-.23-32.29-12.92-4.69-9.78-.35-21,8.13-32.07,6,11.1,18.27,12.44,30.6,10.2,8.9-1.62,17.86-5.13,24.49-8.16,6.44-3,10.71-5.48,10.71-5.48s4.72,2.77,11.67,5.9c6.79,3.06,15.68,6.44,24.48,7.87,12,2,23.82.48,29.62-10.36C888.08,977.44,892.42,988.73,887.73,998.51Z"/><g class="cls-2"><path class="cls-3" d="M803.09,968.48v32.9c-8.07,3.77-19.67,8.39-30.93,10l6.44-34.79C787.5,975,796.46,971.51,803.09,968.48Z"/></g><g class="cls-2"><path class="cls-3" d="M856.36,1011.55c-11.13-1.46-22.64-5.93-30.89-9.72V968.9c6.79,3.06,15.68,6.44,24.48,7.87Z"/></g><path class="cls-5" d="M863.53,1022.06c-19.12,0-40-9.69-49.72-14.78-11.95,6.29-41.06,19.6-62.74,13a32.34,32.34,0,0,1-20.21-17.43c-6-12.46-2.86-26.75,9.22-42.48a10,10,0,0,1,16.74,1.36,9.9,9.9,0,0,0,6.57,5.15c13.46,3.75,37.85-8,45.34-12.47a10,10,0,0,1,10.16,0c11.2,6.59,33.4,15.78,45.33,12.45a9.89,9.89,0,0,0,6.55-5.15,10,10,0,0,1,16.73-1.38c12.13,15.72,15.25,30,9.27,42.53h0a32.38,32.38,0,0,1-20.24,17.42A44.44,44.44,0,0,1,863.53,1022.06ZM749.79,982.55c-1.79,4.1-2.52,8.25-.89,11.66a12.21,12.21,0,0,0,8,6.92c15.17,4.63,43.21-8.81,51.85-13.89a10,10,0,0,1,10.15,0c8.63,5.08,36.65,18.53,51.83,13.89a12.15,12.15,0,0,0,8-6.92h0c1.65-3.43.91-7.59-.89-11.69a31.42,31.42,0,0,1-8.25,3.6c-19.38,5.41-44.8-6-55.77-11.69-11,5.71-36.4,17.1-55.78,11.71A31.81,31.81,0,0,1,749.79,982.55Z"/><path class="cls-9" d="M459.44,959.19c156.85,31.38,234.11-136.91,234.11-136.91l-10.47-3.72c-35.16,47.35-103.69,112.16-206.24,91.64C350.35,884.91,311.13,758,299,682.33l-22.89-8.11S276.77,922.62,459.44,959.19Z"/><g class="cls-2"><path class="cls-3" d="M307.36,820.91c14.7,36.15,36.63,72.15,69.37,99L413,884.51c-31.94-20.15-55.25-48.42-72.21-79Z"/></g><g class="cls-2"><path class="cls-3" d="M403.29,938a193.38,193.38,0,0,0,57.51,21.13c2.23.45,4.46.87,6.66,1.18l15.37-49.28c-1.53-.26-3.06-.54-4.62-.86a194.75,194.75,0,0,1-41.38-13.07Z"/></g><path class="cls-5" d="M497.61,975.79A206.32,206.32,0,0,1,457,971.66h0c-79.36-15.89-138-72.78-169.71-164.52-23.43-67.89-23.88-130.27-23.89-132.89a12.72,12.72,0,0,1,17-12l22.9,8.11a12.74,12.74,0,0,1,8.31,10c11.41,71,48.38,193.54,167.82,217.42,92.92,18.59,156.52-36.91,193.53-86.75a12.73,12.73,0,0,1,14.46-4.4l10.47,3.71a12.71,12.71,0,0,1,7.31,17.29C704.37,829.21,635.33,975.79,497.61,975.79Zm-35.67-29.07c78.92,15.78,136.27-22.17,172.61-61.08-39.28,29.12-92.79,50.53-160.2,37C355.23,898.85,309.46,791.06,291.9,712.91c8.79,69,42.33,208.24,170,233.81Z"/><g class="cls-10"><path class="cls-3" d="M185.92,555.73c-47.75,27.1-104.86,130.5-96.43,183.39,14,87.59,54,35.21,64.45-1.58S195.62,636,214.24,608.82C249.23,557.83,214.35,539.6,185.92,555.73Z"/></g><g class="cls-10"><path class="cls-3" d="M734.07,543.94c-26.25,7-62.16,51.15-50.88,83.54,10.76,30.91,53,17.48,56.67-.37s7.84-40,15.54-55.58C767.69,546.66,757,537.83,734.07,543.94Z"/></g><g class="cls-10"><path class="cls-3" d="M76.69,826.73c-29,36.75-26.07,97.18,4.18,111.74,30.65,14.74,44.68-2.51,47.54-21.31,3.08-20.21-1.8-52.55-1-70.57C129.07,808.68,91.9,807.45,76.69,826.73Z"/></g><path class="cls-3" d="M1955.8,2050.32s119.4,43.94,102.74,95.59c-17.86,55.38-66.08,110.89-66.08,110.89Z"/><path class="cls-3" d="M1992.46,2256.8l-6.37-35.87-25.85-145.48-4.45-25.12s119.39,43.93,102.74,95.58C2040.68,2201.3,1992.46,2256.8,1992.46,2256.8Z"/><g class="cls-4"><path class="cls-5" d="M1986.09,2220.93l-25.85-145.48c32.6,17.64,70.76,45.6,60.84,76.29C2013.12,2176.42,1999.14,2201.15,1986.09,2220.93Z"/></g><path class="cls-5" d="M1982,2294.73l-48-270.52,27.71,10.2c13.79,5.07,134.08,51.44,113,116.71-18.71,58-67.36,114.43-69.42,116.8Zm-4-216.4,24.44,137.61c14.11-20.13,31.17-47.94,40-75.23C2048.65,2121.31,2013.66,2095.84,1978,2078.33Z"/><path class="cls-3" d="M2050.21,1989.4h0a10.68,10.68,0,0,1-12.2-8.91l-47.37-304a10.68,10.68,0,0,1,8.91-12.2h0a112.07,112.07,0,0,1,128,93.49l16.15,103.68A112.07,112.07,0,0,1,2050.21,1989.4Z"/><path class="cls-5" d="M2048.54,1992.57A13.73,13.73,0,0,1,2035,1981l-47.37-304a13.74,13.74,0,0,1,11.45-15.68,115.12,115.12,0,0,1,131.47,96l16.15,103.68a115.24,115.24,0,0,1-96,131.47h0A14.11,14.11,0,0,1,2048.54,1992.57ZM2017,1665.93a111.27,111.27,0,0,0-17,1.32,7.64,7.64,0,0,0-6.37,8.72L2041,1980a7.56,7.56,0,0,0,3,5,7.66,7.66,0,0,0,5.68,1.38h0a109.15,109.15,0,0,0,90.94-124.51l-16.15-103.68A109.09,109.09,0,0,0,2017,1665.93Z"/><g class="cls-4"><path class="cls-5" d="M2136.12,1812.79l7.59,48.63a112.13,112.13,0,0,1-93.5,128,10.71,10.71,0,0,1-12.21-8.93l-12.62-80.83a10.71,10.71,0,0,0,10.58,4.77l7.21-1.14A112,112,0,0,0,2136.12,1812.79Z"/></g><path class="cls-5" d="M2048.51,2006.49a27.67,27.67,0,0,1-27.26-23.39l-47.36-304a27.63,27.63,0,0,1,23-31.56,129,129,0,0,1,147.36,107.63l16.15,103.68a129,129,0,0,1-107.63,147.35A27.31,27.31,0,0,1,2048.51,2006.49Zm-40.11-326.26,45.37,291.24A95.24,95.24,0,0,0,2126.94,1864l-16.15-103.68a95.12,95.12,0,0,0-102.39-80.11Z"/><path class="cls-3" d="M996,1820.59h0a10.68,10.68,0,0,1,12.2,8.91l47.37,304a10.68,10.68,0,0,1-8.91,12.2h0a112.07,112.07,0,0,1-128-93.48l-16.15-103.68A112.06,112.06,0,0,1,996,1820.59Z"/><path class="cls-5" d="M1029.31,2150.14a115.3,115.3,0,0,1-113.68-97.41L899.48,1949a115.1,115.1,0,0,1,96-131.46h0a13.72,13.72,0,0,1,15.67,11.45l47.37,304a13.72,13.72,0,0,1-11.45,15.68A115.71,115.71,0,0,1,1029.31,2150.14ZM996.44,1823.6a109,109,0,0,0-90.94,124.51l16.15,103.68a109.15,109.15,0,0,0,124.51,90.94,7.64,7.64,0,0,0,6.37-8.72l-47.37-304a7.64,7.64,0,0,0-8.72-6.37Z"/><g class="cls-4"><path class="cls-5" d="M1042.42,2049.19l13.13,84.35a10.7,10.7,0,0,1-8.93,12.21,112,112,0,0,1-128-93.48l-6.8-43.68a112.11,112.11,0,0,0,111,49.32l11.09-1.73A10.8,10.8,0,0,0,1042.42,2049.19Z"/></g><path class="cls-5" d="M1029.3,2164.05c-62.46,0-117.51-45.58-127.42-109.18l-16.15-103.68a129,129,0,0,1,107.63-147.36,27.64,27.64,0,0,1,31.57,23.06l47.36,304a27.63,27.63,0,0,1-23,31.57A129.94,129.94,0,0,1,1029.3,2164.05Zm-36.89-325.54A95.13,95.13,0,0,0,919.24,1946l16.16,103.68a95.27,95.27,0,0,0,102.39,80.1Z"/><circle class="cls-3" cx="1523.15" cy="1904.98" r="524.37"/><path class="cls-5" d="M1522.27,2432.44c-124.38,0-243.56-43.47-339.63-124.7-107.58-90.95-173.3-218.36-185.06-358.74s31.86-277,122.81-384.53,218.36-173.3,358.75-185.06,276.95,31.86,384.52,122.81S2037,1720.58,2048.73,1861s-31.86,276.94-122.81,384.52-218.36,173.31-358.75,185.07Q1544.64,2432.44,1522.27,2432.44Zm1.27-1048.8q-21.8,0-43.89,1.84c-138.77,11.62-264.7,76.59-354.6,182.92s-133,241.33-121.4,380.09,76.59,264.7,182.93,354.6,241.32,133,380.08,121.39c286.46-24,500-276.55,476-563C2019.9,1589.76,1791.46,1383.64,1523.54,1383.64Z"/><g class="cls-4"><path class="cls-5" d="M2034.63,1789.31a521.44,521.44,0,0,1,11.07,71.91c24.13,288.59-190.21,542.12-478.79,566.32s-542.12-190.21-566.31-478.79c-.7-8.3-1.21-16.62-1.49-24.83,56.53,251.41,291.19,429,555.23,406.87C1834.62,2307.29,2044.84,2067.48,2034.63,1789.31Z"/></g><path class="cls-5" d="M1522.25,2446.35c-127.66,0-250-44.62-348.59-128-110.42-93.36-177.87-224.12-189.94-368.21s32.7-284.25,126-394.67,224.12-177.88,368.21-189.94,284.25,32.69,394.67,126,177.87,224.12,189.94,368.2-32.7,284.26-126.05,394.67-224.12,177.88-368.21,190Q1545.22,2446.36,1522.25,2446.35Zm1.28-1048.79q-21.22,0-42.72,1.78c-135.07,11.32-257.64,74.55-345.14,178.05s-129.46,234.88-118.15,369.94,74.54,257.63,178,345.14,234.88,129.45,369.94,118.15c278.81-23.35,486.64-269.18,463.29-548C2006.64,1598.17,1784.3,1397.56,1523.53,1397.56Z"/><path class="cls-5" d="M2045.14,1874.78c10.11,102.11-13.65,200.19-62.58,284.24-36.68,63-201.2,183.22-416.74,206.51-199.85,21.6-392.41-67-440.73-121.63-64.45-72.83-107-164.35-117.09-266.46-26.75-270.22,194.32-405.22,480.74-433.57S2018.4,1604.56,2045.14,1874.78Z"/><path class="cls-5" d="M1502.3,2385.87c-182.61,0-344.15-79-389.91-130.73-69.2-78.19-111.13-173.64-121.27-276-13.23-133.74,30.21-242.19,129.14-322.33,86-69.66,212.83-114.54,366.81-129.78s287.15,3.9,385.13,55.35c112.72,59.19,176.58,157,189.82,290.76,10.14,102.39-12.27,204.21-64.8,294.45-36.48,62.66-199.94,190-429.58,214.83A606.74,606.74,0,0,1,1502.3,2385.87Zm84.82-830.06q-46.61,0-96.71,4.94c-150.85,14.93-498.18,85.26-465.54,415,9.43,95.24,48.48,184.08,112.92,256.89,45.69,51.62,232.36,137,426.21,116,214.93-23.22,371.48-142.47,403.91-198.18,48.91-84,69.79-178.79,60.36-274h0c-12-121.67-69.86-210.52-171.84-264.07C1785.19,1575,1693.3,1555.81,1587.12,1555.81Z"/><g class="cls-11"><ellipse class="cls-3" cx="1872.97" cy="1854.75" rx="92.8" ry="67.24" transform="matrix(0.08, -1, 1, 0.08, -126.55, 3572.33)"/></g><g class="cls-11"><ellipse class="cls-3" cx="1809.11" cy="2045.79" rx="42.59" ry="36.55" transform="translate(-581.15 3366.71) rotate(-77.44)"/></g><g class="cls-10"><path class="cls-12" d="M1919.33,1632.68c69.38,54.21,115.05,133.56,125.81,242.09,10.11,102.13-13.68,200.2-62.56,284.25-36.69,63-201.23,183.22-416.77,206.53-76.1,8.25-151.12.48-217.57-15.33,264.34-34.31,464.66-181.68,510.14-259.84,62.1-106.67,92.25-231.17,79.41-360.74A531.21,531.21,0,0,0,1919.33,1632.68Z"/></g><path class="cls-5" d="M1024.26,1750.9a12.58,12.58,0,0,1-10.76-19.11c78.1-143.27,247.82-237.8,465.72-259.37,216.54-21.43,401.31,35.54,507,156.31a12.49,12.49,0,0,1-16.22,18.8l-1.29-.89-1.12-1.24c-100.29-114.76-277.39-168.74-485.92-148.1C1272,1518.06,1109.29,1608,1035.29,1744.05l-.68,1.11A12.13,12.13,0,0,1,1024.26,1750.9Z"/><g class="cls-11"><path class="cls-3" d="M1140.37,2126.66s-110.08-258.28,23.07-378.73,339.89-140.48,336.36-126.75c0,0-223.33,78-295,267.81C1149.61,2035.32,1140.37,2126.66,1140.37,2126.66Z"/></g><path class="cls-3" d="M1733.21,2407.74c61.16,43.86,151.59,12.45,219.19-58.07s88.86-160.05,51.49-204.42c-51.87-61.57-151.21-125.48-269.76,9.49C1641.43,2260.29,1662.38,2357,1733.21,2407.74Z"/><g class="cls-4"><path class="cls-5" d="M1952.41,2349.66c-67.62,70.55-158.05,101.92-219.19,58.08-46-33-71-85.3-57.4-146.86,10.34,24.38,27.89,45.28,50.49,61.48,61.18,43.84,151.61,12.42,219.19-58.08,33.24-34.73,55.32-74,64.65-110.28C2038.47,2200.64,2015.79,2283.52,1952.41,2349.66Z"/></g><path class="cls-5" d="M1798.74,2445.06c-27.52,0-53.3-7.69-75.42-23.54h0c-38.32-27.49-62.18-66.58-67.16-110.08-6.2-54.18,16.35-112.23,65.23-167.89,50.34-57.32,102.53-86.14,155.71-85.56,62.91.65,110.72,41.87,139.76,76.34,44.12,52.37,21.67,150-52.21,227.07C1912.32,2416,1852.25,2445.06,1798.74,2445.06ZM1743.09,2394c50,35.88,131.07,12.84,197.07-56,59.83-62.41,82.6-143.95,50.76-181.75-24.46-29-64.12-63.76-114.17-64.27-42.82-.35-86.35,24.47-129.88,74-42.38,48.26-62.09,97.24-57,141.64,3.93,34.36,22.34,64.22,53.23,86.37Z"/><g class="cls-2"><path class="cls-3" d="M1095.24,126.23c11.72,21.71,13.26,81,0,79.27-8.15-1.06-4-21-6.2-50.66C1086.46,120.71,1083.53,104.52,1095.24,126.23Z"/></g><path class="cls-5" d="M364.43,2854.93a131.08,131.08,0,0,1,14.23-3.18c4.61-.77,9.21-1.38,13.83-1.79a220.37,220.37,0,0,1,27.66-.84c18.44.39,36.75,3.49,54.58,7.88,9,1.92,17.66,5.15,26.35,7.9,4.29,1.62,8.54,3.36,12.75,5.13a131.57,131.57,0,0,1,12.44,5.71c16.46,7.78,31.51,18.29,45.19,29.72a2.45,2.45,0,0,1-2.36,4.2l-.15-.06c-16.73-5.71-32.78-11.52-49.52-14.85-8.12-2.29-16.66-3.09-24.81-4.82-8.37-1-16.62-2.2-25-2.77a489.88,489.88,0,0,0-49.76-1.25c-4.13.18-8.25.27-12.37.33-4.11.28-8.24.36-12.34.55l-24,1.36-1.25.07a17,17,0,0,1-5.55-33.29Z"/></g></g></svg>