<svg xmlns="http://www.w3.org/2000/svg" viewBox="0 0 2612.98 3375.62"><defs><style>.cls-1,.cls-3{fill:#371a45;}.cls-1{opacity:0.2;}.cls-2{fill:#fff;}.cls-4{opacity:0.25;}.cls-5{fill:#dbac54;}.cls-6{fill:#dd8e37;}.cls-7{fill:#db8216;}.cls-8{fill:#c65d17;}.cls-9{opacity:0.35;}.cls-10{fill:#cd8322;}.cls-11{opacity:0.5;}.cls-12{fill:#22a7f0;}.cls-13{opacity:0.7;}.cls-14{fill:#111a28;}.cls-15{fill:#fcef03;}.cls-16{fill:#fc0;}</style></defs><g id="Layer_2" data-name="Layer 2"><g id="Layer_1-2" data-name="Layer 1"><ellipse class="cls-1" cx="1154.23" cy="3210.95" rx="801.28" ry="164.66"/><path class="cls-2" d="M1790.18,800.12S1683,740.51,1702.9,686.33c33.5-91.05,165.28,13.31,165.28,13.31"/><path class="cls-3" d="M1790.16,819a18.77,18.77,0,0,1-9.13-2.38c-12.42-6.9-120.59-69.39-95.81-136.75,11.35-30.85,32-42.46,47.29-46.77,58.75-16.53,138.47,44.77,147.36,51.82a18.84,18.84,0,0,1-23.39,29.53c-18.67-14.75-79.7-54.69-113.79-45.08-6.45,1.82-15.76,6.24-22.11,23.51-10.86,29.5,48.37,73.92,78.75,90.81a18.84,18.84,0,0,1-9.17,35.31Z"/><path class="cls-2" d="M1562.4,1868s463.22-153.47,500.25-749.48l-655.79,264.19Z"/><g class="cls-4"><path class="cls-3" d="M2062.63,1118.47c-37,596-500.22,749.51-500.22,749.51l-77-240.43,7.56,45.69L1562.41,1774s232.34-83.89,222.61-134c-2.91-15-150.17-19.78-211.78,12.13S1467,1476.3,1467,1476.3h454.35c59.19-90.83,108.59-206.86,130.86-353.64Z"/></g><g class="cls-4"><polygon class="cls-3" points="1515.51 1627.55 1485.37 1627.55 1436.87 1476.3 1406.87 1382.69 1433.57 1371.95 1467.01 1476.3 1515.51 1627.55"/></g><g class="cls-4"><polygon class="cls-3" points="1515.51 1627.55 1485.37 1627.55 1436.87 1476.3 1467.01 1476.3 1515.51 1627.55"/></g><path class="cls-3" d="M1562.4,1886.8a18.85,18.85,0,0,1-17.93-13.09l-155.55-485.29a18.84,18.84,0,0,1,10.9-23.22L2055.61,1101a18.84,18.84,0,0,1,25.84,18.64c-19.51,314-157.56,505.5-269.93,610.82-122,114.38-238.3,153.75-243.19,155.37A18.83,18.83,0,0,1,1562.4,1886.8Zm-132.26-493.2,144.09,449.55c36.47-15.35,123.85-57.61,212.83-141.39,103.24-97.2,229.3-271.4,254.52-554.49Z"/><polygon class="cls-5" points="2594.16 833.54 2486.61 881.95 2594.16 930.4 2594.16 1285.83 2442.87 1334.05 2594.16 1358.25 2594.16 1555.03 18.85 1555.03 18.85 1433.17 148.2 1394.08 18.85 1362.3 18.85 1212.98 179.89 1155.48 18.85 1105.34 18.85 961.81 260.6 971.09 18.85 871.21 18.85 732.63 2594.16 732.63 2594.16 833.54"/><path class="cls-6" d="M2594.16,1285.83l-151.29,48.22,151.29,24.2V1555H1941.37V967.18l562-36.78c24.1,145.22,90.78,28,90.78,28Z"/><polygon class="cls-7" points="2503.36 833.55 2379.19 881.96 2503.36 930.42 2503.36 1285.84 2328.66 1334.06 2503.36 1358.26 2503.36 1555.04 18.83 1555.04 18.83 1433.18 152.19 1394.05 18.83 1362.31 18.83 1212.95 157.6 1155.5 18.83 1105.3 18.83 961.82 241.94 971.1 18.83 871.23 18.83 732.6 2503.36 732.6 2503.36 833.55"/><path class="cls-8" d="M1915.41,919C1795,911.39,1767.89,791.36,1759.5,732.6h431.05a472.42,472.42,0,0,0,7.39,52.92C2213.77,867,2095.76,930.42,1915.41,919Z"/><g class="cls-9"><polygon class="cls-2" points="2503.35 732.62 2503.35 833.53 2502.93 833.72 2502.93 810.08 18.82 810.08 18.82 732.62 2503.35 732.62"/></g><path class="cls-8" d="M2425.61,900.07l77.74,30.32v355.43l-84.29,45.56s-161,20.31-161.36-36.79c-.32-51.87,167.91-43.76,167.91-288.59Z"/><path class="cls-8" d="M2503.36,1358.26V1555H18.83V1433.79H485.48a620.57,620.57,0,0,1-54.67-222.68C411.5,867.65,768.43,573.53,1111.94,554.23s698.75,243.49,718.05,587a620.26,620.26,0,0,1-54.66,292.61h564a86.32,86.32,0,0,0,86.27-86.27Z"/><polygon class="cls-10" points="2425.61 863.86 2425.61 900.07 2379.18 881.99 2425.61 863.86"/><polygon class="cls-10" points="2328.65 1334.04 2425.61 1307.29 2425.61 1347.5 2328.65 1334.04"/><g class="cls-11"><path class="cls-3" d="M345.91,1069l63-2,63-1.51c42-.93,84.06-2.19,126.09-2.85,84-1.64,168.11-2.69,252.16-3.73,84-.66,168.11-1.62,252.16-1.75l126.08-.44,126.09,0,126.08.05,126.08.5q126.07.33,252.16,1.54,252.16,2.1,504.33,7.27a9.42,9.42,0,0,1,0,18.84q-252.16,5.36-504.33,7.27-126.08,1-252.16,1.54l-126.08.5-126.08.05-126.09,0L1102.4,1094c-84.05-.14-168.11-1.09-252.16-1.75-84-1-168.11-2.1-252.16-3.73-42-.66-84.06-1.92-126.09-2.85l-63-1.52-63-2a6.59,6.59,0,0,1,0-13.18Z"/></g><g class="cls-11"><path class="cls-3" d="M422.4,1329.45c141.07-5.55,282.15-8,423.23-10,70.54-.67,141.08-1.62,211.62-1.76l105.8-.44,105.81,0,105.81.06,105.81.5c70.54.22,141.08.86,211.62,1.54q211.62,2.1,423.23,7.27a9.42,9.42,0,0,1,0,18.83q-211.62,5.37-423.23,7.28c-70.54.67-141.08,1.31-211.62,1.54l-105.81.5-105.81,0-105.81.05-105.8-.44c-70.54-.14-141.08-1.09-211.62-1.76-141.08-2-282.16-4.49-423.23-10a6.6,6.6,0,0,1,0-13.19Z"/></g><g class="cls-11"><path class="cls-3" d="M354.78,872.57c38.91-1.09,77.83-1.89,116.75-2.6s77.83-1.69,116.75-2.08L821.78,865c77.84-.5,155.67-1.21,233.51-1.31L1172,863.4l116.75.2,233.5.4,116.76.31,116.75.86c77.83.68,155.66,1,233.5,2s155.67,1.78,233.5,3.34a7.06,7.06,0,0,1,0,14.12c-77.83,1.55-155.67,2.26-233.5,3.34s-155.67,1.27-233.5,1.94l-116.75.87-116.76.31-233.5.39-116.75.2-116.75-.32c-77.84-.1-155.67-.82-233.51-1.31l-233.5-2.85c-38.92-.39-77.83-1.41-116.75-2.09s-77.84-1.51-116.75-2.6a4.95,4.95,0,0,1,0-9.89Z"/></g><path class="cls-3" d="M2594.14,1573.88H18.84A18.84,18.84,0,0,1,0,1555V1433.17a18.84,18.84,0,0,1,13.39-18L76.86,1396,14.34,1380.6A18.84,18.84,0,0,1,0,1362.31V1213a18.84,18.84,0,0,1,12.5-17.74l108-38.52L13.23,1123.3a18.83,18.83,0,0,1-13.23-18V961.8A18.84,18.84,0,0,1,19.56,943l136.36,5.24L11.64,888.61A18.84,18.84,0,0,1,0,871.2V732.62a18.83,18.83,0,0,1,18.84-18.83h2575.3A18.84,18.84,0,0,1,2613,732.62V833.53a18.84,18.84,0,0,1-11.1,17.17L2532.48,882l69.4,31.26a18.86,18.86,0,0,1,11.1,17.18v355.43a18.82,18.82,0,0,1-13.12,17.94L2524,1328l73.13,11.71a18.85,18.85,0,0,1,15.86,18.6V1555A18.85,18.85,0,0,1,2594.14,1573.88ZM37.67,1536.21H2575.31V1374.33l-135.42-21.68a18.83,18.83,0,0,1-2.75-36.54l138.17-44V942.58l-96.43-43.44a18.83,18.83,0,0,1,0-34.34l96.43-43.44v-69.9H37.67V858.61l230.14,95.08a18.84,18.84,0,0,1-7.92,36.23L37.67,981.37v110.09l147.83,46a18.84,18.84,0,0,1,.73,35.73l-148.56,53v121.3l115,28.24a18.83,18.83,0,0,1,1,36.32l-116,35.05Z"/><path class="cls-3" d="M2503.36,1573.88H519.89a18.84,18.84,0,0,1,0-37.67H2484.53V1374.33l-135.42-21.68a18.83,18.83,0,0,1-2.75-36.54l138.17-44V942.58l-96.43-43.44a18.83,18.83,0,0,1,0-34.34l96.43-43.44v-69.9H519.89a18.84,18.84,0,0,1,0-37.67H2503.36a18.84,18.84,0,0,1,18.84,18.83V833.53a18.84,18.84,0,0,1-11.1,17.17L2441.7,882l69.4,31.26a18.86,18.86,0,0,1,11.1,17.18v355.43a18.82,18.82,0,0,1-13.12,17.94L2433.21,1328l73.13,11.71a18.84,18.84,0,0,1,15.86,18.6V1555A18.85,18.85,0,0,1,2503.36,1573.88Z"/><path class="cls-2" d="M1802.06,649.85c-26.79,44-2.16,180,64.08,206.24,56.56,22.44,256.54-8.67,286.2-39.09,33.43-34.28,25.6-114.11.81-132.55S1870.45,537.6,1802.06,649.85Z"/><path class="cls-2" d="M1802.06,649.85c-26.79,44-2.16,180,64.08,206.24,56.56,22.44,256.54-8.67,286.2-39.09,33.43-34.28,25.6-114.11.81-132.55S1870.45,537.6,1802.06,649.85Z"/><g class="cls-4"><path class="cls-3" d="M2152.33,817c-29.66,30.42-229.65,61.54-286.2,39.08-63-25-88.34-149.13-67.67-199.09,7.07,46.43,29.43,95.31,66.49,113.53,88.53,43.51,266.43,27.13,292.94-31.08a184.8,184.8,0,0,0,10.55-30.56C2179.27,740.77,2177.19,791.49,2152.33,817Z"/></g><path class="cls-3" d="M1927.59,882.27c-28.76,0-53.24-2.65-68.4-8.67-31.46-12.48-57.42-45.16-73.1-92-14.75-44.05-21.07-107.14-.11-141.54,16.46-27,42.8-44.23,78.29-51.13,110.29-21.43,278.18,64.1,300.12,80.42,15.47,11.5,26.16,36.68,28.6,67.34,3,38-7.14,72.94-27.16,93.47C2138.18,858.51,2013.7,882.27,1927.59,882.27ZM1903,623.1a165.84,165.84,0,0,0-31.56,2.8c-25,4.86-42.44,15.9-53.31,33.75h0c-10.29,16.89-11.82,63.74,3.66,110,11.92,35.63,30.61,60.76,51.27,69,53.62,21.26,244.45-12.86,265.78-34.74,12.17-12.48,18.68-37.68,16.57-64.18-1.84-23.27-9.27-36.95-13.52-40.11C2125.4,687.28,1997.75,623.1,1903,623.1Zm-101,26.75h0Z"/><path class="cls-2" d="M930.63,1580.62l-6.16,699.66-2.54,289s-316.64,35.9-417.27-82C467.44,2443.5,441.47,2313,430.53,2169c-13.24-175.43-4.24-371,33.78-453.83C525.36,1582.12,820,1571.84,930.63,1580.62Z"/><g class="cls-4"><path class="cls-3" d="M924.47,2280.28l-2.54,289s-316.64,35.9-417.27-82C467.44,2443.5,441.47,2313,430.53,2169l194.79-46.17s68.7-2.75,85.12,215.2c4.63,61,99,79,165.65,26.25C900.23,2345.1,915.2,2315.25,924.47,2280.28Z"/></g><path class="cls-3" d="M814.75,2593.36c-105,0-257-14.89-324.39-93.93-48.73-57.11-74.11-232.22-81.62-377-7.47-143.86-1.27-328.45,38.48-415.1C514,1561.74,819.87,1552.94,932.1,1561.83a18.83,18.83,0,1,1-3,37.55C806,1589.63,534.66,1607,481.46,1723c-30.41,66.28-44.19,222.28-35.1,397.44,8.89,171.55,38.09,314,72.66,354.55,93,108.95,397.75,75.9,400.81,75.55a18.84,18.84,0,0,1,4.24,37.44C919.23,2588.52,874.64,2593.36,814.75,2593.36Z"/><path class="cls-2" d="M447,2137.78l167.89,3.85a32.89,32.89,0,0,1,31.3,25.32c12.57,53.44,35.2,178.37-15.12,222.64-41.76,36.75-112.69,36.39-156,3.47-48.39-36.82-59.35-159.94-61.78-221A32.93,32.93,0,0,1,447,2137.78Z"/><g class="cls-4"><path class="cls-3" d="M646.15,2167c12.59,53.43,35.2,178.37-15.12,222.62-41.77,36.76-112.68,36.4-156,3.47-29.75-22.66-45.35-78-53.51-131.37,8.93,26.43,21.89,47.6,37.35,61.13,88.55,77.5,146.44-22.33,146.44-22.33s12.14,22.87,20.92,23.75c36.68,3.65,23.21-109.87,14.89-168.46A31.91,31.91,0,0,1,646.15,2167Z"/></g><path class="cls-3" d="M551.43,2436.34c-31.34,0-62.88-9.37-87.75-28.29-51-38.8-65.78-149.37-69.2-235.29A51.75,51.75,0,0,1,447.4,2119h0l167.89,3.85a51.72,51.72,0,0,1,49.2,39.83c16.21,68.88,35,191.8-21,241.1C618.86,2425.4,585.27,2436.34,551.43,2436.34ZM446.2,2156.61a14.08,14.08,0,0,0-14.08,14.65c4.25,106.83,24.57,184.15,54.37,206.81,37.54,28.56,98,27.36,132.11-2.62,35-30.77,27.7-125.66,9.22-204.19a14.06,14.06,0,0,0-13.4-10.8l-167.88-3.85h-.34Z"/><path class="cls-3" d="M603.94,2202.8c.6,19.27,3.11,39.65,4.18,60.21s1.38,41.7-1.59,63.19-9.32,43.66-22.85,63.33a109.25,109.25,0,0,1-24.86,25.75A126.28,126.28,0,0,1,527.47,2432a18.85,18.85,0,1,1-13.16-35.32c.44-.17.88-.31,1.32-.44l.07,0c16.42-4.73,30.74-13.3,41.21-26.44s17.32-30.2,21.23-48.54,5.28-38,5.61-57.76-.62-39.87.24-61.07a10,10,0,0,1,19.94.06Z"/><path class="cls-3" d="M558.82,1687.22c23-1.44,45.92-2.36,68.92-3s46-.87,69.07-.6,46.21,1,69.49,2.78,46.63,4.15,70.78,10a18.85,18.85,0,0,1-8.85,36.65c-.48-.11-1-.25-1.42-.4l-.11,0c-19.92-6.54-42-10.62-64.07-14.1s-44.6-6-67.17-8-45.26-3.59-68-4.73-45.53-2-68.2-2.37h-.08a8.12,8.12,0,0,1-.38-16.22Z"/><path class="cls-2" d="M1771.64,1712v-.89C1772.11,1711.12,1772.11,1711.4,1771.64,1712Z"/><path class="cls-2" d="M1771.64,1712v-.89C1772.11,1711.12,1772.11,1711.4,1771.64,1712Z"/><path class="cls-2" d="M1771.64,1711.07c.47,0,.47.33,0,.89Z"/><path class="cls-2" d="M1630.37,2239.82s-53.62,379.92-108.23,727.53c0,0,148.1,40.28,149.12,129.75,1.29,112.71-121.48,119.91-271.87,120-107.56.06-183.59-24.43-228.48-52.66-97.81-61.51,85.68-171.45-74-965.5"/><g class="cls-4"><path class="cls-3" d="M1666.71,3132.48c-23.3,78.91-134.52,84.54-267.31,84.63-107.56,0-183.62-24.43-228.49-52.66-97.81-61.51,85.66-171.47-74-965.54l533.42,40.93s-13.6,96.22-34.09,236.19a549.67,549.67,0,0,1-75.85,59.14c-115.08,74.61-195.74,191.9-222.2,326.47-25.07,127.56-42.88,237.18,17,274.87,44.87,28.23,112.77,38.26,211.28,35.82C1581.75,3171,1628.88,3156.11,1666.71,3132.48Z"/></g><path class="cls-3" d="M1399,3235.93c-130.31,0-205.1-34.8-238.1-55.55-48.07-30.23-42.38-72.13-32-148.19,16.42-120.74,47-345.48-50.35-829.54a18.84,18.84,0,1,1,36.93-7.43c98.57,490.28,67.46,719.11,50.75,842-10.33,76-11.76,94.55,14.76,111.23,29.57,18.59,97.21,49.77,218,49.77h.4c100.51-.06,193.93-3.34,232.51-42.39,14.11-14.27,20.82-33.43,20.54-58.56-.71-61.53-97.87-101.56-135.25-111.79a18.85,18.85,0,0,1-13.64-21.1c54-343.47,107.65-723.43,108.19-727.23a18.83,18.83,0,0,1,37.3,5.26c-.53,3.75-52.62,372.35-105.77,711.81,41.2,14.2,145.87,58.51,146.83,142.62.41,35.21-10.16,64-31.4,85.47-48.86,49.44-146.33,53.51-259.29,53.58Z"/><g class="cls-9"><path class="cls-3" d="M1193.71,2514.4q-1.15-22.65-2.92-46.85C1191.93,2483.7,1192.94,2499.3,1193.71,2514.4Z"/></g><g class="cls-9"><path class="cls-3" d="M1189.79,2454.41c-.68-8.81-1.41-17.79-2.24-26.92C1188.33,2436.62,1189.11,2445.6,1189.79,2454.41Z"/></g><g class="cls-9"><path class="cls-3" d="M1183.45,2385.29c-.87-8.39-1.83-17-2.83-25.64C1181.62,2368.32,1182.54,2376.9,1183.45,2385.29Z"/></g><g class="cls-9"><path class="cls-3" d="M1116.69,2319.71c-.93-10.24-2-20.57-3-31.14Q1115.28,2304.42,1116.69,2319.71Z"/></g><path class="cls-2" d="M1622,2325.65c-29.12,234.45-541.57,340.79-763.87,173.82a264.73,264.73,0,0,1-50.31-49.23,233.88,233.88,0,0,1-34.47-61.57,255.75,255.75,0,0,1-14.91-63c-20.49-186-20.16-397.85,3.29-628.27q4.35-43.11,9.79-87.07c1.13-9,2.26-17.91,3.43-26.92q2-15.12,4.12-30.38,10.83-78.29,25.14-159c8.2-46.09,6.23-47,9.23-93.82,3.1-46.1,176.12-48.21,349.47-20.73,127.59,27,314.3,51.11,350.78,155.16a149,149,0,0,0,3.84,21.52c4.41,18,11.44,37.14,16.84,52,12.42,34,30.24,99.59,47.26,183.62a2634.63,2634.63,0,0,1,42.3,293C1633.66,2098.14,1635.44,2217.1,1622,2325.65Z"/><path class="cls-2" d="M1622,2325.68c-29.14,234.45-541.56,340.78-763.86,173.8a265.06,265.06,0,0,1-50.34-49.2,233.57,233.57,0,0,1-34.47-61.6,254.13,254.13,0,0,1-14.88-63c-.8-7.2-1.55-14.36-2.26-21.61q-6.36-62.52-9.47-128.79c-7.06-147.15-2.35-307.44,15-477.9.33-3,.61-6,.94-9.09v0c2.68-25.75,5.6-51.65,8.85-77.93q1.69-13.41,3.44-26.88c.28-2.17.57-4.34.9-6.5,1.08-7.91,2.11-15.87,3.25-23.88q10.8-78.33,25.09-159.06c8.24-46.1,6.27-47,9.28-93.85,3.06-46.1,176.11-48.17,349.44-20.72,127.61,27,314.32,51.14,350.76,155.16a149.58,149.58,0,0,0,3.86,21.52c4.43,18,11.45,37.15,16.86,52,5.94,16.2,13.09,39.65,20.82,68.85,5.79,22,11.91,47.23,18.08,75.2q4.17,19,8.33,39.55a2637.41,2637.41,0,0,1,42.34,293C1633.65,2098.15,1635.39,2217.14,1622,2325.68Z"/><g class="cls-4"><path class="cls-3" d="M869.69,2347.67a788.21,788.21,0,0,1-98.65-5.18q-6.21-61.66-9.32-126.9a510.36,510.36,0,0,0,52.17,5c6.83,33.62,17.42,65.4,33.39,92.53Q858,2331.34,869.69,2347.67Z"/></g><path class="cls-3" d="M1602.42,1750.63c12.22,34.57,20,70.13,25.81,106,1.44,9,2.66,18,3.91,26.94l3.27,27q3.16,27,5.74,54.18c6.89,72.32,10.48,145.07,9.62,218q-.88,54.7-5.54,109.46l-2.9,27.33c-.49,4.56-.88,9-1.82,14.13a136.93,136.93,0,0,1-2.87,14.79,202.43,202.43,0,0,1-22.26,55.3c-19.93,34.28-47.89,62-78.29,84.64-30.45,22.82-63.71,40.67-97.9,55.56-68.65,29.35-141.49,46.23-215.08,53.57-73.59,7-148.56,4.56-221.64-12.15a532,532,0,0,1-54.14-15.58A454.43,454.43,0,0,1,896,2547.57c-33.77-17.52-66-39.89-92.1-69.12a269.64,269.64,0,0,1-34.37-47.57A258.21,258.21,0,0,1,747,2376.67c-1.25-4.73-2.83-9.38-3.77-14.16l-3-14.31c-1.44-9.47-3-19.53-3.75-28.32-1.67-18.1-3.82-36.18-5.1-54.31-11.9-145-11.17-290.52-2-435.23,9.58-144.73,27.66-288.72,52.64-431.4,3-17.89,6.31-35,7.63-51.57.69-8.3,1-17.24,1.54-26.31l.78-13.66.44-6.86.11-1.71c.12-1.07.31-2.38.51-3.55a34.78,34.78,0,0,1,1.75-7c3.31-9.44,9.27-15.22,14.66-19.91a77.48,77.48,0,0,1,16-9.56,151.25,151.25,0,0,1,29.92-9.52c19.34-4.11,38.13-6,56.8-7.19,37.29-2.12,74-1.15,110.6,1.11s72.88,6.19,109,11.17c9,1.3,18,2.55,27.36,4.05l7,1.09,6.83,1.42,13.37,2.77,53,10.68c35.48,7.24,71.19,14.94,106.71,25s71,22.31,104.73,41.2c16.78,9.51,33,21,47.45,35.38a141,141,0,0,1,33.5,52.33,18.15,18.15,0,0,1,1,4.28v.22c1,10.4,3.89,22.06,7.35,33.59s7.65,23.27,12,35.23a18.83,18.83,0,0,1-35.37,13c-4.45-12-9-24.32-12.92-37.11s-7.5-26-9.11-41l1,4.5a102.64,102.64,0,0,0-24.76-37.67c-11.21-11-24.63-20.52-39.25-28.64-29.39-16.17-62.52-27.63-96.31-37.1s-68.74-16.82-103.9-23.83l-53.06-10.47-13.11-2.66-6.4-1.31-6.39-1-26.13-3.75c-35.27-4.7-70.68-8.29-106.08-10.42s-70.82-2.79-105.51-.65c-17.28,1.12-34.43,3-50.34,6.51a111.32,111.32,0,0,0-21.51,6.81,37.38,37.38,0,0,0-7.18,4.15c-1.26,1.23-2,2.06-1.44,1.35-.14-.11.25-.28.17-.48s0-.27-.09-.23l-.1,1.66-.39,6.63-.7,13.34c-.45,8.92-.78,18-1.58,27.65-1.58,19.44-5.15,37.73-8.09,55.36-24.66,141.34-42.48,283.85-51.86,426.85-9,143-9.64,286.54,2.12,429,1.27,17.82,3.39,35.55,5,53.33.77,9.18,2.11,16.93,3.33,25.26l2.57,12.15c.77,4.07,2.16,8,3.19,11.95a223.45,223.45,0,0,0,18.8,45.4,227.87,227.87,0,0,0,28.7,40c21.89,24.77,49.77,44.38,79.78,60.1a416.79,416.79,0,0,0,47.07,20.18,495.37,495.37,0,0,0,49.66,14.47c67.55,15.72,138.55,18.47,208.32,12,69.77-6.68,139.07-22.59,203.16-49.77,31.89-13.76,62.6-30.19,90-50.56,27.39-20.18,51.55-44.42,68-72.58a163.39,163.39,0,0,0,18.14-44.52c3.62-14.75,4.75-33.38,6.89-50.8q4.71-53,5.73-106.45c1.08-71.22-2.18-142.68-8.72-213.88-3.23-35.62-7.48-71.14-11.81-106.67-4-35.58-7.36-71.25-7.68-107.67v0a9.55,9.55,0,0,1,18.55-3.26Z"/><path class="cls-3" d="M1356.2,2811.21c-103.64,0-189.92-22.22-195.77-23.77A18.83,18.83,0,0,1,1170,2751c2.23.58,225.15,57.85,376.91-13.84a18.83,18.83,0,0,1,16.09,34.06C1498.29,2801.82,1423.57,2811.21,1356.2,2811.21Z"/><path class="cls-3" d="M1518.83,2985.89c-6.36-1.45-13.84-2.78-20.9-3.84s-14.39-2-21.62-2.72a379.3,379.3,0,0,0-43.52-1.87,275.44,275.44,0,0,0-42.93,4.24,168.78,168.78,0,0,0-40.2,13.21l-.37.18a9.42,9.42,0,0,1-9.12-16.45,189.88,189.88,0,0,1,44-19.78,301.79,301.79,0,0,1,46.58-9.58,408.07,408.07,0,0,1,47.09-2.88q11.79-.09,23.59.5c8,.38,15.51.88,24.06,1.91a18.86,18.86,0,1,1-4.47,37.46c-.66-.08-1.31-.19-1.94-.33Z"/><path class="cls-2" d="M782.18,3248.16c258,9.63,397.56,1.25,409.05-174.27,16.55-252.47,37-546.6,37-546.6L859.84,2240.72l-97.06-75.48q-.56,31.86-.86,63.05c-5.07,437.31,17.46,773.43,17.46,773.43s-140.76,37.76-150.16,137.5C622.21,3213.49,691.41,3244.76,782.18,3248.16Z"/><g class="cls-4"><path class="cls-3" d="M1230.53,2518.7s-22.75,302.73-39.32,555.17c-11.49,175.54-151.06,183.93-409,174.27C695.09,3244.89,627.8,3216,628.79,3148c23.82,8.28,52.36,12.71,83.48,13.89,258,9.6,397.57,1.22,409.06-174.28,13.33-203.94,11.79-386.72,40.6-432.15C1176.48,2532.51,1230.53,2518.7,1230.53,2518.7Z"/></g><path class="cls-3" d="M1237.62,2527.92c2.45,31.13,2.28,62.07,1.63,93s-2.77,61.72-4.69,92.54l-11.72,184.91-5.86,92.45-2.93,46.23-1.46,23.11c-.51,7.74-.89,15.21-1.7,23.63-.52,8.19-1.9,16.45-3.06,24.68-1.67,8.26-3.23,16.52-5.72,24.73a179.71,179.71,0,0,1-21.16,47.7,154.57,154.57,0,0,1-36,39.17,188,188,0,0,1-45.27,25.42c-31.63,12.32-63.94,18.11-95.68,21.58s-63.33,4.53-94.62,4.72-62.43-.49-93.45-1.46l-23.24-.79-11.63-.43-12.16-.7c-16.23-1.17-32.54-3-48.89-6.66s-32.73-8.42-48.64-16.37-31.37-19-43.18-34.68-18.6-35.34-19.42-54.05c-.81-18.56,1.78-37,8.75-54,3.18-8.57,7.66-16.44,12.31-24.07a167.62,167.62,0,0,1,16.15-20.9,212.4,212.4,0,0,1,38.74-33.1A298.29,298.29,0,0,1,728,3000.66q11.16-5.1,22.64-9.36c7.81-2.86,15.12-5.38,23.84-7.78h0L760.59,3003c-4.38-70-7.51-139.67-10.14-209.51s-4.63-139.63-5.9-209.46-2.16-139.68-2.16-209.53c-.23-69.85.54-139.7,1.56-209.55a18.84,18.84,0,0,1,37.67.55v.1c-1,69.61-1.79,139.22-1.56,208.84,0,69.62.88,139.25,2.15,208.86s3.33,139.21,5.89,208.78,5.75,139.21,10.08,208.4a18.94,18.94,0,0,1-13.62,19.37l-.3.08h0c-6.13,1.81-13.41,4.39-20,7s-13.46,5.56-20,8.68A268.45,268.45,0,0,0,706.83,3057c-23.19,16.06-43,36.41-51.86,60.21-4.79,11.69-6.21,24.6-5.63,36.79a56.12,56.12,0,0,0,11.6,31.73c6.94,9,17.07,16.47,28.85,22.26s25.25,9.76,39,12.8,28.28,4.71,42.83,5.74l11,.63,11.52.41,23.05.75c30.72.93,61.36,1.56,91.83,1.33s60.73-1.39,90.36-4.58,58.56-8.75,84.56-18.93c25.86-10.34,47.82-25.92,62-48a138.43,138.43,0,0,0,16.47-36.56c2.08-6.55,3.41-13.48,4.89-20.34,1-7.05,2.29-14,2.79-21.25.75-6.95,1.24-14.9,1.8-22.56l1.65-23.11,3.3-46.21,6.61-92.43,13.22-184.86c4.11-61.64,9.21-123.21,22.16-184.24a9.51,9.51,0,0,1,18.78,1.22Z"/><path class="cls-3" d="M984.66,2829.44c-130.25,0-218.44-38.63-223.92-41.09A18.84,18.84,0,0,1,776.16,2754c2.13.94,192.68,83.71,423.69-.51a18.83,18.83,0,0,1,12.9,35.39A663.84,663.84,0,0,1,984.66,2829.44Z"/><path class="cls-3" d="M775,2983.33c8.88-1,16.78-1.51,25.12-1.88s16.44-.56,24.66-.49a448.72,448.72,0,0,1,49.25,2.86,329.89,329.89,0,0,1,48.76,9.51,204.8,204.8,0,0,1,46.31,19.76,9.42,9.42,0,0,1-8.75,16.66l-.39-.19a184.2,184.2,0,0,0-42.61-13.32,303.76,303.76,0,0,0-45.29-4.24,418.28,418.28,0,0,0-45.85,1.89c-7.63.69-15.25,1.61-22.8,2.72s-15.31,2.39-22.1,3.86l-.2,0a18.86,18.86,0,1,1-8-36.87A17.78,17.78,0,0,1,775,2983.33Z"/><circle class="cls-2" cx="1634.97" cy="2205.71" r="75.98" transform="translate(-1080.8 1802.14) rotate(-45)"/><g class="cls-9"><path class="cls-3" d="M1710.91,2207.55a76,76,0,1,1-151.92-3.7,75.2,75.2,0,0,1,8.09-32.29,76,76,0,0,0,137.32,3.34A75.12,75.12,0,0,1,1710.91,2207.55Z"/></g><path class="cls-3" d="M1635,2300.53l-2.34,0a94.74,94.74,0,1,1,2.34,0Zm0-152a57.27,57.27,0,1,0,1.41,0Z"/><g class="cls-4"><path class="cls-3" d="M813.89,2220.58a510.36,510.36,0,0,1-52.17-5q2.89,61.38,8.61,119.6h-9.18c-19.73-106.46-15-217.31-17.42-327.5l67.15-46.8C805.08,2023.42,795.38,2128.9,813.89,2220.58Z"/></g><g class="cls-4"><path class="cls-3" d="M1613.88,2360.38c-40.59,116.22-210.07,198.86-388.3,217.65l5-59.33c99.83-3.54,197.44-34.66,273-75.49l-387.68,13.66a86.81,86.81,0,0,1-89.51-83.39l-1.32-38.85a1110.83,1110.83,0,0,1-120.08,12.15l-14.45-11.59H861.12c-4.76-7.11-9.37-14.45-13.84-22.08-16-27.13-26.56-58.91-33.39-92.53,106.7,4.9,201.07-20.86,201.07-20.86,1.83,1,3.62,2,5.41,3.11l10.17-45.77c-1.5-41.68,3-125.64,50-134.72,5.6-1,15.86,48.26,21.7,48l401.43-14.13c47.56-1.65,87.87,35.88,89.42,83.44l6,169.19,1.6,44.45a85.39,85.39,0,0,1-2.35,23.17C1603.94,2371.12,1609.17,2365.75,1613.88,2360.38Z"/></g><g class="cls-4"><path class="cls-3" d="M869.69,2347.67a788.21,788.21,0,0,1-98.65-5.18q-6.21-61.66-9.32-126.9a510.36,510.36,0,0,0,52.17,5c6.83,33.62,17.42,65.4,33.39,92.53Q858,2331.34,869.69,2347.67Z"/></g><path class="cls-2" d="M1551.21,2392.22l-401.42,14.09c-47.51,1.68-87.79-35.84-89.47-83.41l-7.49-213.62c-1.46-41.64,27.14-77.67,66.2-87.1a83.88,83.88,0,0,1,17.21-2.36l401.36-14.1c47.57-1.68,87.85,35.84,89.47,83.41l6,169.19,1.57,44.43C1636.3,2350.32,1598.72,2390.53,1551.21,2392.22Z"/><g class="cls-4"><path class="cls-3" d="M1551.21,2392.22l-401.42,14.09c-47.51,1.68-87.79-35.84-89.47-83.41l-7.49-213.62c-1.46-41.64,27.14-77.67,66.2-87.1,23.33,14.33,38.14,23.51,38.14,23.51,25.56,170.78,22.49,298.17,287.92,271.19,91.51-9.3,152-38.42,188-58.56l1.57,44.43C1636.3,2350.32,1598.72,2390.53,1551.21,2392.22Z"/></g><path class="cls-3" d="M1161.88,2424.67A121.38,121.38,0,0,1,1041,2307.86l-6.4-182.19a121.2,121.2,0,0,1,116.74-125.24l369.93-13c66.66-2.42,122.9,50,125.24,116.73l6.4,182.19a121.35,121.35,0,0,1-116.73,125.24l-369.94,13-.66-18.83.66,18.83C1164.76,2424.65,1163.32,2424.67,1161.88,2424.67ZM1525.52,2025c-1,0-2,0-3,0l-369.94,13a83.48,83.48,0,0,0-80.41,86.27l6.4,182.19a83.69,83.69,0,0,0,86.27,80.41l369.93-13a83.68,83.68,0,0,0,80.41-86.27l-6.39-182.19A83.51,83.51,0,0,0,1525.52,2025Z"/><path class="cls-2" d="M1567.26,2390.07a77.32,77.32,0,0,1-16,2.15l-401.42,14.09a86.68,86.68,0,0,1-80.43-48,85.23,85.23,0,0,1-9-35.37L1057,2228l-1.11-31.31-3.07-87.41c-1.68-47.57,35.9-87.78,83.41-89.46l86.74-3c-39.72,8.94-68.93,45.25-67.47,87.32l4,115.39,3.46,98.29c1.69,47.51,42,85.09,89.47,83.4Z"/><g class="cls-4"><path class="cls-3" d="M1567.26,2390.07a77.32,77.32,0,0,1-16,2.15l-401.42,14.09a86.66,86.66,0,0,1-89.41-83.41l-4.48-126.21c10.88,21.95,30,48.68,59.1,50.54,16,1.05,31.25-11,44.53-27.73l3.46,98.29c1.69,47.51,42,85.09,89.47,83.4Z"/></g><path class="cls-3" d="M1146.65,2425.21a105.55,105.55,0,0,1-105.12-101.63l-7.5-213.64a105.58,105.58,0,0,1,101.55-109l86.71-3a18.84,18.84,0,0,1,4.81,37.2,67.71,67.71,0,0,0-52.76,68.34l7.5,213.64a67.85,67.85,0,0,0,69.93,65.23l314.85-11.08a18.83,18.83,0,0,1,5,37.15,99.28,99.28,0,0,1-19.86,2.62l-401.32,14.11C1149.18,2425.19,1147.91,2425.21,1146.65,2425.21Zm11.12-387.32-20.86.73a67.92,67.92,0,0,0-65.24,70l7.51,213.65h0a67.86,67.86,0,0,0,69.93,65.23l23.51-.83a104.37,104.37,0,0,1-28.43-68.24l-7.5-213.63A105,105,0,0,1,1157.77,2037.89Z"/><path class="cls-12" d="M1317.59,2207.13c.23,7.9-9,72-9,72l-45,1.32c-31,.91-57.06-30.45-58.23-70s23-72.43,54-73.34l45-1.32S1317.21,2194.26,1317.59,2207.13Z"/><g class="cls-9"><path class="cls-3" d="M1317.59,2207.13c.23,7.9-9,72-9,72l-45,1.32c-31,.91-57.06-30.45-58.23-70s23-72.43,54-73.34l45-1.32S1317.21,2194.26,1317.59,2207.13Z"/></g><path class="cls-3" d="M1262.27,2293c-37.1,0-68.08-36.45-69.42-82.19-.65-21.93,5.53-42.86,17.38-58.95,12.53-17,29.85-26.69,48.76-27.24l45-1.32a12.6,12.6,0,0,1,12.58,9.81c2.18,10,13.1,60.31,13.5,73.67.24,8.34-6.93,58.87-9.13,74.16a12.5,12.5,0,0,1-12,10.71l-45,1.33Zm32.08-144.41-34.62,1c-11.07.32-21.5,6.39-29.37,17.08-8.56,11.61-13,27-12.52,43.39,1,32.63,21.23,58.64,45.37,57.9l34.49-1c3.86-27.42,7.41-55,7.4-59.49C1304.87,2200.08,1299.06,2170.73,1294.35,2148.57Z"/><ellipse class="cls-12" cx="1306.48" cy="2207.45" rx="56.15" ry="71.71" transform="translate(-64.25 39.31) rotate(-1.68)"/><g class="cls-9"><path class="cls-3" d="M1250.36,2209.12c1.15,39.56,27.22,70.94,58.21,70s55.22-33.75,54-73.36a88,88,0,0,0-1.82-15.58c-7.18,27.43-27.14,47.41-51.21,48.08-26.77.79-49.9-22.48-56.4-54.42A90.4,90.4,0,0,0,1250.36,2209.12Z"/></g><g class="cls-13"><path class="cls-2" d="M1250.36,2209.12a77,77,0,0,0,.62,8c5.24-31.19,26.6-54.77,52.78-55.53,28.88-.82,53.53,26.35,57.59,62.12a90.52,90.52,0,0,0,1.25-17.87c-1.15-39.57-27.22-70.95-58.21-70S1249.22,2169.5,1250.36,2209.12Z"/></g><path class="cls-3" d="M1307.24,2291.66c-18.28,0-35.47-8.6-48.57-24.36-12.77-15.37-20.16-35.9-20.81-57.83s5.53-42.86,17.38-58.95c12.54-17,29.86-26.69,48.77-27.24,37.86-1.06,69.73,35.74,71.09,82.16s-28.31,85.08-66.14,86.19Zm-1.54-143.41-1,0c-11.06.32-21.49,6.39-29.37,17.08-8.55,11.61-13,27-12.52,43.39s5.83,31.49,15.05,42.58c8.48,10.2,19.24,15.68,30.32,15.32,24.06-.7,42.85-27.83,41.89-60.47C1349.17,2174,1329.34,2148.25,1305.7,2148.25Z"/><path class="cls-3" d="M1426.36,2409.18a14.13,14.13,0,0,1-14.12-14L1411,2287.07a88.64,88.64,0,0,1,38.94-74.53,60.29,60.29,0,0,0,26.53-52.05l-4.82-152.37a14.13,14.13,0,1,1,28.24-.9l4.82,152.38a88.4,88.4,0,0,1-38.9,76.32,60.47,60.47,0,0,0-26.56,50.83l1.24,108.14a14.13,14.13,0,0,1-14,14.29Z"/><path class="cls-2" d="M730.2,2118.1s-32.68,28.53-29.31,73.31c3.9,51.76,38.1,73.21,38.1,73.21s116.46,77.06,365.91,29.47c0,0,56.51-83.71-22.13-132.51C1082.77,2161.58,857.26,2231.93,730.2,2118.1Z"/><g class="cls-4"><path class="cls-3" d="M700.83,2190.4h0c3.53,52.49,38.18,74.23,38.18,74.23s116.45,77,365.91,29.47c0,0,43.18-64,1.53-112.68,0,.32,0,.64,0,1-1.78,32.8-24.2,59.46-52.72,63.86-226.62,35-332.76-35.2-332.76-35.2S710.69,2204.65,700.83,2190.4Z"/></g><path class="cls-3" d="M949.9,2328.5c-146.32,0-217.48-45.64-221.31-48.17-1.34-.83-41.92-26.95-46.48-87.51-4-53.56,34.07-87.49,35.7-88.91a18.84,18.84,0,0,1,25,.16c117.47,105.25,332.25,40.2,334.41,39.53a18.87,18.87,0,0,1,15.53,2c26.53,16.46,42.86,38.24,48.53,64.72,10.22,47.76-19.46,92.45-20.72,94.33a18.88,18.88,0,0,1-12.08,8C1048.17,2324.09,995.39,2328.5,949.9,2328.5ZM732.47,2144.37c-6.83,10.06-14.28,25.87-12.79,45.62,3.08,40.9,28.42,58.08,29.49,58.79,1.24.8,112.08,70.43,343.82,28.37,6-11.24,16.5-35.57,11.37-59.16-3.06-14-11.2-25.84-24.81-35.87C1036.79,2193.83,853.58,2236.39,732.47,2144.37Z"/><path class="cls-2" d="M895.75,1522.33s-509,370.84-452.4,795c29.43,220.67,177.37,230.46,267.88,214,59.49-10.85,55.39-16.43,91-33.13,34.44-16.15,89.79-19.9,140.55-23.75,96.32-7.31,165.45-253.07,28.46-333.82-84-49.51-155.43,2.86-178.62,10.49-9.72-10.53-21.43-107.3,18.24-190.17"/><path class="cls-3" d="M906.84,1537.56c-17.43,13-35.1,27.4-52.17,41.8s-34,29.39-50.49,44.66c-33,30.52-64.82,62.34-95.1,95.52C648.62,1785.9,594,1857.73,550.16,1935.41c-21.87,38.83-41,79.12-56.21,120.73-14.93,41.69-25.84,84.68-31.46,128.26a513.72,513.72,0,0,0-.36,131.11c6,43.23,17.44,85.82,39.25,121.44,11.1,17.52,24.38,33.48,40.59,45.71a144.2,144.2,0,0,0,25.72,16.15,157,157,0,0,0,28.54,11.07c19.78,5.74,40.8,8,62,7.78a276.06,276.06,0,0,0,31.9-2.21c5.32-.69,10.63-1.48,15.93-2.42s10.92-2,16.22-3.1c10.67-2.24,21.23-4.66,30.17-8a104.62,104.62,0,0,0,13.27-6l15.09-8.13c5.46-2.8,10.45-5.39,16.49-8,3-1.35,6.05-2.57,9.06-3.61s6-2.09,9-3A284.9,284.9,0,0,1,851,2465c23.49-3.93,46.61-6,69.44-7.78l17.07-1.32c1.36-.11,2.94-.19,4.13-.33l2.88-.5,2.9-.39,2.88-.92c7.71-2.29,15.43-6.84,22.58-12.89a130.57,130.57,0,0,0,19.38-22,192.06,192.06,0,0,0,15.24-26.78,244.61,244.61,0,0,0,18.46-60.21,240.61,240.61,0,0,0,2.15-62.85,175.76,175.76,0,0,0-16.66-58.78,131.52,131.52,0,0,0-37.74-45.4c-4-3-8.24-5.54-12.39-8.28l-13.39-7L934,2144.24c-4.79-1.13-9.48-2.78-14.31-3.62a130,130,0,0,0-59,2.91c-9.87,2.52-19.59,6.4-29.38,10.63-4.9,2.13-9.79,4.49-14.93,6.94l-8.05,3.81c-1.52.67-2.6,1.26-4.49,2l-5.3,2a17.47,17.47,0,0,1-19.5-4.85l-.22-.27,0-.05a38.05,38.05,0,0,1-3.15-4l-1.65-2.83c-1-1.81-1.56-3.16-2.22-4.67a76.05,76.05,0,0,1-2.68-7.65,124.22,124.22,0,0,1-3.21-13.79,214.56,214.56,0,0,1-3-26.43c-.44-8.72-.36-17.4,0-26q.72-13,2.36-25.82c2.6-17.06,5.93-34.1,11.9-50.39s14-31.91,25.28-45.32a9.73,9.73,0,0,1,17,7.86l0,.28c-2.7,16-5.79,31.12-8.33,46.33s-5,30.27-6,45.58q-1,11.46-1.12,22.92c-.26,7.63-.17,15.26.1,22.8s.81,15,1.56,22.22c.45,3.53.9,7.09,1.48,10.18l.85,4c.08.39.23.95.16.95a.48.48,0,0,0-.22-.13,6.33,6.33,0,0,0-1.33-1.55l0,0-19.72-5.12c1.74-.74,3.39-1.28,6-2.53l7.37-3.49c5.12-2.44,10.47-5,16-7.43,11-4.79,22.54-9.38,34.72-12.52a167.85,167.85,0,0,1,76-3.54c6.35,1.13,12.49,3.15,18.73,4.75,6,2.16,12,4.57,17.91,6.91l16.85,8.78c5.37,3.46,10.84,6.82,16,10.66a169.11,169.11,0,0,1,48.76,58.55,213,213,0,0,1,20.5,71.75,278.55,278.55,0,0,1-2.46,73.12,282,282,0,0,1-21.46,69.85,229.19,229.19,0,0,1-18.5,32.43,166.62,166.62,0,0,1-25.72,29c-10.18,8.64-22.26,16.2-36.35,20.43-1.76.53-3.5,1.08-5.28,1.55l-5.53.9-5.55.8-4.37.36-17,1.3c-22.49,1.77-44.73,3.79-66.11,7.37a249.43,249.43,0,0,0-30.87,7c-2.44.75-4.87,1.49-7.15,2.38s-4.62,1.73-6.78,2.71-4.64,2.12-7,3.26l-7.17,3.63-14.93,8a143.62,143.62,0,0,1-17.76,8.06c-12.4,4.58-24.13,7.13-35.68,9.58-45.81,9.87-96.06,13.11-144.08-.73a195.6,195.6,0,0,1-35-13.58,181.54,181.54,0,0,1-32-20.06c-20.14-15.26-36.44-34.85-49.57-55.69-13-21-22.4-43.63-29.51-66.55a439.22,439.22,0,0,1-15-69.67,552,552,0,0,1,.34-141c6-46.63,17.65-92.29,33.4-136.24,16-43.85,36.05-86,58.8-126.4,45.63-80.82,101.93-154.71,163.92-222.76q46.56-51,97.39-97.82,25.3-23.44,51.7-45.74c17.7-14.92,35.27-29.3,54.31-43.49a18.84,18.84,0,0,1,22.51,30.21h0Z"/><g class="cls-4"><path class="cls-3" d="M942.79,2474.38c-50.73,3.86-106.11,7.61-140.54,23.77-35.61,16.68-31.52,22.27-91,33.12-90.47,16.49-238.44,6.72-267.84-214l20.52-19.87c47.73,156,173.33,161.78,253.71,147.41,52.28-9.35,131.53-46.58,216.91-42.62,68.73,3.19,96.69-70.26,112.42-134.33C1056.8,2363.53,1005.6,2469.59,942.79,2474.38Z"/></g><path class="cls-3" d="M704.66,2336.31a192,192,0,0,1-1.43-27.52,254.78,254.78,0,0,1,2-27,234.33,234.33,0,0,1,13-52.88A228.43,228.43,0,0,1,743,2179.75c4.84-7.93,10.75-15,16.53-22.31,2.76-3.76,6.11-7,9.27-10.35l9.62-10.08a18.87,18.87,0,1,1,27.31,26c-.38.4-.77.78-1.18,1.14l-1.21,1.06-9,7.85c-2.95,2.65-6.15,5.11-8.75,8.1-5.45,5.77-11.18,11.38-15.9,17.82a197.62,197.62,0,0,0-25.47,40.71,208.41,208.41,0,0,0-15.85,46.05c-1,4-1.56,8-2.37,12.07-.64,4-1.17,8.11-1.67,12.18a180.12,180.12,0,0,0-1,24.06l0,.66a9.41,9.41,0,0,1-18.73,1.55Z"/><path class="cls-3" d="M445.65,2351.27c-.4,0-.8,0-1.21,0a18.81,18.81,0,0,1-17.6-19.94c.3-4.86,8.4-120,99.79-199.36,63.4-55.06,150.28-78.65,258.18-70.13a18.84,18.84,0,0,1-3,37.56c-97.28-7.7-174.71,12.74-230.17,60.72-79.49,68.76-87.17,172.53-87.24,173.57A18.85,18.85,0,0,1,445.65,2351.27Z"/><path class="cls-2" d="M525.37,1318.8l17,.25a11.2,11.2,0,0,0,11.37-11l5.47-368.44a11.21,11.21,0,0,0-11.05-11.38l-17-.25a117.61,117.61,0,0,0-119.34,115.85l-2.31,155.67A117.6,117.6,0,0,0,525.37,1318.8Z"/><path class="cls-3" d="M542.54,1322.44h-.22l-17-.26a121.13,121.13,0,0,1-119.19-122.77l2.31-155.67A121.05,121.05,0,0,1,531.22,924.56l17,.25a14.61,14.61,0,0,1,14.37,14.81l-5.46,368.44a14.59,14.59,0,0,1-14.59,14.38ZM529.4,931.31a114.37,114.37,0,0,0-114.19,112.53l-2.31,155.67a114.36,114.36,0,0,0,112.52,115.91h0l17,.25a7.58,7.58,0,0,0,5.57-2.21,7.82,7.82,0,0,0,2.37-5.5l5.47-368.44a7.85,7.85,0,0,0-7.71-7.95l-17-.25Z"/><g class="cls-4"><path class="cls-3" d="M410.61,1125.5l-.87,58.45A133.18,133.18,0,0,0,540.9,1319.06a12.73,12.73,0,0,0,12.88-12.53l1.47-97.16a12.72,12.72,0,0,1-11.66,7.36l-8.67-.16A133,133,0,0,1,410.61,1125.5Z"/></g><path class="cls-3" d="M542.55,1337.89h-.46l-17-.26c-75.23-1.11-135.52-63.22-134.41-138.45L393,1043.51c1.12-75.22,63.16-135.63,138.46-134.4l17,.25A30.08,30.08,0,0,1,578,939.84l-5.46,368.45a30.06,30.06,0,0,1-30,29.6Zm.1-37.67h0ZM529.4,946.76a98.89,98.89,0,0,0-98.74,97.31l-2.31,155.67A98.89,98.89,0,0,0,525.65,1300h0l9.37.14,5.24-353.2-9.37-.14Z"/><path class="cls-2" d="M1748.68,946.93h17a117.61,117.61,0,0,1,117.61,117.61v155.68a117.61,117.61,0,0,1-117.61,117.61h-17a11.21,11.21,0,0,1-11.21-11.21V958.14a11.21,11.21,0,0,1,11.21-11.21Z" transform="translate(17.14 -26.72) rotate(0.85)"/><path class="cls-3" d="M1764.56,1340.55h-1.82l-17-.25a14.63,14.63,0,0,1-14.38-14.81L1736.83,957a14.6,14.6,0,0,1,14.81-14.37l17,.25h0a121.13,121.13,0,0,1,119.18,122.77l-2.3,155.67A121.15,121.15,0,0,1,1764.56,1340.55Zm-13.14-391.13a7.82,7.82,0,0,0-7.82,7.71l-5.47,368.45a7.85,7.85,0,0,0,7.71,7.94l17,.25c62.9.87,115-49.54,115.91-112.52l2.31-155.67a114.36,114.36,0,0,0-112.52-115.9l-17-.26Z"/><g class="cls-4"><path class="cls-3" d="M1736.25,1222.65l-1.5,101.4a12.73,12.73,0,0,0,12.53,12.88,133.1,133.1,0,0,0,135.07-131.12l.78-52.52a133.19,133.19,0,0,1-122.43,76.38l-13.33-.2A12.82,12.82,0,0,1,1736.25,1222.65Z"/></g><path class="cls-3" d="M1764.56,1356h-2l-17-.25a30.08,30.08,0,0,1-29.6-30.49l5.46-368.45a30,30,0,0,1,30.49-29.59l17,.25h0c75.22,1.12,135.52,63.23,134.4,138.45L1901,1221.58C1899.86,1296.12,1838.86,1356,1764.56,1356Zm-10.87-37.82,9.38.14A98.82,98.82,0,0,0,1863.3,1221l2.31-155.66a98.9,98.9,0,0,0-97.3-100.24l-9.37-.13Z"/><g class="cls-4"><path class="cls-3" d="M1573.24,1652.13c-61.61,25.55-160.55,185.93-391.35,201.72-316.35,21.64-481.55-215.42-513.52-257l886.79-19.88C1561,1598.92,1567.07,1624.16,1573.24,1652.13Z"/></g><circle class="cls-2" cx="1146.9" cy="1132.55" r="622.89"/><path class="cls-3" d="M1146.51,1758.83c-329.4,0-606.18-258.24-624.89-591.13h0C502.24,822.92,767,526.65,1111.75,507.26c167-9.39,327.7,46.83,452.44,158.29s198.61,264.82,208,431.84c19.38,344.79-245.35,641.05-590.13,660.44C1170.17,1758.5,1158.28,1758.83,1146.51,1758.83ZM528.38,1167.32c19.17,341,312.2,603,653.29,583.75s602.93-312.24,583.76-653.3c-9.29-165.21-82.36-316.92-205.75-427.18S1277.32,504.73,1112.13,514c-341.05,19.17-602.93,312.24-583.75,653.3Z"/><g class="cls-4"><path class="cls-3" d="M526.12,1081.08a618.53,618.53,0,0,0-1.13,86.43c19.35,343.46,313.43,606.24,656.88,587s606.24-313.43,587-656.89c-.55-9.87-1.33-19.75-2.35-29.45-24.91,305.09-271.57,552.77-585.83,570.45C847.07,1657.31,560.13,1410,526.12,1081.08Z"/></g><path class="cls-3" d="M1146.5,1774.28c-337.53,0-621.13-264.61-640.31-605.72h0C486.33,815.28,757.6,511.7,1110.88,491.84c171.15-9.62,335.79,48,463.6,162.19s203.51,271.36,213.13,442.5c19.86,353.28-251.4,656.86-604.69,676.73C1170.74,1773.94,1158.56,1774.28,1146.5,1774.28ZM543.8,1166.45c18.7,332.55,304.42,587.91,637,569.19s587.89-304.45,569.19-637c-9.06-161.09-80.3-309-200.62-416.52S1274.1,520.38,1113,529.45C780.45,548.14,525.11,833.9,543.8,1166.45Z"/><path class="cls-3" d="M527.89,1183.37c5,121.79,49.18,233.23,120.63,324,53.57,68.05,267,182.24,524.38,174,238.66-7.65,450.51-143.77,498.31-216,63.77-96.32,98.66-211,93.66-332.8C1751.63,810.28,1469.25,688,1127.65,702.08S514.65,861.09,527.89,1183.37Z"/><path class="cls-3" d="M1145.55,1700.63C885.3,1700.63,685,1584.21,633.72,1519c-76.54-97.24-119.65-213-124.66-334.88-6.53-159,52.23-284.3,174.65-372.31,106.53-76.58,259.78-121,443.17-128.57s339.77,24.21,452.22,91.8c129.22,77.66,198.06,197.69,204.59,356.73,5,121.84-28.46,240.78-96.77,344-50.48,76.25-265.22,216.46-513.42,224.42C1164.13,1700.48,1154.78,1700.63,1145.55,1700.63Zm-598.84-518c4.67,113.87,45,222.15,116.61,313.12,47.5,60.34,251.81,175.06,509,166.81,232-7.44,437.87-139.08,483.21-207.56,63.91-96.54,95.22-207.76,90.54-321.64-6-145.58-68.68-255.26-186.36-326-106.12-63.78-255.28-93.68-431.26-86.44C948.12,728.3,530.5,788.12,546.71,1182.6Z"/><g class="cls-11"><ellipse class="cls-2" cx="727.1" cy="1131.33" rx="79.88" ry="110.23" transform="translate(-229.66 186.24) rotate(-12.62)"/></g><g class="cls-11"><ellipse class="cls-2" cx="833.83" cy="1345.49" rx="43.42" ry="50.6" transform="translate(-419.49 378.64) rotate(-20.56)"/></g><g class="cls-13"><path class="cls-14" d="M635.83,877.77C563.18,953,522.59,1053.91,527.89,1183.35c5,121.81,49.21,233.25,120.61,324,53.59,68.05,267,182.23,524.41,174,90.89-2.89,177.85-24.44,253.39-54-316.61,3.37-576.63-136.85-643.06-221.26-90.69-115.21-146.76-256.67-153.08-411.21A629.56,629.56,0,0,1,635.83,877.77Z"/></g><path class="cls-3" d="M569.5,917.34a18.82,18.82,0,0,1-15.17-30C659.51,727,868.42,629,1127.69,618.35c261.19-10.73,477.65,72.94,594,229.57a18.84,18.84,0,0,1-28.45,24.65l-.48-.53c-.36-.41-.69-.82-1-1.25C1583,724.07,1378,645.78,1129.24,656c-247.4,10.16-445.65,102.31-543.92,252.8a18.87,18.87,0,0,1-15.82,8.55Z"/><g class="cls-11"><path class="cls-2" d="M1633.84,1330s86.76-322-89.79-441.69-423-109-416.63-93.45c0,0,275.63,54.86,391.27,266.23C1607.87,1224.07,1633.84,1330,1633.84,1330Z"/></g><path class="cls-15" d="M1727.45,692.28v65.21H566.35V692.28a579.78,579.78,0,0,1,30.84-187.23C675.07,276.3,891.77,111.72,1146.9,111.72c160.29,0,305.46,65,410.52,170a578.51,578.51,0,0,1,170,410.52Z"/><path class="cls-16" d="M1146.38,275.83V757.49H808.85c-54.2-70.35-96.53-150.91,6.26-138.67,199.47,23.73,194.34-261.25,252.63-325.29C1098.54,259.72,1146.38,275.83,1146.38,275.83Z"/><path class="cls-16" d="M1483.91,757.49H1146.38V275.83s47.84-16.11,78.64,17.7c58.29,64,53.16,349,252.63,325.29C1580.44,606.58,1538.11,687.14,1483.91,757.49Z"/><path class="cls-2" d="M1727.45,692.28v51a578.51,578.51,0,0,0-170-410.52c-105.06-105-250.23-170-410.52-170-255.13,0-471.83,164.58-549.71,393.33a579.78,579.78,0,0,0-30.84,187.23v-51a579.78,579.78,0,0,1,30.84-187.23C675.07,276.3,891.77,111.72,1146.9,111.72c160.29,0,305.46,65,410.52,170a578.51,578.51,0,0,1,170,410.52Z"/><path class="cls-16" d="M1727.45,692.28v65.21H566.35V692.28a579.78,579.78,0,0,1,30.84-187.23c53,57.83,193.2,149.46,549.71,149.46s496.74-91.63,549.71-149.46A579.78,579.78,0,0,1,1727.45,692.28Z"/><path class="cls-3" d="M1727.45,776.32H566.37a18.84,18.84,0,0,1-18.84-18.84v-65.2c0-330.49,268.88-599.37,599.38-599.37s599.38,268.88,599.38,599.37v65.2A18.84,18.84,0,0,1,1727.45,776.32ZM585.21,738.65H1708.62V692.28c0-309.72-252-561.7-561.71-561.7s-561.7,252-561.7,561.7Z"/><path class="cls-15" d="M1406.27,382l23.69-174a91.76,91.76,0,0,0-71.62-102.09L1166.22,64.49a91.75,91.75,0,0,0-38.62,0L935.48,105.85a91.75,91.75,0,0,0-71.62,102.09l23.69,174"/><path class="cls-2" d="M1430,207.93l-1.23,9.13a91.82,91.82,0,0,0-70.39-70.21l-192.12-41.34a90.46,90.46,0,0,0-38.62,0L935.47,146.85a91.8,91.8,0,0,0-70.39,70.26l-1.23-9.18a91.75,91.75,0,0,1,71.62-102.09l192.12-41.35a92.08,92.08,0,0,1,38.62,0l192.12,41.35A91.71,91.71,0,0,1,1430,207.93Z"/><path class="cls-3" d="M1396.94,380.7c-1-22.36,0-44.46,1.56-66.49s4-43.92,6.84-65.76l4.18-32.78,1-8.19.26-2,.12-1.65.24-3.26a45.64,45.64,0,0,0,.09-6.51,42.56,42.56,0,0,0-.5-6.48,71.82,71.82,0,0,0-45.32-58.28c-2-.63-4-1.61-6.09-2s-3.89-1-6.5-1.62l-16.19-3.34L1272,108.61l-64.65-13.7L1175,88.07l-15.5-3.25a72.29,72.29,0,0,0-12.63-1.09,73.28,73.28,0,0,0-12.63,1.1l-15.5,3.24-32.33,6.85-64.65,13.7-64.66,13.65L941,125.61c-2.62.57-4.3,1.11-6.5,1.62a64,64,0,0,0-6.09,2,71.28,71.28,0,0,0-21.82,13.35,72.08,72.08,0,0,0-23.49,44.91,42.56,42.56,0,0,0-.5,6.48,47.16,47.16,0,0,0,.08,6.51l.25,3.26.12,1.65.26,2,1,8.2,4.19,32.78c5.7,43.68,10,87.56,8.38,132.25a9.56,9.56,0,0,1-18.66,2.54c-13.51-42.63-21.09-86.06-27.28-129.68l-4.73-32.7L845,212.68l-.29-2-.25-2.47-.48-5a83.17,83.17,0,0,1-.31-10,77.64,77.64,0,0,1,.59-10,111.67,111.67,0,0,1,69.06-91.75c3.17-1.13,6.25-2.56,9.51-3.38s6.73-1.89,9.49-2.52L948.46,82,1013,67.8l64.57-14.11,32.28-7.06,8.06-1.77c2.73-.58,5.15-1.16,8.75-1.84a109.89,109.89,0,0,1,40.48,0c3.6.69,6,1.27,8.74,1.85l8.07,1.76,32.28,7.06,64.56,14.12L1345.35,82l16.13,3.61c2.76.63,6.36,1.67,9.48,2.52s6.34,2.25,9.51,3.38a111.7,111.7,0,0,1,69,91.73,77.74,77.74,0,0,1,.59,10,81.15,81.15,0,0,1-.31,10l-.48,5-.25,2.46-.29,2.05-1.19,8.17-4.73,32.71c-3.11,21.8-6.56,43.57-11,65.2s-9.38,43.18-16.27,64.48a9.57,9.57,0,0,1-18.66-2.54Z"/><path class="cls-15" d="M1292.17,112.71,1270.6,605l-6.69,152.47h-234l-6.64-151.86-21.61-492.92c-1.84-42,27.4-79.39,68.79-86.88a420.11,420.11,0,0,1,152.85,0C1264.76,33.32,1294,70.66,1292.17,112.71Z"/><path class="cls-2" d="M1292.17,112.71l-1.23,27.83a84.1,84.1,0,0,0-67.62-68.23,419.52,419.52,0,0,0-152.85,0c-35.12,6.36-61.54,34.23-67.57,68.23l-1.22-27.83c-1.84-42,27.4-79.39,68.79-86.88a420.11,420.11,0,0,1,152.85,0C1264.76,33.32,1294,70.66,1292.17,112.71Z"/><path class="cls-16" d="M1270.6,605l-6.69,152.47h-234l-6.64-151.86c34.57,20,78.17,38,123.09,38C1191.77,643.63,1235.9,625.22,1270.6,605Z"/><path class="cls-3" d="M1263.9,776.32h-234a18.83,18.83,0,0,1-18.82-18L982.85,113.54c-2.26-51.45,34-97.13,84.29-106.23a439,439,0,0,1,159.55,0c50.3,9.1,86.53,54.77,84.28,106.23l-28.25,644.77A18.84,18.84,0,0,1,1263.9,776.32Zm-216-37.67h197.93l27.47-626.75c1.43-32.73-21.51-61.76-53.36-67.52a401.16,401.16,0,0,0-146.13,0c-31.86,5.76-54.8,34.79-53.36,67.52Z"/><path class="cls-15" d="M1808.94,845.06s-131.87,91.51-662,91.51-662-91.51-662-91.51l81.49-150.48s359.85,32,580.54,32,580.54-32,580.54-32Z"/><path class="cls-2" d="M1747.32,731.31C1672,737.76,1352.54,764,1146.9,764s-525.08-26.19-600.43-32.64l19.88-36.73s359.85,32,580.55,32,580.55-32,580.55-32Z"/><path class="cls-16" d="M1809,845.08s-131.89,91.49-662.06,91.49-662-91.49-662-91.49l35-64.75c66.86,26.37,241.8,74.68,627,74.68s560.07-48.26,627-74.68h0Z"/><path class="cls-3" d="M1146.91,955.41c-530,0-667.19-91-672.77-94.87a18.83,18.83,0,0,1-5.82-24.45l81.49-150.48A18.78,18.78,0,0,1,568,675.82c.54,0,54.84,4.87,132.83,10.69,130.19,9.7,313.26,21.27,446,21.27,50,0,111.58-1.67,182.94-5,191.66-8.89,393.91-26.8,395.93-27a18.83,18.83,0,0,1,18.23,9.79l81.49,150.48a18.83,18.83,0,0,1-5.82,24.45C1814.1,864.41,1676.87,955.41,1146.91,955.41ZM510.52,837.28c46.91,21.46,214.3,80.45,636.39,80.45,421.84,0,589.28-58.92,636.39-80.47l-66.53-122.84c-47,4-220,18.35-385.18,26-71.93,3.33-134.07,5-184.68,5-133.94,0-318-11.62-448.84-21.38-56.5-4.21-100.63-7.91-121-9.65Z"/></g></g></svg>