<svg xmlns="http://www.w3.org/2000/svg" viewBox="0 0 2705.8 2643.32"><defs><style>.cls-1{fill:#fff;}.cls-2{fill:#371a45;}.cls-3{opacity:0.35;}.cls-4{fill:#22a7f0;}.cls-5{opacity:0.5;}.cls-6{fill:#111a28;}.cls-7{opacity:0.2;}.cls-8{fill:#390075;}.cls-9{fill:#00c10e;}.cls-10{fill:#fcf7fb;}.cls-11{opacity:0.7;}.cls-12{fill:#93603e;}</style></defs><g id="Layer_2" data-name="Layer 2"><g id="Layer_1-2" data-name="Layer 1"><path class="cls-1" d="M1687.41,1447.76v690.65c0,116.16-95.05,211.17-211.16,211.17H778c-116.11,0-211.16-95-211.16-211.17V1447.76c0-68.39,32.94-129.42,83.69-168.06A209.81,209.81,0,0,1,778,1236.59h698.26a210.06,210.06,0,0,1,137.17,51C1658.66,1326.37,1687.41,1383.83,1687.41,1447.76Z"/><path class="cls-2" d="M1476.23,1236.58c116.14,0,211.16,95,211.16,211.16v690.68c0,116.14-95,211.16-211.16,211.16H778c-116.14,0-211.16-95-211.16-211.16V1447.74c0-116.14,95-211.16,211.16-211.16h698.22m0-35.81H778c-136.18,0-247,110.79-247,247v690.68c0,136.18,110.79,247,247,247h698.22c136.18,0,247-110.79,247-247V1447.74c0-136.18-110.79-247-247-247Z"/><path class="cls-1" d="M1392.61,1211.88c260.08,89.3,279.28,295.26,459.2,414.81,77.88,51.75,159.23,39.11,256.38,13,51.78-13.9,76.63,37.44,80,125.31,4.74,122.42-37.38,209-292.16,214-296.93,5.8-348.34-345.73-348.34-345.73"/><g class="cls-3"><path class="cls-2" d="M1896.06,1979.08c-297,5.78-348.33-345.74-348.33-345.74L1518.15,1553c122.49,74.25,102.26,337.42,377.91,332,210.67-4.12,275.92-64,289.57-153.88,1.26,10.57,2.15,21.93,2.6,33.93C2193,1887.47,2150.86,1974.07,1896.06,1979.08Z"/></g><path class="cls-2" d="M1889,1997c-125,0-226.46-62-294-179.76-51.07-89.09-64.46-177.63-65-181.36a17.9,17.9,0,0,1,35.43-5.18c.13.84,13.18,86.37,61.15,169.61,62.81,109,153.42,163.28,269.13,160.81,121.53-2.37,199.71-23.77,239-65.43,27-28.62,38-68.71,35.62-130-2.88-74.25-20.33-97.88-30.48-105.35-4.54-3.34-12.27-7.32-27-3.37-93,25-183.69,42.54-270.92-15.43-75.87-50.41-124.44-116-171.41-179.53-69.31-93.66-134.77-182.12-283.7-233.26a17.9,17.9,0,0,1,11.62-33.87c159.47,54.76,231.35,151.9,300.86,245.83,47.22,63.81,91.81,124.07,162.44,171,68.09,45.25,137.52,38.66,241.83,10.68,21.66-5.81,41.56-2.66,57.54,9.12,27.24,20.07,42.39,64.74,45,132.79,1.87,48.25-1.6,109.57-45.34,155.94-46.89,49.7-130.89,74.06-264.36,76.66C1893.93,1997,1891.44,1997,1889,1997Z"/><path class="cls-1" d="M860.68,1211.88C600.6,1301.18,563,1514.26,386,1638c-52.84,37-125.6,57.19-240.76,39.17-53-8.29-115.94-15.67-126.83,71.6-8.86,70.92,113.78,230.77,338.86,230.26,297-.66,348.35-345.73,348.35-345.73Z"/><g class="cls-3"><path class="cls-2" d="M738.68,1570.51l-33.1,62.81s-51.37,345.06-348.36,345.76c-225.1.5-347.71-159.35-338.88-230.29.6-4.79,1.35-9.29,2.25-13.53,23.47,113.67,153.5,183,342.26,182.65C641.51,1917.31,586.62,1635.11,738.68,1570.51Z"/></g><path class="cls-2" d="M356.14,1997c-171.87,0-268.36-88.07-301.92-126-37.95-42.89-58-89.39-53.63-124.39,4.27-34.21,16.64-59.24,36.75-74.39,33-24.83,77.84-17.8,110.62-12.67,98.13,15.34,170.49,3.86,227.74-36.16,67.8-47.4,114.12-107.89,163.16-171.93,75.59-98.71,153.75-200.77,316-256.49a17.91,17.91,0,0,1,11.63,33.87c-152,52.2-226.85,149.9-299.2,244.38-48.54,63.39-98.74,128.94-171.08,179.52-64.41,45-147.41,58.83-253.78,42.18-33-5.17-64.29-8.6-83.54,5.9-12.26,9.23-19.7,25.66-22.77,50.23-2.3,18.38,8.09,54.61,44.91,96.23,30.35,34.29,117.83,113.91,275.11,113.91h1.05c278.37-.62,330.18-327.17,330.67-330.47a17.91,17.91,0,0,1,35.42,5.28c-.55,3.65-13.93,90.66-65,178.94-68.75,118.82-172.83,181.77-301,182Z"/><path class="cls-2" d="M646.45,1812a12.5,12.5,0,0,1-12.5-12.5c0-148.35-143.14-254.73-144.59-255.79a12.5,12.5,0,0,1,14.74-20.19c6.32,4.61,154.85,114.77,154.85,276A12.5,12.5,0,0,1,646.45,1812Z"/><path class="cls-1" d="M165,1695c-47-54.31,2.92-88.27,53.11-59.53,45.6,26.11,86.33,57.59,138,42.63,0,0-3.91,32.84-45.43,68.87S165,1695,165,1695Z"/><path class="cls-2" d="M151.51,1706.67c-9.42-9.69-18.38-21.25-22.89-37.6-2.14-8.09-3.06-17.71-.18-27.59a44.93,44.93,0,0,1,17.1-24.63,55.94,55.94,0,0,1,24.84-9.88,73,73,0,0,1,23.66.77,83.46,83.46,0,0,1,20.91,7,106.29,106.29,0,0,1,9.35,5.1c1.59.94,2.91,1.8,4.12,2.62l3.8,2.52c20.11,13.44,38.5,27.63,58.33,38a120.82,120.82,0,0,0,31,11.58,100.67,100.67,0,0,0,33.89,1.13h0a2.58,2.58,0,0,1,1.38,4.92,93,93,0,0,1-36.55,8c-12.82.27-25.62-2.17-37.73-5.8-24.26-7.55-45.83-19.5-66.69-29.89l-3.89-2c-1.34-.69-2.6-1.3-3.64-1.72a70.66,70.66,0,0,0-6.68-2.64,61.9,61.9,0,0,0-13.22-2.8c-8.54-.92-16.37,1.36-19.56,4.18a8.05,8.05,0,0,0-2.69,4.15c-.49,1.57-.51,4.22.2,7.57a48.41,48.41,0,0,0,4.39,11.28,128.36,128.36,0,0,0,7.75,12.38l.57.84a17.91,17.91,0,0,1-27.64,22.59Z"/><path class="cls-2" d="M378.12,1872.47a56.14,56.14,0,0,1-25.62-3,66.79,66.79,0,0,1-22-14.63,167.56,167.56,0,0,1-16.72-19l-14.88-19.13a299.65,299.65,0,0,0-31.18-34.55c-11.11-10.58-23.22-19.58-36.06-28-13.54-9-26.61-17.38-40-24.84a303.4,303.4,0,0,0-40.9-19.08c-27.79-10.69-56.77-14.68-86.2-13.92h-.48a17.92,17.92,0,0,1-3.11-35.64c34.9-5.21,71.63,0,103.87,13.36,32.52,12.9,60.73,33.63,85.72,54a253.82,253.82,0,0,1,37,35.44c11.21,12.88,20.51,27.15,29,41.29s15.62,28.65,24.42,40.86a55.19,55.19,0,0,0,15.8,15.1,54.13,54.13,0,0,0,21.43,6.77h0a2.57,2.57,0,0,1,0,5.11Z"/><path class="cls-1" d="M1657,2336.37H597.26S596.1,2218,617,2042.11c3.72-31.55,8.17-65,13.51-99.94,23.38-154.1,63.13-337.38,130.83-519.54q15.27-41.12,32.48-82,13.71-32.46,28.68-64.57,10.92-23.51,22.61-46.8H1409.2q11.67,23.29,22.6,46.8,15.21,32.46,29,65.34,19.68,46.8,36.85,93.91c64.83,178,103.31,356.34,126.11,506.84,5.34,35.07,9.79,68.63,13.54,100.29C1658.13,2218.12,1657,2336.37,1657,2336.37Z"/><g class="cls-3"><path class="cls-2" d="M1657,2336.37H597.26S596.1,2218,617,2042.11c3.72-31.55,8.17-65,13.51-99.94,10.07-66.35,23.19-138.15,40.26-212.9,55.35,193.39,233.68,340.63,452.11,340.63h9.48c217.85,0,395.67-146.47,451.57-339.12,16.91,74.21,29.88,145.47,39.87,211.35,5.34,35.07,9.79,68.63,13.54,100.29C1658.13,2218.12,1657,2336.37,1657,2336.37Z"/></g><path class="cls-2" d="M1553.5,1588.31c27,58,44.57,119.33,58.16,181.28,7.42,30.87,12.67,62.18,18.28,93.4,2.66,15.63,4.86,31.34,7.31,47l3.67,23.5,3.24,23.55,6.37,47.13,5.82,47.19c3.45,31.51,6.77,63,9.36,94.65,5.26,63.31,8.91,126.28,9.16,190.51l.06,17.73H1118.1v-35.81h18v35.81H579.3l.07-17.73c.25-64.54,3.93-127.81,9.24-191.42s12.53-126.82,21.94-189.83l3.42-23.65,3.89-23.57c2.65-15.71,5.06-31.45,7.92-47.12,6-31.3,11.48-62.68,17.75-94,3.12-15.63,5.82-31.36,9.64-46.85s8-30.89,12.34-46.23a392.14,392.14,0,0,1,15.66-45.32,359.53,359.53,0,0,1,20.57-43.78,6.14,6.14,0,0,1,11.47,3.13v.18c-.62,32.69-6.85,63.53-12.63,94.52-3,15.45-6.27,30.84-10,46.12l-10.62,46c-14.62,61.23-24.62,123.48-34,185.73s-16.4,124.9-21.69,187.64-8.87,125.91-9.11,188.07l-17.91-17.73h538.87v35.81h-18v-35.81H1657l-17.9,17.73c-.23-61.86-3.83-124.86-9-187.18s-12.07-124.79-21.72-186.72l-3.49-23.24-4-23.16c-2.79-15.41-5.31-30.87-8.3-46.24-6.16-30.71-11.73-61.53-18.09-92.18-11.59-61.62-26-122.33-32.41-185.86v-.14a6,6,0,0,1,11.48-3.15Z"/><g class="cls-3"><path class="cls-2" d="M1124.2,1945.15q6.66,10.2,12.9,20C1132.91,1958.62,1128.6,1951.91,1124.2,1945.15Z"/></g><path class="cls-1" d="M874.11,1948.9c-65.66,26.58-167.27,21-236.55,12.63A74.39,74.39,0,0,1,573,1876.76h0a74.38,74.38,0,0,1,77-63.47c64.8,3,162,4.46,223.54-9.19"/><g class="cls-3"><path class="cls-2" d="M874.12,1948.88c-65.67,26.62-167.29,21-236.55,12.68a74.53,74.53,0,0,1-56.94-108.39,74.2,74.2,0,0,0,56.94,39.35c69.15,8.39,170.59,14,236.26-12.5Z"/></g><path class="cls-2" d="M743.57,1986.36c-38,0-75.8-3.14-108.16-7.06a92.33,92.33,0,0,1,15.39-183.88c67.51,3.15,160.27,4.19,218.82-8.8,9.3-2.06,32.43-2.15,46,41.51,13.73,44.16,12.16,118.35-34.8,137.36h0C842.25,1981.1,792.73,1986.36,743.57,1986.36Zm-97.15-155.25a56.53,56.53,0,0,0-6.71,112.65c99,12,179.84,7.91,227.68-11.46,13.78-5.58,17.9-27.93,19-37.29,4-33.5-6-64.82-12.49-72.69-62.46,13.06-156.4,12.07-224.81,8.86C648.22,1831.14,647.32,1831.11,646.42,1831.11ZM874.11,1948.9h0Z"/><path class="cls-1" d="M1612.85,1961.53c-32.5,3.93-72.17,7.25-111.88,6.88-2.73,0-5.43,0-8.16-.13s-5.77-.12-8.63-.25c-2,0-3.85-.12-5.72-.2l-6.75-.38c-2.86-.16-5.72-.37-8.54-.58H1463c-2.82-.2-5.68-.45-8.5-.74-1.86-.17-3.73-.38-5.55-.58-1.58-.13-3.15-.33-4.69-.5-2.44-.29-4.89-.62-7.25-1s-4.52-.67-6.72-1a6.27,6.27,0,0,1-1.32-.21c-2.62-.37-5.19-.83-7.71-1.32s-5.1-1-7.59-1.5l-.62-.12c-1.41-.33-2.82-.62-4.19-1-1.53-.34-3.07-.71-4.6-1.12h0c-4.69-1.16-9.29-2.49-13.76-3.9-2.41-.75-4.81-1.57-7.18-2.4s-4.68-1.74-6.92-2.66l.29-69.51.33-75.28c15.76,3.52,33.87,6,53.15,7.75,56,5.1,122.16,3.69,170.37,1.45,1.16,0,2.32-.08,3.52-.08a74.44,74.44,0,0,1,8.87,148.32Z"/><g class="cls-3"><path class="cls-2" d="M1612.86,1961.53c-32.5,3.93-72.17,7.25-111.88,6.88-2.74,0-5.43,0-8.17-.13s-5.76-.12-8.62-.25c-2,0-3.86-.12-5.72-.2l-6.76-.38c-2.86-.16-5.72-.37-8.54-.58H1463c-2.82-.2-5.68-.45-8.49-.74-1.87-.17-3.74-.38-5.56-.58-1.57-.13-3.15-.33-4.68-.5-2.45-.29-4.89-.62-7.26-1s-4.52-.67-6.71-1a6.37,6.37,0,0,1-1.33-.21c-2.61-.37-5.18-.83-7.71-1.32s-5.1-1-7.59-1.5l-.62-.12c-1.41-.33-2.82-.62-4.18-1-1.54-.34-3.07-.71-4.61-1.12h0c-4.68-1.16-9.28-2.49-13.76-3.9-2.4-.75-4.81-1.58-7.17-2.4s-4.68-1.75-6.92-2.66l.29-69.51,0-5c2.11.87,4.35,1.74,6.59,2.53s4.77,1.66,7.17,2.4c4.48,1.41,9.08,2.74,13.76,3.9h0c1.54.41,3.07.79,4.61,1.12,1.36.33,2.77.62,4.18,1l.62.13c2.49.54,5,1,7.59,1.49s5.1,1,7.71,1.33a7.1,7.1,0,0,0,1.33.2c2.19.38,4.43.71,6.71,1s4.81.66,7.26,1c1.53.17,3.11.38,4.68.5,1.82.21,3.69.41,5.56.58,2.81.29,5.67.54,8.49.75h.21c2.82.2,5.68.41,8.54.58l6.76.37c1.86.08,3.77.17,5.72.21,2.86.12,5.76.2,8.62.25s5.43.12,8.17.12c39.71.37,79.38-2.94,111.88-6.88a74.1,74.1,0,0,0,55.38-36.56,74.51,74.51,0,0,1-55.38,111.22Z"/></g><path class="cls-2" d="M1506.85,1986.36c-49.17,0-98.68-5.25-137.25-20.87h0c-47-19-48.53-93.2-34.8-137.36,13.57-43.67,36.69-43.6,46-41.51,58.55,13,151.32,12,218.83,8.8A92.33,92.33,0,0,1,1615,1979.3C1582.65,1983.22,1544.85,1986.36,1506.85,1986.36ZM1383,1932.3c47.84,19.37,128.69,23.44,227.68,11.46a56.53,56.53,0,0,0-9.41-112.58c-68.41,3.2-162.35,4.21-224.8-8.86-6.46,7.87-16.54,39.19-12.5,72.69,1.13,9.36,5.25,31.71,19,37.29Z"/><path class="cls-1" d="M1401.69,1756.25v232a78.53,78.53,0,0,1-78.29,78.29H896.06c-43,0-78.24-35.24-78.24-78.29v-232A78.48,78.48,0,0,1,896.06,1678H1323.4a78.47,78.47,0,0,1,78.29,78.24Z"/><g class="cls-3"><path class="cls-2" d="M1401.69,1756.25v232.06a78.52,78.52,0,0,1-78.3,78.26H896.05a78.45,78.45,0,0,1-78.22-78.22V1901.5c45.78,89,201.33,124,329.31,111.06,28.58-2.9,49-30.06,42.21-58a110.61,110.61,0,0,1-3.13-26.31c0-50.61,33.53-91.65,74.9-91.65,40,0,72.75,38.38,74.87,86.72,51.28-67,54-156.74,49.74-214.31A77.81,77.81,0,0,1,1401.69,1756.25Z"/></g><path class="cls-2" d="M1323.42,2084.47H896.07a96.26,96.26,0,0,1-96.15-96.15V1756.25a96.26,96.26,0,0,1,96.15-96.16h427.35a96.27,96.27,0,0,1,96.16,96.16v232.07A96.26,96.26,0,0,1,1323.42,2084.47ZM896.07,1695.89a60.43,60.43,0,0,0-60.35,60.36v232.07a60.42,60.42,0,0,0,60.35,60.35h427.35a60.41,60.41,0,0,0,60.35-60.35V1756.25a60.42,60.42,0,0,0-60.35-60.36Z"/><circle class="cls-4" cx="1261.14" cy="1872.28" r="67.48"/><path class="cls-1" d="M1328.63,1872.3a63.49,63.49,0,0,1-.87,10.75,67.48,67.48,0,0,0-133.24,0,63.49,63.49,0,0,1-.88-10.75,67.5,67.5,0,0,1,135,0Z"/><g class="cls-3"><path class="cls-2" d="M1328.61,1872.27a67.48,67.48,0,0,1-134.95,0,65.93,65.93,0,0,1,4.63-24.42,67.43,67.43,0,0,0,125.69,0A66.13,66.13,0,0,1,1328.61,1872.27Z"/></g><path class="cls-2" d="M1261.14,1953.19a80.91,80.91,0,1,1,80.91-80.91A81,81,0,0,1,1261.14,1953.19Zm0-135a54.06,54.06,0,1,0,54.06,54A54.11,54.11,0,0,0,1261.14,1818.23Z"/><path class="cls-2" d="M1069.9,2081.57a15,15,0,0,1-15-15v-112a92.71,92.71,0,0,0-36.75-73.68,122.81,122.81,0,0,1-48.71-97.64V1678a15,15,0,0,1,30,0v105.28a92.7,92.7,0,0,0,36.75,73.68,122.82,122.82,0,0,1,48.71,97.64v112A15,15,0,0,1,1069.9,2081.57Z"/><g class="cls-3"><path class="cls-2" d="M1613.42,1287.59c-126.62,159.17-315.25,253.7-520.18,238.73-178.32-13-334.74-106.51-442.72-246.62A209.81,209.81,0,0,1,778,1236.59h698.26A210.06,210.06,0,0,1,1613.42,1287.59Z"/></g><path class="cls-1" d="M1824.68,939.1h0a14.32,14.32,0,0,1-14.41-14.25L1808,512.06a14.33,14.33,0,0,1,14.25-14.41h0a150.35,150.35,0,0,1,151.19,149.5l.79,140.76A150.35,150.35,0,0,1,1824.68,939.1Z"/><path class="cls-2" d="M1824.6,942.47a17.69,17.69,0,0,1-17.7-17.6l-2.32-412.79a17.7,17.7,0,0,1,17.6-17.8,153.71,153.71,0,0,1,154.57,152.85l.8,140.76A153.71,153.71,0,0,1,1824.7,942.47h-.1ZM1823.07,501h-.85a11,11,0,0,0-10.91,11l2.33,412.79a11,11,0,0,0,11,10.91h.06a147,147,0,0,0,146.15-147.8L1970,647.17a147,147,0,0,0-147-146.15Z"/><g class="cls-3"><path class="cls-2" d="M1973.81,721.91l.38,66a150.41,150.41,0,0,1-149.52,151.2,14.35,14.35,0,0,1-14.41-14.28l-.66-109.73a14.35,14.35,0,0,0,13.09,8.42l9.79-.08A150.24,150.24,0,0,0,1973.81,721.91Z"/></g><path class="cls-2" d="M1824.59,957.85A33.08,33.08,0,0,1,1791.52,925l-2.32-412.79a33.08,33.08,0,0,1,32.89-33.27,169.11,169.11,0,0,1,170,168.14l.79,140.77a169.09,169.09,0,0,1-168.14,170h-.19Zm2.13-441.4L1829,920.26A131.6,131.6,0,0,0,1955.43,788l-.79-140.77a131.6,131.6,0,0,0-127.92-130.8Z"/><path class="cls-1" d="M459.67,505.31h0a14.33,14.33,0,0,1,14.41,14.25l2.32,412.79a14.32,14.32,0,0,1-14.25,14.41h0A150.35,150.35,0,0,1,311,797.26l-.79-140.76A150.36,150.36,0,0,1,459.67,505.31Z"/><path class="cls-2" d="M461.3,950.13c-84.37,0-153.23-68.38-153.71-152.85l-.79-140.76c-.47-84.75,68.1-154.1,152.85-154.58h0a17.87,17.87,0,0,1,12.55,5.12,17.55,17.55,0,0,1,5.25,12.48l2.32,412.79a17.69,17.69,0,0,1-17.6,17.8Zm-1.61-441.45c-81,.46-146.61,66.76-146.15,147.8l.79,140.76c.46,80.77,66.31,146.15,147,146.16h.83a11,11,0,0,0,10.91-11l-2.33-412.79a10.84,10.84,0,0,0-3.25-7.73,10.35,10.35,0,0,0-7.77-3.17Z"/><g class="cls-3"><path class="cls-2" d="M475.79,817.84l.63,114.51a14.37,14.37,0,0,1-14.28,14.42A150.29,150.29,0,0,1,311,797.29L310.64,738A150.42,150.42,0,0,0,448.1,825.51l15.07-.09A14.5,14.5,0,0,0,475.79,817.84Z"/></g><path class="cls-2" d="M461.29,965.51c-92.8,0-168.55-75.22-169.07-168.14l-.8-140.76c-.52-93.24,74.91-169.52,168.15-170h0a33.08,33.08,0,0,1,33.26,32.9l2.32,412.79a33.07,33.07,0,0,1-32.89,33.26Zm-5.93-441.35c-70.51,2.73-126.84,61.15-126.44,132.24l.79,140.76C330.11,868.24,387.1,926,457.63,928Z"/><circle class="cls-1" cx="1142.26" cy="722.21" r="703.44"/><path class="cls-2" d="M1143.27,1429.05q-23.52,0-47.18-1.54C707.19,1402.05,411.51,1064.94,437,676S799.47-8.53,1188.43,16.91,1873,379.47,1847.56,768.37c-12.33,188.4-97.29,360.71-239.22,485.2C1478.3,1367.64,1314.66,1429.05,1143.27,1429.05ZM1141.79,22.12c-365.37,0-673.9,284.63-698.1,654.36-25.22,385.19,267.65,719.09,652.84,744.31,15.47,1,30.91,1.51,46.2,1.51,365.37,0,673.9-284.64,698.11-654.36C1866.05,382.74,1573.18,48.85,1188,23.63,1172.52,22.62,1157.08,22.12,1141.79,22.12Z"/><g class="cls-3"><path class="cls-2" d="M1843.83,670.55a699.79,699.79,0,0,1,.38,97.61c-25.43,387.66-360.25,681.35-747.91,656S415,1063.92,440.3,676.26c.72-11.15,1.71-22.29,3-33.24,25,344.79,300.93,627.06,655.63,650.29C1475.4,1317.93,1802,1041.62,1843.83,670.55Z"/></g><path class="cls-2" d="M1142.75,1444.41q-23.7,0-47.66-1.56C697.72,1416.84,395.6,1072.4,421.61,675S792-24.45,1189.43,1.56,1888.92,372,1862.91,769.38C1837.94,1150.76,1519.63,1444.41,1142.75,1444.41Zm-1-1406.91c-357.35,0-659.1,278.38-682.77,640-24.66,376.73,261.77,703.29,638.51,728,15.13,1,30.23,1.48,45.18,1.48,357.35,0,659.1-278.38,682.77-640C1850.15,390.2,1563.72,63.64,1187,39,1171.85,38,1156.75,37.5,1141.8,37.5Z"/><path class="cls-2" d="M1840.77,786c-6.91,137.48-58,262.87-139.6,364.63-61.2,76.29-303.39,203-594,191-269.43-11.13-507.24-167-560.48-249.09-71-109.44-109.22-239.32-102.3-376.8C462.71,352,782.86,216.89,1168.48,236.29S1859.07,422.23,1840.77,786Z"/><path class="cls-2" d="M1147,1361.26c-13.4,0-26.9-.27-40.58-.83C827.09,1348.89,586.94,1189,531,1102.8,455.2,986,418.79,851.86,425.68,714.85c9-178.63,87.55-312.76,233.51-398.67,127.26-74.9,303.68-109,510.23-98.62s378.65,62,497.75,149.33C1803.78,467,1868.48,608.35,1859.5,787h0c-6.9,137-56.59,266.83-143.7,375.42C1658.05,1234.39,1435.56,1361.26,1147,1361.26Zm-45.39-1107.9c-226.08,0-618.13,58.85-638.48,463.38-6.49,129.08,27.85,255.52,99.31,365.65,50.73,78.19,282.8,229.72,545.53,240.57,291.26,12.07,524.05-116,578.58-184,82.15-102.41,129-224.76,135.5-353.84,8.31-165.25-51.26-295.78-177-388C1531.83,314.18,1366.72,265,1167.53,255,1147.88,254,1125.67,253.36,1101.61,253.36ZM1840.77,786h0Z"/><g class="cls-5"><ellipse class="cls-1" cx="1616.35" cy="725.2" rx="124.49" ry="90.21" transform="translate(542.43 2134.17) rotate(-76.85)"/></g><g class="cls-5"><ellipse class="cls-1" cx="1493.59" cy="965.93" rx="57.14" ry="49.03" transform="translate(54.87 2011.85) rotate(-68.91)"/></g><g class="cls-3"><path class="cls-6" d="M1722.05,439.81c81.26,85.73,126,200.09,118.72,346.21-6.92,137.5-58,262.88-139.58,364.65-61.22,76.29-303.43,203-594,191-102.6-4.2-200.59-29.44-285.58-63.64,357.5,7.1,652.59-148.55,728.49-243.17,103.62-129.16,168.4-288.33,177.15-462.78A712,712,0,0,0,1722.05,439.81Z"/></g><path class="cls-2" d="M1796.78,482.31a18.27,18.27,0,0,1-12.61-5l-1.86-1.67-1.06-1.84c-109.93-171.79-333.7-278.4-613.94-292.5-281.77-14.14-515.06,72.54-640,237.89L526,420.73A18.15,18.15,0,0,1,500.26,422a18.49,18.49,0,0,1-1.85-25.39c132.45-174.9,376.87-266.75,670.74-251.95,291.76,14.68,525.83,127.09,642.41,308.47a18.33,18.33,0,0,1-14.78,29.16Z"/><g class="cls-5"><path class="cls-1" d="M590.32,940.11s-94.63-364.57,106-497.86,478.87-118.71,471.46-101.19c0,0-311.83,59.08-444.62,296.57C620.75,820.77,590.32,940.11,590.32,940.11Z"/></g><path class="cls-1" d="M1161.42,2520.13s-440.67,49.93-636.54-118.37c-267.61-229.93-38.15-518.08,160.64-441.32,173.07,66.83,244.25,119.38,551.66,169.77,257.61,42.22,478.87,306.67,294,460.17C1400.71,2698.75,1161.42,2520.13,1161.42,2520.13Z"/><g class="cls-3"><path class="cls-2" d="M1531.19,2590.38c-130.49,108.38-369.77-70.24-369.77-70.24s-440.67,49.92-636.56-118.37c-77.13-66.29-113-137.43-120.12-203.23a439.31,439.31,0,0,0,46.13,45.63c195.9,168.34,636.56,118.36,636.56,118.36s239.28,178.68,369.78,70.3c51-42.39,71.14-93.21,68-145.53C1611,2384.2,1634.48,2504.61,1531.19,2590.38Z"/></g><path class="cls-2" d="M1426.71,2643.32c-115.94,0-241.48-84.23-270.24-104.67-59.53,5.94-455,38.41-643.26-123.31-152.44-131-147.88-276-92.79-368.12,58.67-98.06,172.88-141.58,271.55-103.48,38.37,14.82,71.54,28.84,103.63,42.4,111,46.93,206.85,87.45,444.48,126.4,171.11,28.05,333.54,154.54,369.79,288,21.13,77.79-2.74,150.11-67.22,203.66C1508.49,2632.52,1468.21,2643.31,1426.71,2643.32Zm-260.27-141.78,5.69,4.24c1.76,1.31,138.13,101.64,254.46,101.65,34.08,0,66.42-8.6,93.18-30.82,53.83-44.7,73-102.35,55.55-166.72-32.87-121-182.67-236.06-341-262-241.84-39.63-339.53-80.93-452.64-128.75-31.82-13.46-64.73-27.37-102.57-42-82.39-31.81-178.24,5.39-227.94,88.47-47.6,79.56-50.16,206.08,85.41,322.57,187.77,161.34,618.53,114.65,622.86,114.16Z"/><path class="cls-2" d="M749.81,2514.27a12.5,12.5,0,0,1-5.89-23.53c184.94-98.58,133-442,132.42-445.47a12.5,12.5,0,0,1,24.7-3.91c2.34,14.84,55.12,364.57-145.37,471.44A12.39,12.39,0,0,1,749.81,2514.27Z"/><path class="cls-1" d="M1075.43,2520.13s440.67,49.93,636.54-118.37c267.61-229.93,38.15-518.08-160.64-441.32-173.07,66.83-244.25,119.38-551.66,169.77-257.6,42.22-478.87,306.67-294,460.17C836.14,2698.75,1075.43,2520.13,1075.43,2520.13Z"/><g class="cls-3"><path class="cls-2" d="M1712,2401.77c-195.84,168.29-636.51,118.37-636.51,118.37s-239.33,178.62-369.82,70.24c-63.4-52.67-79-118.42-61.71-183.71,9.44,31.9,18.7,80.95,51.94,106.75,101.34,78.65,213.42,43.85,283.68-18.46,53.32-47.3,44.62-86,78.84-105.28,38.39-21.59,92.87,58.22,212.76,64.46,225.53,11.74,379.38-55.08,451.95-129.21,63.12-64.49,93.21-139.17,105.44-198.53C1846.2,2209.67,1818.4,2310.32,1712,2401.77Z"/></g><path class="cls-2" d="M810.14,2643.32c-41.51,0-81.77-10.79-115.94-39.16-64.48-53.55-88.35-125.87-67.22-203.66,36.25-133.42,198.69-259.91,369.79-288,237.63-38.95,333.49-79.47,444.49-126.4,32.08-13.56,65.26-27.59,103.62-42.4,98.68-38.11,212.88,5.42,271.56,103.48,55.09,92.08,59.64,237.14-92.8,368.12-188.21,161.72-583.73,129.25-643.26,123.31C1051.63,2559.09,926.08,2643.32,810.14,2643.32Zm808.48-677.47a168.37,168.37,0,0,0-60.84,11.29c-37.84,14.61-70.75,28.52-102.58,42-113.11,47.82-210.79,89.12-452.64,128.75-158.36,26-308.16,141.05-341,262-17.48,64.37,1.72,122,55.55,166.72,118.12,98.09,345.36-69.13,347.65-70.83l5.67-4.23,7,.79c4.34.49,435.23,47.07,622.87-114.16,135.57-116.49,133-243,85.4-322.57C1748,2002.49,1683.52,1965.85,1618.62,1965.85Z"/><path class="cls-2" d="M1487.05,2514.27a12.4,12.4,0,0,1-5.87-1.47c-200.49-106.87-147.71-456.6-145.36-471.44a12.5,12.5,0,0,1,24.69,3.9c-.55,3.46-52.35,347,132.43,445.48a12.5,12.5,0,0,1-5.89,23.53Z"/><g class="cls-7"><path class="cls-8" d="M2248.75,1893.47v3.28h-9.42C2242.52,1895.74,2245.66,1894.63,2248.75,1893.47Z"/></g><path class="cls-9" d="M2019.15,1753.85a189.69,189.69,0,0,0,189.73,189.73h181.94L2326,1564.11H2208.88C2104.11,1564.11,2019.15,1649.08,2019.15,1753.85Zm55.64,0c0-63.37,70.78-114.73,134.09-114.73h53.81l39.21,229.45h-93a114.47,114.47,0,0,1-81.11-33.61C2107,1814.21,2074.79,1785.55,2074.79,1753.85Z"/><g class="cls-3"><path class="cls-2" d="M2019.15,1753.83a189.69,189.69,0,0,0,189.71,189.75h182l-6.06-35.43h-175.9a189.7,189.7,0,0,1-188.88-172Q2019.16,1744.86,2019.15,1753.83Zm276.72,79.28h6.05l-39.23-229.45h-53.83c-63.29,0-91.2,33.56-128.76,98.53-3,5.24-6.23,28.16-5.31,33.94,8.5-54.94,76.78-97,134.07-97h53.83Z"/></g><path class="cls-2" d="M2412,1961.48H2208.88a207.6,207.6,0,0,1-207.64-207.63c0-114.49,93.15-207.64,207.64-207.64h132.18ZM2208.88,1582c-94.75,0-171.83,77.09-171.83,171.84a171.79,171.79,0,0,0,171.83,171.83h160.71L2310.85,1582Zm114.24,304.46H2208.88c-61.09,0-152-35.32-152-132.62,0-83,77.28-132.62,152-132.62h68.91ZM2208.88,1657c-56.32,0-116.19,33.93-116.19,96.82,0,95.71,115,96.82,116.19,96.82h71.8L2247.59,1657Z"/><path class="cls-9" d="M2300.72,1937.2c17.64,37.27,52.81,63.56,93.7,68.9a524.57,524.57,0,0,0,135.83,0c41.07-5.35,76.23-31.92,93.92-69.37a665.22,665.22,0,0,0,63.73-284.16c0-14.12-.4-28.19-1.32-42.31l-6.72-106.46c0,22.68-97.38,41.06-217.56,41.06s-217.5-18.38-217.5-41.06L2238,1610.25A665.85,665.85,0,0,0,2300.72,1937.2Z"/><path class="cls-10" d="M2521.65,1789.36c-7.86-15.73-19.66-28.29-31.91-40.64a131.34,131.34,0,0,1-16.85-20.57,98.15,98.15,0,0,1-13.89-32.24,81.4,81.4,0,0,1-1.58-8.94,96.84,96.84,0,0,1-.82-12.4c0-4.45,1.26-6.43,5.69-7.38a52.74,52.74,0,0,1,23.5.14h0a57.78,57.78,0,0,1,16,6.53c37.81,22.17,60.62,72.76,52.17,115.81-3,15.49-9.14,29.53-22.88,39.9A86,86,0,0,0,2521.65,1789.36Z"/><path class="cls-10" d="M2438.72,1678.62A109.23,109.23,0,0,0,2454,1733c7.35,12.53,17.06,23.82,28.37,34.32a104.79,104.79,0,0,1,15.3,18.32c9.8,14.49,16,30.09,15.66,48-.1,4.77-1.86,6.85-6.4,7.83-14.38,3.11-27.8.39-40.2-6.85-25.26-14.78-43.44-42.5-50.2-72.18a107.8,107.8,0,0,1-1.21-43.87,2.79,2.79,0,0,1,.07-.38,88.54,88.54,0,0,1,2.26-9.15C2421.28,1697.09,2427.44,1686.56,2438.72,1678.62Z"/><g class="cls-11"><path class="cls-1" d="M2687.89,1652.54a665.34,665.34,0,0,1-63.74,284.2,123.79,123.79,0,0,1-28,38.18,665.39,665.39,0,0,0,58.68-273.19c0-14.14-.41-28.2-1.3-42.29l-3.72-58.37a31.82,31.82,0,0,0-38.71-29.13c-44.53,10.29-121.42,14-176,5.23-51.69-8.32-100.7-26.4-143.62-47.93,39.87,9.49,101.55,15.62,170.79,15.62,120.17,0,217.55-18.39,217.55-41.09l6.72,106.48C2687.48,1624.39,2687.89,1638.45,2687.89,1652.54Z"/></g><g class="cls-3"><path class="cls-2" d="M2302.13,1940.17c16.95,35.34,50.23,60.19,89.06,65.49a526.54,526.54,0,0,0,142.31,0,115,115,0,0,0,88.08-63.53c.08-.18.17-.36.25-.53-.32.6-.69,1.24-1.06,1.85a525.46,525.46,0,0,1-131.4,16.72H2488c-82.16-.21-155.62-52.4-183.83-129.57a666.45,666.45,0,0,1-39.16-270.69l2.4-37.89c-14.51-5.5-22.64-11.69-22.64-18.25L2238,1610.22A665.82,665.82,0,0,0,2302.13,1940.17Z"/></g><path class="cls-1" d="M2244.8,1503.79c0,22.68,97.39,41.06,217.5,41.06s217.56-18.38,217.56-41.06-97.38-41.11-217.56-41.11S2244.8,1481.11,2244.8,1503.79Z"/><path class="cls-1" d="M2244.8,1503.77c0,7.5,10.6,14.5,29.11,20.55,37.6,12.26,107.87,20.51,188.38,20.51s150.83-8.25,188.49-20.51c18.5-6,29.1-13,29.1-20.55,0-22.65-97.41-41.11-217.59-41.11S2244.8,1481.12,2244.8,1503.77Z"/><path class="cls-12" d="M2277,1524.3c37.61,12.25,107.87,20.5,188.39,20.5s150.83-8.25,188.48-20.5c-37.65-12.3-108-20.55-188.48-20.55S2314.57,1512,2277,1524.3Z"/><path class="cls-2" d="M2462.3,2028.41a545.71,545.71,0,0,1-73.13-5c-44.88-6.1-83.53-34.49-103.37-75.94a685.32,685.32,0,0,1-65.64-338.41l6.78-106.45,35.77,1.13a8.3,8.3,0,0,0-1.52-5c8.53,9.52,78.35,28.2,201.11,28.2s192.64-18.68,201.17-28.2a8.39,8.39,0,0,0-1.51,5l35.77-1.12,6.71,106.45c.92,14,1.36,28.25,1.36,43.44a687.2,687.2,0,0,1-67.88,296.91,133.12,133.12,0,0,1-102.39,74A545.44,545.44,0,0,1,2462.3,2028.41Zm-201.77-489.84-4.64,72.81a649.42,649.42,0,0,0,62.21,320.68h0c14.62,30.54,43,51.45,75.9,55.92a509.14,509.14,0,0,0,136.7,0,97.42,97.42,0,0,0,75-54.06A651.25,651.25,0,0,0,2670,1652.56c0-14.41-.42-27.87-1.29-41.15l-4.59-72.84c-11.65,4.51-26.46,8.41-44.65,11.85-42.15,7.95-98,12.33-157.17,12.33s-115-4.38-157.11-12.33C2287,1547,2272.17,1543.08,2260.53,1538.57Z"/><path class="cls-2" d="M2462.3,1562.75c-59.18,0-115-4.38-157.11-12.33-54.14-10.22-78.29-24.6-78.29-46.63s24.14-36.41,78.28-46.65c42.16-8,98-12.36,157.12-12.36s115,4.39,157.17,12.36c54.15,10.24,78.29,24.63,78.29,46.65s-24.15,36.41-78.29,46.63C2577.32,1558.37,2521.51,1562.75,2462.3,1562.75Zm-192.62-59c23.21,9.87,89.09,23.16,192.62,23.16s169.47-13.29,192.68-23.16c-23.21-9.9-89.11-23.21-192.68-23.21S2292.89,1493.89,2269.68,1503.79Z"/><path class="cls-1" d="M1939,1630.38c-15.69,53.63,1.58,104.27,32.56,117.31,65.18,27.44,112.33-99.73,112.33-99.73s-21.9-91.9-64.85-90.38C1988.58,1558.66,1953.22,1581.86,1939,1630.38Z"/><g class="cls-3"><path class="cls-2" d="M2083.93,1648s-47.15,127.2-112.34,99.74c-31-13-48.28-63.67-32.57-117.3a123.2,123.2,0,0,1,12.45-28.88c-1.42,39.1,14.39,71.77,38.39,81.85,37.5,15.81,69-19.6,89-52.5C2082.27,1640.94,2083.93,1648,2083.93,1648Z"/></g><path class="cls-2" d="M1990.07,1770.47a66.35,66.35,0,0,1-25.84-5.32c-42.12-17.74-61.18-79.27-43.38-140.08h0c18.11-61.87,63.86-85.22,97.54-86.41,55.61-1.8,79.68,87,83.94,104.91l1.33,5.59-2,5.38c-3.33,9-34,88.23-84.7,110.21A67.35,67.35,0,0,1,1990.07,1770.47ZM1957.2,1635.7c-13.12,44.81.92,85.78,21.72,94.54,7.75,3.26,15,3.19,23-.23,28.14-12.16,52.6-60,62.16-83.27-8.48-30.87-27.63-70.93-44.32-70.23-22.74.8-50.89,19.42-62.53,59.19Z"/><path class="cls-1" d="M2200.4,1620.53s-60.11-98.46-145-49.14c-66,38.34-56.17,181.43-49.43,213.82,24.12,116,108.31,183.08,172.3,82.11C2181.29,1862.5,2212.8,1745.34,2200.4,1620.53Z"/><g class="cls-3"><path class="cls-2" d="M2178.23,1867.32c-64,101-148.17,33.89-172.32-82.09-3.31-15.9-7.33-58.51-2.79-102.3.85,8.38,1.85,15.15,2.79,19.7,24.15,116,105.14,125.66,172.32,82.13,3.42-2.22,18.93-64.43,23.76-144.62C2209.56,1757.35,2181.16,1862.73,2178.23,1867.32Z"/></g><path class="cls-2" d="M2108.42,1935.61a73.51,73.51,0,0,1-13.15-1.18c-49-8.92-91.37-66-107.88-145.36-6.11-29.37-20.51-188.2,58.46-234,79.85-46.38,146.58,16.12,170.72,55.64l2.25,3.69.43,4.31c12.27,123.61-17.88,247.53-25,258.8C2163.83,1925.42,2130.89,1935.61,2108.42,1935.61Zm-5.49-358.83c-11.82,0-24.58,3.16-38.07,11-54,31.34-47.08,161.45-40.39,193.59,12.94,62.23,44.84,109.85,77.58,115.81,25.29,4.6,46.07-18.14,59.33-38.63,5-14.78,30.72-120,20.62-231.54C2173.72,1615,2144.08,1576.78,2102.93,1576.78Zm59.31,280.41c-.07.11-.16.24-.25.4C2162.07,1857.45,2162.15,1857.32,2162.24,1857.19Z"/><path class="cls-2" d="M1717.38,1940.67A12.5,12.5,0,0,1,1705,1930c-36.08-251.93,92.52-341.5,98-345.19a12.5,12.5,0,0,1,14,20.72c-1.34.92-120.94,85.68-87.25,320.92a12.49,12.49,0,0,1-10.6,14.15A12,12,0,0,1,1717.38,1940.67Z"/><g class="cls-11"><path class="cls-1" d="M2439.22,1032.79l-35.39,2.28a42.42,42.42,0,0,0-28.72,14.58,40.57,40.57,0,0,0-9.71,29.21,38.17,38.17,0,0,0,13.35,26.39,38.76,38.76,0,0,0,27.29,9.2l35.46-1.19c23.63-.89,47.27-1.3,70.9-1.91s47.27-1.3,70.91-1.53l8.86-.13c1.6,0,3.82.1,5.7.19s3.91.48,5.85.82a54.14,54.14,0,0,1,21.51,9.6,53.32,53.32,0,0,1,2.16,83.77,55,55,0,0,1-33.45,12.55c-1.11.06-1.82.06-2.54.06l-2.22,0-4.43,0-70.9.29q-70.91.12-141.81-.5l-35.46-.42-2.21,0-1.51,0a15.75,15.75,0,0,0-2.74.23,23,23,0,0,0-5.28,1.41A23,23,0,0,0,2311,1234a23.56,23.56,0,0,0,15.39,27.27c3.82,1.46,6.88,1.53,13.63,1.66l17.72.43,35.46.86c23.63.47,47.27,1.47,70.9,2.21,14.26.1,28.73,7.55,36.57,19.42a43,43,0,0,1,4.49,40.07,41.51,41.51,0,0,1-29.5,25.26,39.86,39.86,0,0,1-9.77,1c-3.16-.05-6-.27-9-.41l-17.72-.92,2.46-2.46-2.46,39.45-2.46-39.45a2.31,2.31,0,0,1,2.16-2.44h.3l17.72-.93c2.91-.17,6-.25,8.76-.51a31.43,31.43,0,0,0,7.73-1.59c9.92-3.27,17.87-11.39,20.61-20.93a29.59,29.59,0,0,0-29.92-38.17c-23.63.74-47.27,1.75-70.9,2.21l-35.46.86-17.72.43c-3.09,0-5.45.25-9.8,0a49.19,49.19,0,0,1-44.27-34.6,49.78,49.78,0,0,1,8.65-45.88,50.72,50.72,0,0,1,30.76-18.35,44.32,44.32,0,0,1,6.06-.72l2.93-.14,2.21,0,35.46-.42q70.89-.6,141.81-.49l70.9.28,4.43,0h2.22c.76,0,1.53,0,1.89,0a24.49,24.49,0,0,0,5.54-.68,25.54,25.54,0,0,0,10-4.83,25.12,25.12,0,0,0-.14-39.46,26.83,26.83,0,0,0-10.44-5.08l-2.9-.51-3.16-.2-8.86-.13c-23.64-.24-47.27-1-70.91-1.53s-47.27-1-70.9-1.91l-35.46-1.19c-13.63-.18-27.73-5.8-37.21-15.68a51.21,51.21,0,0,1-14.86-36.62,49.06,49.06,0,0,1,15.27-35.14,48.42,48.42,0,0,1,34.46-13.37C2415.64,1031.25,2427.37,1032,2439.22,1032.79Z"/></g></g></g></svg>