<svg xmlns="http://www.w3.org/2000/svg" viewBox="0 0 2411.16 3435.84"><defs><style>.cls-1{fill:#fff;}.cls-2{opacity:0.35;}.cls-3{fill:#371a45;}.cls-4{fill:#22a7f0;}.cls-5{fill:#848484;}.cls-6{opacity:0.7;}.cls-7{opacity:0.5;}.cls-8{fill:#111a28;}.cls-9{fill:#e2e2e2;}.cls-10{opacity:0.3;}.cls-11{fill:#999;}.cls-12{fill:#945cc6;}.cls-13{fill:#b8c5d3;}.cls-14{fill:#102770;}.cls-15{fill:#7a7a7a;}.cls-16{fill:#00c9ff;}.cls-17{fill:#ffce00;}.cls-18{fill:#fff5a4;}</style></defs><g id="Layer_2" data-name="Layer 2"><g id="Layer_1-2" data-name="Layer 1"><path class="cls-1" d="M1036.6,2438.83l101.69,121.1,40.91,48.74c151-97.4,204.63-217.63,201.42-324.13a301.24,301.24,0,0,0-39.95-140.95c-76.49-133.19-216.68-198.44-276.39-89.11-64.34,117.86,20.68,174.55,45.15,211.06C1143.83,2316.84,1127.09,2409.62,1036.6,2438.83Z"/><g class="cls-2"><path class="cls-3" d="M1138.29,2559.93l40.91,48.74c151-97.4,204.63-217.63,201.42-324.13C1356.46,2361.64,1291.36,2509.4,1138.29,2559.93Z"/></g><path class="cls-3" d="M1179.21,2624a15.29,15.29,0,0,1-8.3-28.14c221.84-143.12,223-329,156.51-444.61-46.32-80.63-118.9-136.65-176.86-136.65h-1c-30.76.33-54.95,16.23-71.88,47.25-48,87.92-5.24,136.8,26,172.48,7,8,13.6,15.54,18.42,22.73,20.24,30.2,24.77,72.15,11.81,109.5-14.36,41.36-47.25,72.19-92.63,86.83a15.29,15.29,0,1,1-9.39-29.1c36-11.63,62-35.69,73.12-67.76,9.88-28.46,6.7-60.05-8.31-82.44-3.73-5.55-9.43-12.07-16-19.61-33-37.64-88.08-100.63-29.84-207.29,22.32-40.87,56.35-62.71,98.4-63.17,69.7-.71,152,60.32,204.68,152a314.49,314.49,0,0,1,31.91,237c-24.59,94.77-93.18,180.72-198.37,248.58A15.22,15.22,0,0,1,1179.21,2624Z"/><path class="cls-3" d="M1260.93,2418.46q-3.78,0-7.56-.11c-57.53-1.74-107.3-22.68-140.14-59a12.64,12.64,0,1,1,18.75-17c38,42,92.85,49.79,122.15,50.67,49.44,1.51,91.82-13.09,106.6-27.57a12.64,12.64,0,0,1,17.7,18.06C1357.06,2404.5,1309.52,2418.46,1260.93,2418.46Z"/><path class="cls-1" d="M435.89,2547.52c-51,73.53-32.52,336.65,31.32,475.92s322.87,65,467.38,11.73,34.06-383.43,2.69-471.27C888.29,2426.74,511.43,2438.58,435.89,2547.52Z"/><g class="cls-2"><path class="cls-3" d="M934.59,3035.17c-144.51,53.32-403.53,127.51-467.4-11.74a503.12,503.12,0,0,1-22.66-60.37c50.9,18.29,97.71-28.65,91.58-69.68-37.85-253.33,20.71-374.88,53.37-420.68,137.55-25.33,315.23,0,347.78,91.22C968.65,2651.73,1079.11,2981.86,934.59,3035.17Z"/></g><path class="cls-3" d="M630.74,3118.73c-81.2,0-147.59-23.81-177.43-88.92-67.52-147.28-83.77-413.43-30-491h0c51.58-74.39,218.59-102.56,343.74-86C866.42,2466,932,2503.6,951.67,2558.76c57.33,160.51,132,437.7-11.79,490.76C839.69,3086.48,725.19,3118.73,630.74,3118.73ZM448.46,2556.24c-47.23,68.11-28.92,326.52,32.65,460.83,57.69,125.85,305.57,56.37,448.19,3.76,127-46.86,27.19-357.65-6.42-451.79-15.43-43.19-73.68-74.49-159.82-85.9-131-17.37-275.1,16.13-314.6,73.1Z"/><path class="cls-1" d="M531,2785.2l-73.43-4.26a27.62,27.62,0,0,0-29.2,29.4c3.87,57.07,19.14,172.95,79.43,177.64,73.06,5.69,71.17-75.78,48.62-181.06A27.61,27.61,0,0,0,531,2785.2Z"/><g class="cls-2"><path class="cls-3" d="M556.19,2806.8C579,2912,581.06,2993.51,508,2988c-30-2.24-48.93-32.11-60.83-68.55,8.81,8.64,19.15,14.15,31.37,15.06,65.41,4.93,70.62-59.87,54.56-149.06A27.36,27.36,0,0,1,556.19,2806.8Z"/></g><path class="cls-3" d="M514.79,3000.88q-3.78,0-7.75-.3c-68.43-5.17-86.7-120.74-91.49-189.18a40.27,40.27,0,0,1,42.45-43l73.44,4.09a40.34,40.34,0,0,1,37.12,31.62c20.75,95.83,19.17,148.69-5.28,176.76C551.71,2994.17,535.42,3000.88,514.79,3000.88Zm-59.08-207.23a15,15,0,0,0-14.94,16c7.09,101.08,32.57,163,68.18,165.73,16.17,1.2,27.7-2.41,35.26-11.09,26.55-30.48,6.3-124.05-.36-154.8A15,15,0,0,0,530,2797.76l-73.44-4.09C456.3,2793.65,456,2793.65,455.71,2793.65Z"/><path class="cls-3" d="M425.5,2557.08c9.11,1,17.86,2.06,26.74,3.27s17.65,2.53,26.43,4c17.56,2.9,35,6.27,52.15,10.64-17.64.67-35.09,2.37-52.46,4.53q-13,1.65-26,3.63c-8.59,1.32-17.31,2.73-25.67,4.29a15.33,15.33,0,1,1-1.31-30.33Z"/><path class="cls-1" d="M1086.79,2473.17l-35.55-106A797.17,797.17,0,0,0,1086.79,2473.17Z"/><path class="cls-1" d="M1481.21,3159.25s-71.5-49.78-149.71-82.75c-51.29-21.63-105.44-36-144.24-24.44,0,0-306.32,199.42-483-187.3-56.06-122.67-71.86-215.79-61.57-286.41a242.9,242.9,0,0,1,5.85-28.43,212.76,212.76,0,0,1,9.26-27.26,203.89,203.89,0,0,1,39.56-61.43,234.6,234.6,0,0,1,41.07-34.6c138.47-92.35,373.69-57.27,373.69-57.27q3.77,26.34,8.62,50.95c6.08,31.15,13.32,60.21,21.37,87.27q3.48,11.7,7.14,22.85c28.73,87.76,65.41,152.5,95.7,196,32.57,46.81,57.77,69.11,57.77,69.11,212.52-43.89,258.41,134.45,258.41,134.45s150.64-102.32,152.61,39.31C1715.17,3074.09,1566.05,3211.94,1481.21,3159.25Z"/><g class="cls-2"><path class="cls-3" d="M1481.21,3159.25s-196-136.47-294-107.19c0,0-306.32,199.42-483-187.3-56.06-122.67-71.86-215.79-61.57-286.41a229.67,229.67,0,0,1,15.11-55.69,208.63,208.63,0,0,1,9.07-19.1Q665,2512,663.66,2521c-10.3,70.63,5.51,163.75,61.57,286.41,176.73,386.73,472.59,149.66,472.59,149.66,166.66-54.15,225.3,122.93,294.35,154.62s174.94-38.9,219.73-120.2C1694.83,3092.27,1560.17,3208.28,1481.21,3159.25Z"/></g><path class="cls-3" d="M1163.17,2551.67c10.16,21.33,19.82,42.7,30.78,63.39l8.1,15.54c2.73,5.17,5.73,10.18,8.49,15.31,5.46,10.31,11.73,20.14,17.52,30.23q18.35,29.68,38.91,57.69c6.86,9.3,14,18.36,21.46,27.14,3.61,4.48,7.42,8.77,11.21,13s7.85,8.54,11.4,12.06l-10.93-2.9h0c27.21-5.63,55.35-8.36,83.63-6.54,28.22,1.65,56.63,8.49,82.44,21.26,25.93,12.53,48.64,31.35,66.7,53.44a220.79,220.79,0,0,1,23.72,35.51c3.43,6.24,6.47,12.68,9.28,19.25,1.41,3.28,2.72,6.61,4,10s2.33,6.62,3.47,10.75l-19.35-7.31a285.77,285.77,0,0,1,50.9-26.45,180.11,180.11,0,0,1,28-8.64,108.44,108.44,0,0,1,30.76-2.52c10.67.78,22.13,3.93,31.83,10.65s16.83,16.36,21.19,26.15a101.55,101.55,0,0,1,8.13,29.83l.91,7.41.37,7.32a130.75,130.75,0,0,1,0,14.95c-1.18,20.15-6.86,39.2-14.38,57a260.5,260.5,0,0,1-29,49.54,287.17,287.17,0,0,1-38.17,42.33,264.65,264.65,0,0,1-46.16,34c-16.86,9.36-35.06,17.23-55,20.59a111.64,111.64,0,0,1-30.67,1.19,92.22,92.22,0,0,1-30.39-8.66l-7.22-3.92a15.09,15.09,0,0,1-1.81-1.13l-1.35-.93-2.77-1.87L1458,3159q-11.31-7.3-22.85-14.32-23.07-14-46.81-26.79c-31.66-16.91-64.25-32.17-97.79-43.34-16.75-5.52-33.77-10-50.74-12.33s-33.87-2.13-48.87,2l-.51.14a12.64,12.64,0,0,1-6.73-24.37c20.18-5.59,40.46-5.51,59.5-2.82s37.47,7.51,55.29,13.38c35.61,11.87,69.22,27.68,101.79,45.06q24.4,13.09,48,27.47,11.8,7.2,23.44,14.69l11.59,7.63,2.9,1.95,1.46,1a5.73,5.73,0,0,0,1.1.66l4.8,2.56a67.15,67.15,0,0,0,21.87,6.19,86.77,86.77,0,0,0,23.73-1c16-2.66,31.87-9.36,46.76-17.64,29.61-17.22,55.91-41.44,76.5-69.38a235.77,235.77,0,0,0,26.1-44.57c6.63-15.68,11.4-32.11,12.34-48.38a106.12,106.12,0,0,0,0-12.35l-.3-6.32-.77-6.15a77,77,0,0,0-6-22.67c-3-6.76-7.2-12.26-12.56-15.89s-12-5.71-19.43-6.26c-15-1.07-31.75,3.26-47.61,9.48a262.43,262.43,0,0,0-45.91,23.83l-14.66,9.54-4.69-16.85c-.65-2.35-1.71-5.6-2.76-8.43s-2.21-5.86-3.46-8.76c-2.48-5.8-5.19-11.55-8.25-17.1a195.78,195.78,0,0,0-21.06-31.54c-16-19.5-35.71-35.85-58.31-46.76-22.48-11.11-47.42-17.21-72.88-18.7-25.47-1.64-51.4.8-76.88,6.07h0l-6.08,1.29-4.85-4.2c-5.2-4.48-9.38-8.58-13.73-13.07s-8.48-8.88-12.47-13.48-7.93-9.26-11.71-14-7.48-9.56-11.14-14.41a562.64,562.64,0,0,1-39.38-60.9c-5.72-10.63-11.54-21.2-16.62-32.13-5.38-10.78-10.12-21.85-14.73-32.95-2.35-5.53-4.5-11.14-6.52-16.8l-6.21-16.9c-2.07-5.63-3.59-11.46-5.41-17.16s-3.48-11.47-5.1-17.23a6.34,6.34,0,0,1,11.83-4.44Z"/><path class="cls-1" d="M1441.77,3336c-26.45,66.51-119.21,108.3-200.59,70.45-53.79-25-86.3-69.9-104.59-107.76-21.36-44.29-36-89.64-75-110.28-44.5-23.52-125.72,57.39-276.95-28.66-47.17-26.8-102-84.17-143.19-169.12A585,585,0,0,1,606.59,2900c-21-71.37-32-155.73-25.79-252.08a927.65,927.65,0,0,1,18.49-132.12q6.78-32.2,16.17-65.78c8.41-30.07,18.39-61,30.15-92.72l38.58,77.62,13.12,26.36,9.44,19,59,118.76L856,2780.46l105.34,211.87,7.3,14.69a278.69,278.69,0,0,1,35.76-30.6c38.72-27.78,84.24-45.28,132-49.12,1-.1,2-.17,3-.23,22.36-1.52,45.51-.15,67.55,6.28,62.82,18.34,112,85.35,124.51,143.15,3.55,16.27,4.2,31.78,1.43,45.29-5,24.23-10,50.92-10,50.92C1340.61,3181.57,1472,3260.06,1441.77,3336Z"/><g class="cls-2"><path class="cls-3" d="M1441.77,3336c-26.45,66.51-119.21,108.3-200.59,70.45-53.79-25-86.3-69.9-104.59-107.76-21.36-44.29-36-89.64-75-110.28-44.5-23.52-125.72,57.39-276.95-28.66-47.17-26.8-102-84.17-143.19-169.12-1.85-3.83-3.69-7.72-5.49-11.68-1.41-3.1-2.82-6.23-4.18-9.41-.79-1.8-1.58-3.6-2.36-5.43q-3.76-8.94-7.35-18.25c-.58-1.53-1.15-3.08-1.73-4.63-.67-1.78-1.32-3.52-2-5.26-.69-2-1.4-3.89-2.07-5.84q-3.12-8.87-6-18c-1.29-4-2.51-8.07-3.72-12.16-40-136.07-43.75-319.24,39-542.7l3.57,7.16c-68.69,234.19-40.73,419,17.83,545.43,82.47,1.19,165.65-40.39,189.15-53.17l-8.67-23.3a54.35,54.35,0,0,1,8.54-52.91,53.61,53.61,0,0,1,13.67-12.23,52.68,52.68,0,0,1,9.79-4.81l236.72-88.11a54.52,54.52,0,0,1,70,32l9,24.13a38.49,38.49,0,0,1,4.88-1.82,47.79,47.79,0,0,1,28.42,91.25l4.63,12.43a54.56,54.56,0,0,1-32,69.94l-64.64,24.05-132,49.12-40.11,14.94c-1,.36-2,.7-3,1a54.52,54.52,0,0,1-67-33l-7-18.92c-72.53,31.84-131.18,45-174.19,49.7,32.77,46.41,68.84,79.29,101.28,97.74,151.24,86,232.45,5.14,276.93,28.65,39.06,20.64,53.69,66,75,110.29,18.29,37.86,50.81,82.75,104.59,107.75,63.62,29.6,134.23,10.51,174.62-31A62.7,62.7,0,0,1,1441.77,3336Z"/></g><path class="cls-3" d="M965.07,3003.47c28.11-38.74,70.53-67.44,117.42-81.88a234.08,234.08,0,0,1,35.92-8.36,230.91,230.91,0,0,1,36.91-3,212.23,212.23,0,0,1,37.48,3.2,168.35,168.35,0,0,1,18.6,4.39c6.08,2.26,12.3,4.31,18.2,6.9,23.53,10.74,43.64,26.64,60.61,44.77a244.21,244.21,0,0,1,41.41,61.4c10.52,22.43,18,46.87,18,73.48.36,6.55-1,13.44-1.8,20.17l-3.33,17-6.66,34-8.12-16.38c5.26,2.71,9.52,5.25,14,8s8.76,5.47,13.06,8.3q12.84,8.53,25.08,18c16.28,12.65,31.9,26.45,45.74,42.66,13.63,16.19,26.31,34.91,31.68,58.21a80.85,80.85,0,0,1,0,36.26,77.81,77.81,0,0,1-6,16.75l-3.61,7.64c-1.36,2.44-2.91,4.78-4.36,7.17-11.85,19-28.08,34.6-46.39,46.44a171.45,171.45,0,0,1-60.23,24.17,169.12,169.12,0,0,1-64.94,0c-21.43-4.22-41.92-12.8-60-23.81-36.65-22.37-65.3-55.6-85-92.45-9.93-18.69-17.33-37-25.79-54.39-8.3-17.36-17.45-33.56-29.34-45.74a77.17,77.17,0,0,0-19.6-14.7c-4.84-2.49-12.15-3-20.79-2-17.37,2.14-37.21,7.85-57.45,11.25-20.32,3.58-41.47,5.5-62.56,4.46A261.37,261.37,0,0,1,851,3204.83a327.72,327.72,0,0,1-57.8-23.23c-4.61-2.34-9.08-4.88-13.63-7.31s-9.07-5.46-13.59-8.18-8.66-6-13-9-8.23-6.46-12.35-9.69c-32-26.78-58.5-58.75-80.75-93.07a551.87,551.87,0,0,1-54.28-109.42,658.79,658.79,0,0,1-31.22-117.63c-13.66-80-13-161.82-2.56-241.76l4.27-29.94c1.54-10,3.49-19.85,5.13-29.81s3.66-19.82,5.9-29.65l3.36-14.73q1.62-7.39,3.83-14.62c2.74-9.69,5.7-19.31,8.69-28.92s6.74-19,10.54-28.3c1.94-4.65,3.7-9.35,5.79-13.94s4.28-9.13,6.64-13.61c4.56-9,9.43-17.89,14.87-26.5a5.17,5.17,0,0,1,9.5,3.42v.1c-5.21,40.17-15.93,77.68-24.77,115.83-2.55,9.44-4.39,19-6.77,28.51s-4.72,19-6.56,28.55-4.15,19.1-5.74,28.72l-4.59,28.92c-10.13,77.34-10.68,156.06,2.4,232.64a628.61,628.61,0,0,0,29.75,112.18,522.33,522.33,0,0,0,51.3,103.46c20.86,32.23,45.69,62,74.62,86.18,3.69,2.88,7.29,5.93,11,8.69s7.57,5.46,11.46,8,7.69,4.9,11.91,7.16,8.36,4.61,12.6,6.76a297.39,297.39,0,0,0,52.49,21.12c36,10.84,73.58,12.18,110.93,5.28,9.39-1.63,18.82-3.69,28.54-5.83s19.73-4.39,30.84-5.69a88.42,88.42,0,0,1,17.87-.36,54.09,54.09,0,0,1,19.63,5.28,107,107,0,0,1,27.89,20.71c15.88,16.37,26.17,35.5,35,53.79s16.45,36.84,25.19,53.19c17.65,33,42.81,61.84,74.13,80.94,4,2.22,7.85,4.72,12,6.66l6.14,3.07,6.23,2.48a82.79,82.79,0,0,0,12.63,4.47c4.32,1.12,8.53,2.72,13,3.23a138.74,138.74,0,0,0,53.34,0c35.09-6.74,68.25-27.36,86.66-56.88,1.12-1.85,2.35-3.65,3.4-5.52l2.72-5.83a48.66,48.66,0,0,0,4.12-11.13,50.3,50.3,0,0,0-.09-22.73c-3.48-15.62-13.27-31.14-25.13-45.06s-26.19-26.69-41.22-38.37c-7.54-5.83-15.33-11.4-23.29-16.69-4-2.62-8-5.22-12.06-7.67s-8.27-4.92-11.84-6.76l-10.29-5.3,2.17-11.08,6.73-34.27,3.34-17.1c.42-4.77,1.56-9.32,1.2-14.4.38-9.86-1.78-20.23-4-30.41-1.64-5-3-10.17-4.86-15.16-2.13-4.92-3.67-10.05-6.25-14.81a202.2,202.2,0,0,0-36.36-53.16c-14.73-15.57-32.1-28.48-51-36.59-18.56-8-40-11.26-61.38-11.18a260.31,260.31,0,0,0-64.37,8.48c-42.3,11.1-81.72,32.06-118.74,59.29l0,0a5.12,5.12,0,0,1-7.17-7.13Z"/><path class="cls-3" d="M1076.27,3210.84a12.61,12.61,0,0,1-11.63-7.68c-34.9-81.78,1.59-167.35,53.24-215.87,46.92-44.08,104.81-57,151.09-33.76a12.65,12.65,0,0,1-11.36,22.6c-37.09-18.64-82.85-7.58-122.42,29.59-43.76,41.12-77.23,117.34-47.29,187.51a12.64,12.64,0,0,1-11.63,17.61Z"/><path class="cls-3" d="M1332.46,3179.06a238.06,238.06,0,0,1-26.13,27.38,203.47,203.47,0,0,1-29.81,22.5c-10.61,6.5-22.06,11.87-34.14,14.84a73.65,73.65,0,0,1-36.39.26,70.64,70.64,0,0,0,34.59-5.71,113,113,0,0,0,29.23-18.69,189.54,189.54,0,0,0,24.07-25.07,221.05,221.05,0,0,0,19.49-28.22l.12-.22a11.51,11.51,0,0,1,20,11.4A11.75,11.75,0,0,1,1332.46,3179.06Z"/><path class="cls-3" d="M1373.84,3108.74a12.66,12.66,0,0,1-10.82-6.07c-41.49-68.23-54.41-132.44-38.41-190.85,23-83.73,96.85-123.92,100-125.59a12.65,12.65,0,0,1,11.91,22.31h0c-.67.36-67.66,37.08-87.57,110.24-14,51.36-2,108.81,35.7,170.75a12.64,12.64,0,0,1-10.79,19.21Z"/><circle class="cls-1" cx="1215.32" cy="2732.21" r="47.79" transform="translate(-1766.96 2951.28) rotate(-70.22)"/><g class="cls-2"><path class="cls-3" d="M1261,2718.23a47.79,47.79,0,1,1-91.39,28,47.17,47.17,0,0,1-1.59-20.88,47.79,47.79,0,0,0,82.61-25.27A47.12,47.12,0,0,1,1261,2718.23Z"/></g><path class="cls-3" d="M1215.35,2792.65a60.44,60.44,0,1,1,57.76-78.11h0a60.45,60.45,0,0,1-57.76,78.11Zm0-95.58a34.79,34.79,0,0,0-10.26,1.54,35.14,35.14,0,1,0,43.88,23.32h0A35.2,35.2,0,0,0,1215.3,2697.07Z"/><path class="cls-1" d="M1202.36,2860.15,965.6,2948.26a54.55,54.55,0,0,1-70-32l-46.89-126A54.59,54.59,0,0,1,871,2725.13a53.15,53.15,0,0,1,9.8-4.83l236.73-88.1a54.5,54.5,0,0,1,70,32l37.16,99.78,9.76,26.2A54.56,54.56,0,0,1,1202.36,2860.15Z"/><g class="cls-2"><path class="cls-3" d="M1202.36,2860.15,965.6,2948.26a54.55,54.55,0,0,1-70-32l-46.89-126A54.59,54.59,0,0,1,871,2725.13c16.77,3.92,27.43,6.46,27.43,6.46,49.17,96.84,72.63,173.47,225.67,104.67,52.77-23.72,83.09-53.11,100.54-72.27l9.76,26.2A54.56,54.56,0,0,1,1202.36,2860.15Z"/></g><path class="cls-3" d="M946.74,2964.34a67.43,67.43,0,0,1-62.93-43.67l-46.9-126a67.2,67.2,0,0,1,39.45-86.22l236.74-88.12a67.13,67.13,0,0,1,86.22,39.45l46.9,126a67.11,67.11,0,0,1-39.45,86.21L970,2960.12A66.82,66.82,0,0,1,946.74,2964.34Zm189.7-322.93a41.54,41.54,0,0,0-14.52,2.62l-236.74,88.12a41.93,41.93,0,0,0-24.57,53.69l46.9,126a41.91,41.91,0,0,0,53.7,24.57L1198,2848.3a41.79,41.79,0,0,0,24.57-53.69l-46.9-126A41.83,41.83,0,0,0,1136.44,2641.41Z"/><path class="cls-1" d="M1211.52,2855.68a48.63,48.63,0,0,1-9.16,4.47L965.6,2948.26a54.48,54.48,0,0,1-57.53-12.7,53.53,53.53,0,0,1-12.39-19.32l-20.85-56L868,2841.81l-19.19-51.55a54.56,54.56,0,0,1,32-70l51.17-19a54.54,54.54,0,0,0-22.93,65.5l25.31,68.07,21.59,58a54.57,54.57,0,0,0,69.95,32Z"/><g class="cls-2"><path class="cls-3" d="M1211.52,2855.68a48.63,48.63,0,0,1-9.16,4.47L965.6,2948.26a54.5,54.5,0,0,1-69.92-32L868,2841.81c10.85,10.94,27.56,23.1,45.31,18.42,9.74-2.54,16.47-12.74,21.06-25.38l21.59,58a54.57,54.57,0,0,0,69.95,32Z"/></g><path class="cls-3" d="M946.74,2964.34a67.35,67.35,0,0,1-62.92-43.68l-46.9-126a67.2,67.2,0,0,1,39.44-86.22l51.14-19,11,22.68a41.78,41.78,0,0,0-17.58,50.3l46.9,126a41.87,41.87,0,0,0,53.66,24.58l185.69-69.13,11.07,22.6a63.39,63.39,0,0,1-11.48,5.58L970,2960.12A66.45,66.45,0,0,1,946.74,2964.34ZM896,2728.13l-10.77,4a41.93,41.93,0,0,0-24.56,53.7l46.9,126a41.89,41.89,0,0,0,53.67,24.57l12.24-4.55a66.46,66.46,0,0,1-29.37-34.67l-46.89-126A66.86,66.86,0,0,1,896,2728.13Z"/><path class="cls-4" d="M1026.19,2796.08c1.71,4.67,8.93,44.76,8.93,44.76l-26.6,9.73c-18.32,6.69-40.1-6.84-48.66-30.24s-.64-47.79,17.68-54.49l26.6-9.72S1023.41,2788.47,1026.19,2796.08Z"/><g class="cls-2"><path class="cls-3" d="M1026.19,2796.08c1.71,4.67,8.93,44.76,8.93,44.76l-26.6,9.73c-18.32,6.69-40.1-6.84-48.66-30.24s-.64-47.79,17.68-54.49l26.6-9.72S1023.41,2788.47,1026.19,2796.08Z"/></g><path class="cls-3" d="M998.72,2859.89a42,42,0,0,1-22.2-6.71c-10.62-6.6-19.07-17.34-23.78-30.24s-5.19-26.56-1.33-38.45c4.07-12.56,12.42-21.71,23.52-25.77l32.51-11.89,3.22,5.4c2,3.38,19.72,33.2,22.66,41.24h0c1.79,4.91,7.54,36.47,9.27,46l1.13,6.28-32.6,11.92A35.94,35.94,0,0,1,998.72,2859.89Zm2.1-94.48L980.14,2773c-6.62,2.42-11.7,8.17-14.3,16.2-2.82,8.68-2.41,18.83,1.15,28.56s9.78,17.74,17.54,22.56c7.17,4.46,14.77,5.57,21.38,3.15l20.6-7.53c-3.16-17.25-6.55-34.6-7.45-37.25C1017.45,2794.27,1008.05,2777.73,1000.82,2765.41Z"/><ellipse class="cls-4" cx="1019.63" cy="2798.48" rx="35.31" ry="45.1" transform="translate(-899.06 520.38) rotate(-20.09)"/><g class="cls-2"><path class="cls-3" d="M986.47,2810.61c8.54,23.39,30.33,36.94,48.64,30.24s26.25-31.11,17.68-54.51a55.33,55.33,0,0,0-4.18-8.93c1.16,17.79-6.78,33.68-21,38.86-15.82,5.78-34.24-3.51-44.46-21.28A56.5,56.5,0,0,0,986.47,2810.61Z"/></g><path class="cls-1" d="M986.47,2810.61a46.48,46.48,0,0,0,1.94,4.63c-3.06-19.66,5-38,20.48-43.62,17.07-6.23,37.17,5.09,46.7,25.64a56.93,56.93,0,0,0-2.8-10.92c-8.54-23.38-30.34-36.93-48.65-30.24S977.92,2787.2,986.47,2810.61Z"/><path class="cls-3" d="M1025.5,2850.12c-18.87,0-38-14.52-46.16-36.91-10-27.28,0-56.09,22.19-64.22s48.41,7.47,58.39,34.76,0,56.09-22.2,64.21A35.38,35.38,0,0,1,1025.5,2850.12ZM1014,2762a20.94,20.94,0,0,0-7.23,1.27c-14.35,5.25-20.26,25.33-13.15,44.76s24.55,31,38.92,25.71,20.26-25.33,13.16-44.75C1039.73,2772.7,1026.54,2762,1014,2762Z"/><path class="cls-3" d="M1128.42,2896.75a10.13,10.13,0,0,1-9.56-6.82l-22.21-64.29a57,57,0,0,1,8.63-53.36,36.71,36.71,0,0,0,5.32-35.16l-33.14-90a10.12,10.12,0,0,1,19-7l33.13,90a56.84,56.84,0,0,1-8.24,54.45,36.78,36.78,0,0,0-5.57,34.45l22.21,64.3a10.12,10.12,0,0,1-9.56,13.42Z"/><path class="cls-1" d="M597.71,2853s-18.94,24.91-8.57,53c12,32.46,40.86,39.34,40.86,39.34s99,26,273.59-54.78c0,0,26.69-65.14-39.6-80.64C864,2809.91,711,2900.51,597.71,2853Z"/><g class="cls-2"><path class="cls-3" d="M588.92,2905.35h0c11.85,33,41.1,40,41.1,40s99,26,273.59-54.78c0,0,20.38-49.79-18.75-72.67,0,.21.09.42.13.62,4.48,21.43-7.26,43.07-27.4,51.64-160.06,68.12-250.29,44.42-250.29,44.42A56.66,56.66,0,0,1,588.92,2905.35Z"/></g><path class="cls-3" d="M674.39,2962.05c-29.7,0-46-4.06-47.61-4.49-1.16-.27-35.32-8.82-49.5-47.19-5.06-13.72-5.16-28.89-.26-43.85,5.31-16.26,22.74-25.38,38.86-20.33,93.48,29.23,212.56-31.27,235.48-43.69a31.31,31.31,0,0,1,24.77-2.29c36.62,12.29,52.53,43.76,42.58,84.2a31.68,31.68,0,0,1-17.59,21.17C797.05,2952.49,720,2962.05,674.39,2962.05Zm-67.6-92a6.2,6.2,0,0,0-5.74,4.28c-3.14,9.64-3.16,18.8,0,27.23,9.36,25.34,31.12,31.22,32,31.46s94.88,22.86,257.69-50.54a6.15,6.15,0,0,0,3.42-4.16c6.86-27.84-1.91-46.07-26-54.17a6,6,0,0,0-4.68.54c-34.42,18.65-154.5,77.05-255.09,45.59h0A5.14,5.14,0,0,0,606.79,2870.09Z"/><g class="cls-2"><path class="cls-3" d="M1150.41,2916.63c-.84-3.47-5.11-20.18-11.71-46.82C1145.3,2896.45,1149.53,2913.18,1150.41,2916.63Z"/></g><g class="cls-2"><path class="cls-3" d="M1150.57,2917.33l0,0a6.45,6.45,0,0,1-.18-.64A5,5,0,0,0,1150.57,2917.33Z"/></g><path class="cls-3" d="M1568.81,2938.45c-5.06,3.4-10.36,7.39-15.4,11.33s-10.07,8.13-14.85,12.49c-9.57,8.72-18.74,18-25.69,29.3,3.44-12.86,9.85-25,16.83-36.59,3.5-5.81,7.29-11.43,11.19-17s7.89-10.94,12.44-16.47l.05-.06a11.6,11.6,0,0,1,17.92,14.72A12.11,12.11,0,0,1,1568.81,2938.45Z"/><g class="cls-2"><path class="cls-3" d="M504.87,2902a11.35,11.35,0,0,1-.53,4.3A31.19,31.19,0,0,0,504.87,2902Z"/></g><path class="cls-5" d="M1514.61,3170.4c-5.76-6.78-8.76-17.09-6.82-32.5,9.36-74.33,133.42-242,202.27-200a138,138,0,0,1,3.63,31.4C1715,3061.37,1600.05,3178.94,1514.61,3170.4Z"/><g class="cls-2"><path class="cls-3" d="M1670.77,3079.75c-41,54.19-104.08,95.86-156.16,90.65-5.76-6.78-8.76-17.09-6.82-32.5,4.27-33.91,32.41-87.25,68.33-131.23-12.74,27.65-34.76,97.41-4.89,112.66S1640.67,3096.82,1670.77,3079.75Z"/></g><g class="cls-6"><path class="cls-1" d="M1687.33,3055.05c8.65-20.18,13.51-40.68,13.24-60q0-.87,0-1.71c-.51-23.34-23-40.13-45.46-33.66-46.46,13.42-100.52,75-132.66,132.09,36.58-80.58,130.89-188.45,187.64-153.85a138,138,0,0,1,3.63,31.4C1714.07,2997,1704,3026.92,1687.33,3055.05Z"/></g><path class="cls-3" d="M1523.55,3181c-3.37,0-6.68-.17-10-.49l-4.06-.41-2.64-3.11c-8.22-9.68-11.3-23.24-9.15-40.31,7.63-60.6,83.74-173.55,151.11-206,25.1-12.09,48.09-12.56,66.47-1.35l3.54,2.16,1,4a149.67,149.67,0,0,1,3.93,33.71c.7,49.82-30.1,109.45-80.4,155.62C1604.08,3160.89,1561,3181,1523.55,3181Zm-3.38-20.31c32.63,1.26,73.22-17.41,109.56-50.76,45.48-41.75,74.46-96.88,73.85-140.44a137.51,137.51,0,0,0-2.38-24.83c-11.82-5.42-26.45-4-43.55,4.23-61.19,29.49-132.93,135.58-139.82,190.31C1516.67,3148.29,1517.46,3155.5,1520.17,3160.65Z"/><path class="cls-3" d="M1685.25,2988.75c-31.75,0-69.26-9.69-74.92-11.21a10.11,10.11,0,1,1,5.22-19.54c27.09,7.23,76.45,15.5,93.55,6.87a10.12,10.12,0,1,1,9.11,18.07C1709.76,2987.2,1698,2988.75,1685.25,2988.75Z"/><path class="cls-3" d="M1655.8,3040.29c-46.19,0-84.57-20.95-86.74-22.16a10.11,10.11,0,0,1,9.81-17.69h0c.65.36,64.7,35.12,121,11a10.12,10.12,0,1,1,8,18.6A131.47,131.47,0,0,1,1655.8,3040.29Z"/><path class="cls-3" d="M1630.49,3087.81c-65.4,0-92.21-28.55-93.54-30a10.12,10.12,0,0,1,14.92-13.67c.6.63,34.46,34.8,121.69,19.44a10.11,10.11,0,1,1,3.51,19.92A268.67,268.67,0,0,1,1630.49,3087.81Z"/><path class="cls-3" d="M1595.31,3143.84c-52.64,0-83.65-32.07-85.14-33.65a10.12,10.12,0,0,1,14.68-13.92c1.53,1.59,35.89,36.47,93.38,25a10.12,10.12,0,1,1,4,19.84A136.66,136.66,0,0,1,1595.31,3143.84Z"/><path class="cls-1" d="M338.22,2249.63h0a9.53,9.53,0,0,0,7.45-11.23l-54.48-269.09a9.54,9.54,0,0,0-11.24-7.45h0a100,100,0,0,0-78.16,117.85l18.58,91.76A100,100,0,0,0,338.22,2249.63Z"/><path class="cls-3" d="M318.16,2254.59a103,103,0,0,1-100.67-82.54l-18.58-91.76A102.94,102.94,0,0,1,279.37,1959a12.45,12.45,0,0,1,14.69,9.75l54.48,269.08a12.45,12.45,0,0,1-9.74,14.7h0A104.05,104.05,0,0,1,318.16,2254.59Zm-36.3-290a6.56,6.56,0,0,0-1.32.13,97,97,0,0,0-75.87,114.38l18.58,91.76a97.18,97.18,0,0,0,114.38,75.87h0a6.6,6.6,0,0,0,5.16-7.77L288.31,1969.9a6.6,6.6,0,0,0-6.45-5.29Z"/><g class="cls-2"><path class="cls-3" d="M202.19,2132.29l8.71,43a100,100,0,0,0,117.86,78.17,9.55,9.55,0,0,0,7.45-11.25l-14.46-71.54a9.56,9.56,0,0,1-7.38,7.26l-6.38,1.27A99.93,99.93,0,0,1,202.19,2132.29Z"/></g><path class="cls-3" d="M318.34,2268a116.55,116.55,0,0,1-114-93.27L185.77,2083a116.33,116.33,0,0,1,90.94-137.11,25.86,25.86,0,0,1,30.5,20.23l54.48,269.08a25.86,25.86,0,0,1-20.23,30.5h0A116.55,116.55,0,0,1,318.34,2268Zm-41.77-288.47a83.63,83.63,0,0,0-58.75,97l18.57,91.76a83.77,83.77,0,0,0,91.84,66.47ZM335,2233.6h0Z"/><path class="cls-1" d="M1168.14,1782h0a9.53,9.53,0,0,0-7.45,11.23l54.48,269.09a9.54,9.54,0,0,0,11.23,7.45h0A100,100,0,0,0,1304.57,1952L1286,1860.2A100,100,0,0,0,1168.14,1782Z"/><path class="cls-3" d="M1224.48,2072.93a12.23,12.23,0,0,1-6.86-2.08,12.36,12.36,0,0,1-5.33-7.91l-54.48-269.09a12.47,12.47,0,0,1,9.75-14.69h0a103,103,0,0,1,121.31,80.46l18.57,91.75A102.92,102.92,0,0,1,1227,2072.68,12.57,12.57,0,0,1,1224.48,2072.93Zm-55.75-288a6.6,6.6,0,0,0-5.16,7.78l54.48,269.08a6.54,6.54,0,0,0,2.82,4.19,6.65,6.65,0,0,0,5,1,97.07,97.07,0,0,0,75.87-114.39l-18.58-91.76a97.17,97.17,0,0,0-114.38-75.87Z"/><g class="cls-2"><path class="cls-3" d="M1200,1987.71l15.13,74.65a9.56,9.56,0,0,0,11.25,7.45A100,100,0,0,0,1304.56,1952l-7.83-38.67a100,100,0,0,1-77.62,75.64l-9.82,2A9.68,9.68,0,0,1,1200,1987.71Z"/></g><path class="cls-3" d="M1224.46,2086.35a25.92,25.92,0,0,1-25.32-20.75l-54.47-269.09a25.86,25.86,0,0,1,20.23-30.5h0A116.48,116.48,0,0,1,1302,1857l18.58,91.75a116.33,116.33,0,0,1-90.94,137.12A26.18,26.18,0,0,1,1224.46,2086.35ZM1178.13,1797l51.66,255.18a83.67,83.67,0,0,0,58.75-97L1270,1863.44A83.77,83.77,0,0,0,1178.13,1797Z"/><circle class="cls-1" cx="753.12" cy="2015.84" r="467.85" transform="translate(-1204.83 1122.97) rotate(-45)"/><path class="cls-3" d="M752.4,2486.84a468.21,468.21,0,0,1-231-61.19c-109.46-61.9-188.27-162.72-221.9-283.89s-18.07-248.19,43.83-357.65S506,1595.84,627.21,1562.21c250.14-69.42,510.12,77.59,579.55,327.72,33.63,121.17,18.06,248.19-43.84,357.65S1000.21,2435.84,879,2469.48A473.25,473.25,0,0,1,752.4,2486.84Zm1.44-936.11a467.17,467.17,0,0,0-125.06,17.14c-119.66,33.21-219.22,111-280.34,219.13s-76.5,233.53-43.29,353.19h0c33.21,119.65,111,219.22,219.13,280.34s233.52,76.5,353.18,43.29,219.22-111,280.35-219.13,76.5-233.53,43.29-353.19-111-219.22-219.13-280.34A462.34,462.34,0,0,0,753.84,1550.73Z"/><g class="cls-2"><path class="cls-3" d="M289.32,2077.37a466.74,466.74,0,0,0,13,63.61c69.14,248.95,327,394.76,576,325.68s394.76-327,325.68-575.95c-2-7.16-4.13-14.28-6.44-21.24,30.52,227.88-110.88,449.1-338.67,512.34C617,2448.91,366.88,2313.31,289.32,2077.37Z"/></g><path class="cls-3" d="M752.38,2500.26a481.37,481.37,0,0,1-237.59-62.94c-112.58-63.66-193.64-167.35-228.23-292S268,1890.09,331.65,1777.51s167.35-193.63,292-228.22,255.26-18.58,367.84,45.08,193.63,167.35,228.22,292,18.58,255.25-45.08,367.83-167.35,193.63-292,228.22A486.73,486.73,0,0,1,752.38,2500.26Zm1.44-936.11a453.58,453.58,0,0,0-121.45,16.65c-116.21,32.25-212.9,107.83-272.26,212.81s-74.29,226.78-42,343,107.84,212.89,212.81,272.26,226.79,74.28,343,42,212.89-107.83,272.26-212.81,74.28-226.78,42-343-107.83-212.9-212.81-272.26A449,449,0,0,0,753.82,1564.15Z"/><path class="cls-3" d="M307,2152.15c23.15,88.58,73.39,163.29,140.35,218.48,50.2,41.37,225.08,91,412.65,43.81,173.92-43.79,307.62-177.57,331.15-238.21,31.39-80.89,38.65-170.64,15.5-259.22-61.26-234.39-288-278.93-536.49-214S245.71,1917.75,307,2152.15Z"/><g class="cls-7"><ellipse class="cls-1" cx="444.85" cy="2082.1" rx="59.99" ry="82.79" transform="translate(-835.82 381.24) rotate(-24.92)"/></g><g class="cls-7"><ellipse class="cls-1" cx="557.43" cy="2222.19" rx="32.61" ry="38" transform="translate(-1116.55 658.01) rotate(-32.86)"/></g><g class="cls-2"><path class="cls-8" d="M337.31,1910.61C296,1977.46,282.38,2058,307,2152.14c23.15,88.59,73.41,163.3,140.34,218.49,50.2,41.37,225.1,91,412.67,43.82,66.24-16.66,126.61-46.38,177.32-80.18-231.82,53.12-445.06-8.2-507.31-59.51-85-70-148.76-164.89-178.12-277.29A473.29,473.29,0,0,1,337.31,1910.61Z"/></g><path class="cls-3" d="M291.93,1950a13.52,13.52,0,0,1-12.32-19c51.48-134.29,189-239.52,377.33-288.76,189.85-49.62,362-22.83,472.27,73.5a13.52,13.52,0,0,1-16.57,21.33l-1.1-.87C1008.1,1645.7,844.9,1621,663.78,1668.33c-180.13,47.09-311,146.55-359.16,272.91l-.62,1.62-1,1.42A13.57,13.57,0,0,1,291.93,1950Z"/><g class="cls-7"><path class="cls-1" d="M1142.05,2082.86s12.16-250.21-136.54-309.78-327.89-12.35-320.7-1.94c0,0,211.05-3.83,329.73,132.79C1106.05,2009.28,1142.05,2082.86,1142.05,2082.86Z"/></g><path class="cls-1" d="M1309.32,2097.09s-66.08-92.24-176.54-86.82c-78.14,3.83-113.75,150.61-29.24,229.47,39.73,37.08,75.55,48.18,86.14,127.79"/><path class="cls-3" d="M1189.66,2382.82a15.29,15.29,0,0,1-15.14-13.28c-7.63-57.39-28.36-74.32-57-97.74-7.82-6.38-15.91-13-24.36-20.88-57.28-53.45-63.1-131.5-43.46-185.14,15.57-42.55,46.37-69,82.38-70.78,117.41-5.78,186.82,89.14,189.72,93.18A15.3,15.3,0,0,1,1296.9,2106h0c-.61-.86-62.91-85.43-163.37-80.48-23.33,1.15-44,20.12-55.17,50.75-15.64,42.74-11.17,108.61,35.61,152.27,7.72,7.2,15.41,13.48,22.84,19.55,30.24,24.69,58.8,48,68,117.4a15.28,15.28,0,0,1-13.14,17.17A15.51,15.51,0,0,1,1189.66,2382.82Z"/><g class="cls-2"><path class="cls-3" d="M648.26,2539.26l14,150.57c333.46,240.15,463.11-102.46,497.76-168.34,7.14-13.57,30.52-53.93,45-63.41,15.64-10.29,31-45.68,32.74-71.41,0,0-9.73-93-41.38-121-32.46-28.67-106.12-17.81-142.9,3.48-50.84,29.44-86.7,98.9-147.37,159.83C831.63,2503.74,671.39,2476.22,648.26,2539.26Z"/></g><path class="cls-1" d="M629.51,2507.71,661,2682.53l1.3,7.3c314.31,111.09,449.57-152.53,505.46-224.43,9.4-12.12,37-28,51.41-37.51,15.64-10.28,23.55-31.88,25.27-57.61v0c3.37-49.74-16.4-114.84-48-142.82-32.46-28.68-106.12-17.82-142.9,3.47-50.84,29.44-86.7,98.9-147.37,159.84C831.63,2465.51,652.64,2444.68,629.51,2507.71Z"/><g class="cls-2"><path class="cls-3" d="M661,2682.53l1.3,7.3c314.31,111.09,449.57-152.53,505.46-224.43,9.4-12.12,37-28,51.41-37.51,15.64-10.28,23.55-31.88,25.27-57.61-8.75,12.12-20.15,22.6-33.91,23.93-34.75,3.37-83.3,2-97.14,20.23S1074.18,2524,984.19,2601.11C893.36,2678.9,737.35,2704.21,661,2682.53Z"/></g><path class="cls-3" d="M623.56,2505.54c2.42-9.33,8.3-17.64,15.17-23.79s14.63-10.92,22.44-14.91c15.73-7.68,32-12.66,48-16.9,32.18-8.34,64.23-13.84,95-22.42,30.55-8.49,60.61-19.51,83.55-38.22,3-2.19,5.45-4.87,8.18-7.29,2.7-2.65,5.48-5.69,8.21-8.51,5.5-5.74,10.79-11.72,16-17.74,10.52-12.05,20.55-24.67,30.6-37.43,20.17-25.44,39.6-52.26,64.88-76.13,12.6-11.77,27.26-22.86,44.16-30,16.44-7.27,33.4-11.54,50.73-14.13s35.12-3.07,53.3.17A95.18,95.18,0,0,1,1191,2207l6.59,3.63,6.23,4.64a77.2,77.2,0,0,1,10.4,10.06c12.3,14.14,20.74,29.94,27.24,46.12a243.86,243.86,0,0,1,14,50c2.8,17.08,4.08,34.5,2.56,52.29a132.68,132.68,0,0,1-4.89,26.86,79.42,79.42,0,0,1-13.17,26.31,46,46,0,0,1-5.32,5.91,44.31,44.31,0,0,1-6.27,5.24l-1.66,1.22-1.34.87-2.67,1.71-5.24,3.3c-6.92,4.34-13.71,8.59-20.14,13s-12.77,9.05-17.07,13.46c-1.64,1.56-4.18,5.18-6.52,8.22l-7,9.71c-18.58,26.51-37.51,53.91-58.56,79.65-10.46,12.93-21.59,25.4-33.07,37.56-11.7,12-23.72,23.68-36.61,34.49a378.91,378.91,0,0,1-84.65,55.07c-30.58,14.62-63.71,23.75-97.18,28.14a365.67,365.67,0,0,1-100.47-2.07,471.71,471.71,0,0,1-95.89-26.55,6.33,6.33,0,0,1,4.1-12l.12,0c31,9.31,62.37,16.63,94.14,20.05a344.92,344.92,0,0,0,94.85-1.71,313.66,313.66,0,0,0,89.76-28.11c7-3.65,14.12-6.95,20.82-11.12l10.19-6,9.87-6.52c6.7-4.17,12.88-9.15,19.33-13.7,6.17-4.95,12.48-9.74,18.42-15,12.1-10.26,23.43-21.45,34.51-32.89,10.87-11.67,21.45-23.64,31.46-36.17,20.19-25,38.3-51.49,57.06-78.59l7.27-10.19c2.66-3.41,4.65-6.63,8.72-10.94,7.14-7.28,14.1-12.13,21.14-17.1s14-9.31,21-13.7l5.1-3.25,2.48-1.61,1.23-.8.78-.63a20,20,0,0,0,3.09-2.63,22.11,22.11,0,0,0,2.84-3.2c7.33-9.36,11-24,12.08-38.66,1.19-14.8,0-30.21-2.55-45.33a215.34,215.34,0,0,0-12.59-44.13c-5.68-14.06-13.16-27.37-22.4-37.83a54,54,0,0,0-7.19-6.93c-1.21-.88-2.39-1.79-3.56-2.72l-4.16-2.26a67.49,67.49,0,0,0-19.31-6.18c-14-2.58-29.3-2.3-44.27-.13s-30,6-43.43,11.92c-13.29,5.55-25.2,14.38-36.45,24.82-22.45,21-41.78,47.21-62.36,72.72-10.28,12.82-20.68,25.7-31.76,38.17-5.53,6.24-11.13,12.45-17,18.46-3,3-5.74,6-8.89,9-3.36,3-6.56,6.29-10.16,8.93-14,11.21-29.57,19.71-45.38,26.37a372.77,372.77,0,0,1-48.17,16.07c-32.32,8.62-64.74,14.33-96.15,21-15.69,3.3-31.14,6.9-45.49,12.05-14.08,5.35-27.46,12.19-33.85,24.44l-.09.17a6.35,6.35,0,0,1-11.78-4.53Z"/><path class="cls-3" d="M990.66,2674a12.55,12.55,0,0,1-7.43-2.43c-127.41-92.87-87.24-279.76-85.46-287.67a12.64,12.64,0,0,1,24.68,5.52c-.4,1.78-38.24,178.69,75.67,261.72a12.64,12.64,0,0,1-7.46,22.86Z"/><path class="cls-3" d="M1198.33,2030.1a12.64,12.64,0,0,1-12.64-12.64V1079a12.65,12.65,0,0,1,25.29,0v938.48A12.65,12.65,0,0,1,1198.33,2030.1Z"/><path class="cls-3" d="M1486.15,2674a12.3,12.3,0,0,1-2.81-.32c-36.88-8.34-55.4-32.91-73.32-56.67-23.91-31.7-46.51-61.67-115.17-59.95-38,.88-66.72-9.67-85.21-31.51-30.05-35.5-20.55-86.91-20.13-89.08a12.64,12.64,0,0,1,24.83,4.77c-.15.83-7.44,42.06,14.7,68.08,13.3,15.64,35.23,23.22,65.19,22.46,81.63-1.92,110.52,36.25,136,70,16.56,22,30.87,40.94,58.71,47.24a12.65,12.65,0,0,1-2.77,25Z"/><ellipse class="cls-9" cx="1205.58" cy="1269.73" rx="161.87" ry="66.3"/><path class="cls-3" d="M1205.58,1338c-90.34,0-163.83-30.63-163.83-68.27s73.49-68.26,163.83-68.26,163.83,30.62,163.83,68.26S1295.92,1338,1205.58,1338Zm0-132.61c-88.18,0-159.91,28.86-159.91,64.34s71.73,64.35,159.91,64.35,159.91-28.87,159.91-64.35S1293.76,1205.39,1205.58,1205.39Z"/><ellipse class="cls-1" cx="1205.58" cy="1269.73" rx="161.87" ry="66.3"/><path class="cls-3" d="M1205.58,1338c-90.34,0-163.83-30.63-163.83-68.27s73.49-68.26,163.83-68.26,163.83,30.62,163.83,68.26S1295.92,1338,1205.58,1338Zm0-132.61c-88.18,0-159.91,28.86-159.91,64.34s71.73,64.35,159.91,64.35,159.91-28.87,159.91-64.35S1293.76,1205.39,1205.58,1205.39Z"/><g class="cls-10"><ellipse class="cls-3" cx="1205.58" cy="1269.73" rx="161.87" ry="66.3"/></g><path class="cls-3" d="M1205.58,1348.16c-99.19,0-174-33.72-174-78.43s74.8-78.42,174-78.42,174,33.72,174,78.42S1304.77,1348.16,1205.58,1348.16Zm0-132.61c-85.71,0-149.75,28.61-149.75,54.18s64,54.19,149.75,54.19,149.75-28.61,149.75-54.19S1291.29,1215.55,1205.58,1215.55Z"/><ellipse class="cls-1" cx="1614.37" cy="1227.13" rx="161.87" ry="66.3" transform="translate(-171.03 265.68) rotate(-8.94)"/><path class="cls-3" d="M1566.59,1299.28c-21.3,0-41.17-2.06-58.46-6.15-33-7.82-52.72-22.22-55.6-40.55s11.49-38.1,40.47-55.66c28.47-17.25,67.81-30.47,110.76-37.23s84.46-6.24,116.85,1.44c33,7.81,52.72,22.21,55.6,40.54s-11.49,38.11-40.47,55.66c-28.47,17.25-67.81,30.47-110.76,37.23A378.4,378.4,0,0,1,1566.59,1299.28Zm95.57-140.4a374.37,374.37,0,0,0-57.78,4.68c-42.47,6.68-81.31,19.71-109.35,36.71-27.53,16.68-41.25,35-38.63,51.7s21.31,29.92,52.63,37.35c31.91,7.56,72.87,8,115.34,1.37s81.29-19.71,109.34-36.7c27.53-16.69,41.25-35,38.63-51.7s-21.31-29.93-52.64-37.36C1702.71,1160.91,1683.14,1158.88,1662.16,1158.88Z"/><path class="cls-3" d="M1566.62,1309.43c-22.12,0-42.8-2.14-60.83-6.41-37.25-8.84-59.73-26.19-63.3-48.86s12.5-46.09,45.24-65.93c29.58-17.92,70.22-31.62,114.46-38.57s87.12-6.39,120.76,1.58c37.25,8.83,59.73,26.18,63.3,48.86s-12.5,46.09-45.25,65.93c-29.57,17.91-70.22,31.61-114.45,38.56A388,388,0,0,1,1566.62,1309.43ZM1662.19,1169a363.65,363.65,0,0,0-56.24,4.56c-41.19,6.48-78.71,19-105.65,35.36-23.09,14-35.75,29.47-33.87,41.43s18.68,22.82,45,29c30.65,7.27,70.22,7.7,111.41,1.22s78.71-19,105.65-35.35c23.09-14,35.74-29.48,33.86-41.44s-18.68-22.81-44.94-29C1701.11,1171,1682.36,1169,1662.19,1169Z"/><ellipse class="cls-1" cx="796.79" cy="1227.13" rx="66.3" ry="161.87" transform="translate(-539.22 1823.61) rotate(-81.06)"/><path class="cls-3" d="M844.57,1299.28a378.4,378.4,0,0,1-58.39-4.72c-42.95-6.76-82.29-20-110.76-37.23-29-17.55-43.35-37.32-40.47-55.66s22.63-32.73,55.6-40.54c32.39-7.68,73.88-8.19,116.85-1.44s82.29,20,110.76,37.23c29,17.56,43.35,37.33,40.47,55.66S936,1285.31,903,1293.13C885.75,1297.22,865.87,1299.28,844.57,1299.28ZM749,1158.88c-21,0-40.55,2-57.55,6-31.32,7.43-50,20.69-52.63,37.36s11.1,35,38.63,51.7c28,17,66.88,30,109.34,36.7s83.43,6.19,115.34-1.37c31.32-7.43,50-20.69,52.63-37.35s-11.1-35-38.63-51.7c-28-17-66.88-30-109.35-36.71A374.37,374.37,0,0,0,749,1158.88Z"/><g class="cls-10"><ellipse class="cls-3" cx="1614.37" cy="1227.13" rx="161.87" ry="66.3" transform="translate(-171.03 265.68) rotate(-8.94)"/></g><g class="cls-10"><ellipse class="cls-3" cx="796.79" cy="1227.13" rx="66.3" ry="161.87" transform="translate(-539.22 1823.61) rotate(-81.06)"/></g><path class="cls-3" d="M844.54,1309.43a387.88,387.88,0,0,1-59.93-4.84c-44.23-6.95-84.88-20.65-114.45-38.56-32.75-19.84-48.81-43.26-45.25-65.93s26-40,63.3-48.86c33.64-8,76.53-8.54,120.76-1.58s84.88,20.65,114.45,38.57c32.74,19.84,48.81,43.25,45.25,65.93s-26,40-63.3,48.86C887.34,1307.29,866.66,1309.43,844.54,1309.43ZM749,1169c-20.17,0-38.92,1.93-55.17,5.78-26.27,6.23-43.07,17.08-44.95,29s10.78,27.45,33.86,41.44c26.95,16.32,64.47,28.88,105.66,35.35s80.76,6,111.41-1.22c26.26-6.22,43.06-17.08,45-29S934,1222.94,910.86,1209c-26.94-16.33-64.46-28.88-105.65-35.36A365,365,0,0,0,749,1169Z"/><ellipse class="cls-11" cx="1205.58" cy="1086.87" rx="725.25" ry="182.86"/><path class="cls-3" d="M1205.58,1271.69c-193.88,0-376.17-19-513.3-53.62-137.94-34.78-213.9-81.37-213.9-131.2s76-96.42,213.9-131.2c137.13-34.58,319.42-53.62,513.3-53.62s376.17,19,513.3,53.62c137.94,34.78,213.9,81.37,213.9,131.2s-76,96.42-213.9,131.2C1581.75,1252.65,1399.46,1271.69,1205.58,1271.69Zm0-365.72c-398.82,0-723.29,81.15-723.29,180.9s324.47,180.91,723.29,180.91,723.29-81.16,723.29-180.91S1604.4,906,1205.58,906Z"/><path class="cls-1" d="M1929,1100c-4.09,14.61-15,28.75-31.9,42.2-92.95,74-367.4,127.58-691.5,127.58S607,1216.12,514.08,1142.16c-16.91-13.45-27.81-27.59-31.9-42.2,26.69-58.5,340.37-104.67,723.4-104.67S1902.29,1041.46,1929,1100Z"/><path class="cls-3" d="M1205.58,1272.27c-318.23,0-596.75-51.49-693.08-128.12-17.57-14-28.59-28.62-32.76-43.51l-.25-.88.39-.85c27.61-60.51,339.59-106.15,725.7-106.15s698.09,45.64,725.7,106.15l.39.85-.25.88c-4.17,14.89-15.2,29.52-32.77,43.51C1802.33,1220.78,1523.81,1272.27,1205.58,1272.27Zm-720.7-172.08c4.07,13.53,14.42,27,30.77,40,95.5,76,372.76,127,689.93,127s594.43-51,689.93-127c16.35-13,26.7-26.47,30.77-40-29-57.48-344.55-102.37-720.7-102.37S513.9,1042.71,484.88,1100.19Z"/><g class="cls-10"><path class="cls-3" d="M1929,1100c-4.09,14.61-15,28.75-31.9,42.2-92.95,45.63-367.4,78.68-691.5,78.68s-598.55-33-691.5-78.68c-16.91-13.45-27.81-27.59-31.9-42.2,26.69-58.5,340.37-104.67,723.4-104.67S1902.29,1041.46,1929,1100Z"/></g><path class="cls-3" d="M1205.58,1281.85c-194.69,0-377.87-19.15-515.79-53.93-101.08-25.48-221.57-70.64-221.57-141.05s120.49-115.57,221.57-141c137.92-34.78,321.1-53.93,515.79-53.93s377.87,19.15,515.79,53.93c101.08,25.48,221.57,70.64,221.57,141s-120.49,115.57-221.57,141.05C1583.45,1262.7,1400.27,1281.85,1205.58,1281.85Zm0-365.72c-426.58,0-713.13,88.28-713.13,170.74S779,1257.61,1205.58,1257.61s713.13-88.28,713.13-170.74S1632.15,916.13,1205.58,916.13Z"/><path class="cls-12" d="M2399,870.83v69.68c0,129.67-534.33,234.8-1193.46,234.8S12.12,1070.18,12.12,940.51V870.83"/><path class="cls-3" d="M1205.58,1177.27c-318.91,0-618.75-24.44-844.28-68.81-226.44-44.55-351.14-104.2-351.14-168V870.83h3.92v69.68c0,128.39,534.5,232.84,1191.5,232.84s1191.5-104.45,1191.5-232.84V870.83H2401v69.68c0,63.75-124.71,123.4-351.14,168C1824.33,1152.83,1524.49,1177.27,1205.58,1177.27Z"/><g class="cls-10"><path class="cls-3" d="M2399.05,908.19v32.33c0,129.66-534.33,234.79-1193.47,234.79S12.11,1070.18,12.11,940.52V908.19c0,129.67,534.32,234.79,1193.47,234.79S2399.05,1037.86,2399.05,908.19Z"/></g><path class="cls-3" d="M1205.58,1187.43c-319.55,0-620.08-24.51-846.24-69C195.41,1086.17,0,1029.13,0,940.51V870.83a12.12,12.12,0,1,1,24.24,0v69.68c0,107.54,474.69,222.68,1181.34,222.68s1181.34-115.14,1181.34-222.68V870.83a12.12,12.12,0,1,1,24.24,0v69.68c0,88.62-195.41,145.66-359.34,177.92C1825.66,1162.92,1525.12,1187.43,1205.58,1187.43Z"/><ellipse class="cls-13" cx="1204.19" cy="870.83" rx="1193.46" ry="234.8"/><g class="cls-7"><path class="cls-1" d="M1221.24,1054c-42.18,0-75.23-24.07-75.23-54.8s33-54.81,75.23-54.81,75.22,24.07,75.22,54.81S1263.42,1054,1221.24,1054Zm0-85.37c-27.64,0-51,14-51,30.57s23.35,30.57,51,30.57,51-14,51-30.57S1248.87,968.64,1221.24,968.64Z"/></g><g class="cls-7"><path class="cls-1" d="M1689.37,1039.1c-17.45,0-34-4.31-47.14-12.33-15.58-9.53-24.92-23.78-25.62-39.08s7.29-30.35,21.94-41.27c13.46-10,31.45-16,50.69-16.93,42.08-1.94,76.24,20.6,77.65,51.3h0c1.41,30.7-30.5,56.26-72.63,58.2C1692.62,1039.06,1691,1039.1,1689.37,1039.1Zm4.72-85.48c-1.24,0-2.49,0-3.74.08-14.24.66-27.84,5.08-37.32,12.15-4.75,3.54-12.66,10.95-12.21,20.73s9,16.42,14.06,19.52c10.09,6.17,24,9.32,38.27,8.68,27.61-1.27,50.29-16.32,49.53-32.88C1742,966.1,1720.08,953.62,1694.09,953.62Z"/></g><g class="cls-7"><path class="cls-1" d="M2088.56,971.28c-39.77,0-71.24-21.92-72.61-51.38-.71-15.31,7.28-30.35,21.92-41.28,13.45-10,31.45-16.06,50.68-17s37.71,3.43,52,12.18c15.59,9.53,24.94,23.77,25.66,39.08h0c.7,15.31-7.29,30.35-21.93,41.28-13.45,10-31.45,16.06-50.67,16.95C2091.93,971.24,2090.24,971.28,2088.56,971.28Zm4.84-85.49q-1.86,0-3.72.09c-14.24.66-27.84,5.09-37.31,12.16-4.75,3.55-12.66,11-12.2,20.74.76,16.55,24.82,29.48,52.34,28.17,14.24-.66,27.83-5.09,37.31-12.16,4.75-3.55,12.66-11,12.2-20.74h0c-.45-9.78-9-16.42-14.07-19.51C2118.74,888.91,2106.32,885.79,2093.4,885.79Z"/></g><g class="cls-7"><path class="cls-1" d="M764.83,1039.1c-1.67,0-3.34,0-5-.11-42.13-1.94-74-27.5-72.63-58.2h0c1.41-30.7,35.56-53.25,77.65-51.3,19.24.88,37.24,6.89,50.69,16.93,14.65,10.91,22.65,26,22,41.27C836.1,1017.16,804.62,1039.1,764.83,1039.1Zm-53.45-57.2c-.76,16.56,21.93,31.61,49.53,32.88s51.57-11.65,52.33-28.2c.46-9.78-7.45-17.19-12.21-20.73-9.48-7.07-23.08-11.49-37.31-12.15-27.61-1.24-51.57,11.65-52.34,28.2Z"/></g><g class="cls-7"><path class="cls-1" d="M365.51,971.28c-1.68,0-3.37,0-5.08-.12-19.23-.89-37.23-6.91-50.68-16.95-14.64-10.93-22.63-26-21.92-41.28s10.06-29.55,25.65-39.08c14.32-8.75,32.81-13.07,52-12.18s37.23,6.91,50.68,17c14.64,10.93,22.63,26,21.92,41.28C436.74,949.35,405.27,971.28,365.51,971.28Zm-4.85-85.49c-12.92,0-25.34,3.12-34.55,8.75-5.06,3.09-13.62,9.73-14.07,19.51h0c-.45,9.78,7.45,17.19,12.21,20.74,9.47,7.07,23.07,11.5,37.3,12.16,27.58,1.27,51.58-11.62,52.35-28.17.45-9.78-7.45-17.19-12.2-20.74-9.48-7.07-23.07-11.5-37.31-12.16C363.15,885.82,361.9,885.79,360.66,885.79Zm-60.72,27.7h0Z"/></g><g class="cls-7"><path class="cls-1" d="M1904.66,765.93c0,60.61-310.39,146.58-693.29,146.58s-693.29-86-693.29-146.58,310.4-109.75,693.29-109.75S1904.66,705.31,1904.66,765.93Z"/></g><g class="cls-10"><path class="cls-3" d="M1698,800.69s186.18,93.75,220.45,141.92,99.15,100.3,99.15,100.3S2618,925,2310.22,787.93c0,0,77.78,50.1,56.5,87.06-30.8,53.49-164.16,101.52-252.15,120.4a147.32,147.32,0,0,1-131.23-35.87c-46.67-43.37-127.33-106.85-243.46-158.83C1700,782.83,1698,800.69,1698,800.69Z"/></g><g class="cls-10"><path class="cls-3" d="M724.76,800.69S538.58,894.44,504.31,942.61s-99.15,100.3-99.15,100.3-600.39-117.9-292.65-255c0,0-79.62,51.22-56.5,87.06,38.87,60.25,158.68,99.91,246.53,119.18a157.74,157.74,0,0,0,140.46-38c47.17-43.25,126.67-104.84,239.85-155.5C722.77,782.83,724.76,800.69,724.76,800.69Z"/></g><g class="cls-10"><path class="cls-3" d="M718,806.89s-269.37,142.2-310.44,238.53c0,0,327.85,60.21,798,60.21S2008,1038,2008,1038s-197.25-224.81-328.54-234.54-38,9.5-38,9.5,184.13,81.36,279.74,173.22c14.6,14,6.78,38.65-13.26,41.44-105.94,14.75-388.1,49.31-706.44,49.31-314.32,0-585.13-32.48-690.42-47-20.1-2.78-28-27.62-13.24-41.5A752.87,752.87,0,0,1,566.11,932C614.52,896.3,744,821.27,744,821.27Z"/></g><path class="cls-14" d="M1848.65,742.17c0,69.87-287.91,126.52-643.07,126.52S562.5,812,562.5,742.17s643.08-73,643.08-73S1848.65,672.29,1848.65,742.17Z"/><path class="cls-3" d="M1205.58,871.22c-362,0-645.61-56.69-645.61-129.05,0-70.36,579.52-75.2,645.6-75.52,66.1.32,645.61,5.16,645.61,75.52C1851.18,814.53,1567.6,871.22,1205.58,871.22Zm0-199.52C1027.42,672.57,565,686.91,565,742.17c0,32,67.91,63.68,186.31,87,121.31,23.87,282.63,37,454.24,37s332.93-13.14,454.23-37c118.41-23.3,186.32-55,186.32-87C1846.13,686.91,1383.73,672.57,1205.57,671.7Z"/><path class="cls-14" d="M1133.51,869.57q6.9.25,13.86.45h.34q28.36.79,57.87.81c33.74,0,66.53-.81,97.9-2.31h0c180.39-8.65,314.27-40.64,314.27-78.79,0-32.34-214.93-42.37-334.38-45.44l-4.67-.11c-9.85-.25-19-.44-27.23-.59-28.15-.55-45.91-.64-45.91-.64s-13.61.07-35.87.45l-4.34.06c-12.51.24-27.43.55-44,1-120.56,3.26-328,13.5-328,45.27,0,37.22,127.45,68.59,301.14,78.13.68,0,1.34.06,2,.1Z"/><path class="cls-3" d="M1205.58,873.35c-19.34,0-38.83-.27-57.94-.8-5-.13-9.61-.28-14.22-.45h0l-37-1.61c-.87,0-1.42-.09-2-.1-151.15-8.3-303.6-36.46-303.6-80.66,0-25.78,111.19-41.86,330.48-47.8,16.56-.45,31.49-.77,44-1l4.36-.06c22.27-.38,35.88-.45,35.88-.45.21,0,18.13.1,46,.64,8.24.15,17.39.34,27.25.6l4.67.1c153.66,4,336.84,15.48,336.84,48,0,45.68-159,73.76-316.68,81.31C1271.59,872.58,1238.61,873.35,1205.58,873.35Zm-72-6.3q6.89.26,13.82.44c52.54,1.44,105.3.93,155.92-1.5,180.72-8.66,311.88-40.73,311.88-76.26,0-21.53-124.08-37.57-331.92-42.91l-4.67-.11c-9.84-.25-19-.44-27.21-.59-27.8-.55-45.7-.64-45.88-.64,0,0-13.57.07-35.8.45l-4.35.06c-12.49.23-27.41.55-44,1C917.6,752.5,795.9,768.48,795.9,789.73c0,34.3,125.64,66.1,298.75,75.6l1.77.09Z"/><path class="cls-15" d="M1848.66,742.16c0,8.12-3.88,16.06-11.28,23.77-85.81-55.13-631.8-57.76-631.8-57.76s-546,2.63-631.79,57.76c-7.4-7.71-11.29-15.65-11.29-23.77,0-69.85,643.08-73,643.08-73S1848.66,672.31,1848.66,742.16Z"/><path class="cls-3" d="M573.4,769.18l-1.44-1.5c-8-8.29-12-16.87-12-25.52,0-70.34,579.52-75.19,645.6-75.52,66.1.33,645.62,5.18,645.62,75.52,0,8.65-4,17.23-12,25.52l-1.44,1.5-1.75-1.13c-84.22-54.1-625-57.32-630.44-57.35S659.37,714,575.15,768.05Zm632.17-63.54c22.19.11,540.58,3.22,631.36,57,6.11-6.82,9.2-13.72,9.2-20.52,0-55.24-462.39-69.59-640.56-70.46C1027.42,672.57,565,686.92,565,742.16c0,6.8,3.09,13.7,9.2,20.52C665,708.86,1183.4,705.75,1205.57,705.64Z"/><path class="cls-3" d="M1205.58,1117.75c-319.55,0-620.08-24.51-846.24-69C195.41,1016.49,0,959.45,0,870.83S195.41,725.16,359.34,692.91c226.16-44.5,526.69-69,846.24-69s620.08,24.51,846.24,69c163.93,32.25,359.34,89.29,359.34,177.92s-195.41,145.66-359.34,177.92C1825.66,1093.24,1525.12,1117.75,1205.58,1117.75Zm0-469.61C498.93,648.14,24.24,763.28,24.24,870.83s474.69,222.68,1181.34,222.68S2386.92,978.37,2386.92,870.83,1912.23,648.14,1205.58,648.14Z"/><path class="cls-16" d="M1840.07,753.47c0,68.94-284.07,124.83-634.49,124.83S571.09,822.41,571.09,753.47c0-241.58,124.5-737.12,634.49-737.12S1840.07,511.89,1840.07,753.47Z"/><g class="cls-7"><path class="cls-1" d="M594.58,777c0-241.58,124.5-737.12,634.49-737.12,179.35,0,311,61.33,406.32,151.3C1538.55,88.51,1400.14,16.35,1205.58,16.35c-510,0-634.49,495.54-634.49,737.12,0,12.46,9.32,24.48,26.57,35.83A27.5,27.5,0,0,1,594.58,777Z"/></g><path class="cls-3" d="M1205.58,894.65c-261.62,0-650.84-37.59-650.84-141.18,0-60.79,9.26-274.19,128.43-467.73C798.27,98.81,978.91,0,1205.58,0c514.81,0,650.84,492.86,650.84,753.47C1856.42,857.06,1467.2,894.65,1205.58,894.65Zm0-861.95c-488.95,0-618.14,471.47-618.14,720.77,0,14.21,36.36,45.42,172.65,72.23,118.83,23.38,277,36.25,445.49,36.25s326.66-12.87,445.49-36.25c136.29-26.81,172.65-58,172.65-72.23,0-120.8-32.47-302.61-123.57-450.58C1589.76,123.61,1423.36,32.7,1205.58,32.7Z"/><ellipse class="cls-17" cx="1205.58" cy="995.29" rx="63.1" ry="42.69"/><path class="cls-3" d="M1205.58,1040.51c-36.19,0-65.63-20.29-65.63-45.22s29.44-45.21,65.63-45.21,65.63,20.28,65.63,45.21S1241.77,1040.51,1205.58,1040.51Zm0-85.38c-33.4,0-60.58,18-60.58,40.16s27.18,40.16,60.58,40.16,60.57-18,60.57-40.16S1239,955.13,1205.58,955.13Z"/><g class="cls-10"><path class="cls-14" d="M1268.69,995.29a30.27,30.27,0,0,1-3,13.09c-8.18-17.18-32-29.6-60.08-29.6s-51.9,12.42-60.08,29.6a30.13,30.13,0,0,1-3-13.09c0-23.57,28.27-42.69,63.11-42.69S1268.69,971.72,1268.69,995.29Z"/><path class="cls-3" d="M1265.65,1014.25l-2.28-4.78c-8-16.85-31.24-28.16-57.79-28.16s-49.77,11.31-57.79,28.16l-2.28,4.78-2.29-4.78a32.74,32.74,0,0,1-3.28-14.18c0-24.93,29.45-45.21,65.64-45.21s65.64,20.28,65.64,45.21a32.8,32.8,0,0,1-3.28,14.18Zm-60.07-59.12c-33.4,0-60.58,18-60.58,40.16a27.29,27.29,0,0,0,1,7.17c10.6-15.87,33.7-26.21,59.61-26.21s49,10.34,59.61,26.21a27.29,27.29,0,0,0,1-7.17C1266.16,973.15,1239,955.13,1205.58,955.13Z"/></g><path class="cls-3" d="M1205.58,1050.1c-42.18,0-75.22-24.08-75.22-54.81s33-54.8,75.22-54.8,75.22,24.07,75.22,54.8S1247.76,1050.1,1205.58,1050.1Zm0-85.38c-27.64,0-51,14-51,30.57s23.35,30.57,51,30.57,51-14,51-30.57S1233.22,964.72,1205.58,964.72Z"/><ellipse class="cls-17" cx="1676.09" cy="980.32" rx="63.1" ry="42.69" transform="translate(-43.17 77.85) rotate(-2.63)"/><path class="cls-3" d="M1673.69,1025.6c-15.7,0-30.5-3.82-42.11-10.92-13-8-20.49-19.09-21-31.35s5.86-24,18.09-33.14c11.94-8.9,28.06-14.24,45.4-15s33.88,3,46.58,10.81c13,8,20.49,19.09,21.05,31.35h0c.56,12.26-5.86,24-18.09,33.15-11.94,8.9-28.06,14.24-45.4,15C1676.67,1025.56,1675.17,1025.6,1673.69,1025.6Zm4.81-85.49c-1.41,0-2.83,0-4.25.1-16.34.75-31.47,5.73-42.61,14-10.84,8.08-16.54,18.33-16.06,28.85s7.1,20.21,18.64,27.27c11.85,7.24,27.37,10.83,43.71,10.07s31.47-5.73,42.61-14c10.84-8.08,16.54-18.33,16.06-28.85h0c-.48-10.53-7.1-20.21-18.64-27.26C1707.14,943.67,1693.27,940.11,1678.5,940.11Z"/><g class="cls-10"><path class="cls-14" d="M1739.12,980.48c.42,9.15-3.46,17.81-10.39,25.11,0-.42,0-.85,0-1.27-1.06-23.54-30.18-41.32-65-39.75-21.27,1-39.78,9-50.68,20.42-.09-23,26.9-42.72,61.1-44.29C1708.94,939.12,1738.06,956.91,1739.12,980.48Z"/><path class="cls-3" d="M1726.2,1011.92v-6.33c0-.36,0-.73,0-1.1-.47-10.57-7.09-20.25-18.63-27.3-11.85-7.25-27.36-10.82-43.71-10.09-19.82.9-38.12,8.24-49,19.63l-4.34,4.56,0-6.29c-.1-24.61,27.8-45.18,63.52-46.83,17.36-.76,33.88,3.06,46.58,10.83,13,8,20.49,19.1,21.05,31.36.43,9.55-3.4,18.88-11.09,27Zm-58.19-50c15.72,0,30.55,3.83,42.17,10.93,11.27,6.89,18.39,16.16,20.45,26.47a29.69,29.69,0,0,0,6-18.75h0c-.47-10.53-7.09-20.22-18.63-27.27-11.84-7.25-27.37-10.82-43.71-10.09-29.16,1.34-53.38,16.6-57.93,35.31,11.89-9.61,29-15.66,47.28-16.5C1665.07,962,1666.55,961.94,1668,961.94Z"/></g><path class="cls-3" d="M1673.71,1035.19c-17.46,0-34-4.32-47.13-12.33-15.59-9.53-24.93-23.78-25.63-39.09s7.29-30.35,21.94-41.27c13.46-10,31.46-16,50.69-16.92s37.7,3.45,52,12.21c15.59,9.53,24.93,23.78,25.63,39.09h0c.7,15.31-7.29,30.35-21.94,41.27-13.46,10-31.46,16-50.69,16.92C1677,1035.15,1675.33,1035.19,1673.71,1035.19Zm4.66-85.49c-1.22,0-2.45,0-3.68.09-14.24.65-27.84,5.08-37.31,12.14-4.76,3.55-12.67,11-12.22,20.73s9,16.43,14.06,19.53c10.09,6.16,24.06,9.32,38.27,8.67s27.84-5.08,37.31-12.14c4.76-3.55,12.67-11,12.22-20.73h0c-.45-9.78-9-16.43-14.06-19.52C1703.75,952.83,1691.31,949.7,1678.37,949.7Z"/><ellipse class="cls-17" cx="2075.43" cy="912.5" rx="63.1" ry="42.69" transform="translate(-40.08 97.21) rotate(-2.66)"/><path class="cls-3" d="M2073,957.77c-15.68,0-30.47-3.81-42.07-10.89-13-8-20.5-19.08-21.07-31.34s5.86-24,18.08-33.15c11.93-8.91,28-14.25,45.39-15.06,36.12-1.69,66.5,17.22,67.66,42.13.56,12.25-5.86,24-18.08,33.15-11.93,8.9-28.05,14.25-45.39,15.06C2076,957.74,2074.51,957.77,2073,957.77Zm4.83-85.48c-1.41,0-2.83,0-4.27.1-16.34.75-31.46,5.74-42.6,14.05-10.83,8.09-16.53,18.34-16,28.87s7.11,20.2,18.65,27.25c11.85,7.24,27.35,10.83,43.72,10.05s31.46-5.75,42.6-14.06c10.83-8.08,16.53-18.34,16-28.86C2135,888.52,2109.29,872.29,2077.84,872.29Z"/><g class="cls-10"><path class="cls-14" d="M2138.48,909.58c.75,16.42-12.33,31.33-32.15,39.39,5-6.48,7.7-13.85,7.33-21.54-1.09-23.54-30.2-41.33-65-39.72a87.41,87.41,0,0,0-29,6.21c10.24-13.36,30.32-23,53.77-24C2108.27,868.23,2137.39,886,2138.48,909.58Z"/><path class="cls-3" d="M2098.62,954.84l5.71-7.41c4.78-6.2,7.13-13.07,6.81-19.88-1-22.11-29-38.88-62.37-37.31a85.24,85.24,0,0,0-28.12,6l-8.66,3.55,5.69-7.43c11-14.36,32.34-24,55.66-25,17.33-.81,33.89,3,46.59,10.78,13,8,20.5,19.08,21.07,31.35h0c.79,17-12.13,33.06-33.71,41.84ZM2053,885.08c34.17,0,62.12,18.36,63.23,42.23a33.11,33.11,0,0,1-3.25,15.73c14.95-8.24,23.6-20.54,23-33.34-.49-10.53-7.11-20.22-18.66-27.27-11.85-7.24-27.39-10.82-43.71-10-17.6.82-33.9,6.7-44.88,15.84a94.14,94.14,0,0,1,19.83-3.05C2050,885.11,2051.5,885.08,2053,885.08Z"/></g><path class="cls-3" d="M2073,967.36c-17.43,0-34-4.3-47.09-12.3-15.59-9.52-24.94-23.77-25.64-39.07s7.27-30.36,21.91-41.29c13.46-10,31.45-16.05,50.68-17,42.1-2,76.26,20.56,77.68,51.26.72,15.31-7.27,30.36-21.92,41.28-13.45,10-31.45,16.06-50.67,17Q2075.49,967.36,2073,967.36Zm4.77-85.48c-1.25,0-2.51,0-3.78.08-14.24.66-27.84,5.1-37.31,12.17-4.75,3.55-12.66,11-12.21,20.73s9,16.43,14.08,19.52c10.09,6.16,24.07,9.31,38.27,8.65s27.84-5.09,37.31-12.16c4.75-3.55,12.66-11,12.2-20.74C2125.63,894.35,2103.78,881.88,2077.8,881.88Z"/><ellipse class="cls-17" cx="746.66" cy="980.32" rx="42.69" ry="63.1" transform="translate(-266.86 1681.27) rotate(-87.37)"/><path class="cls-3" d="M749.06,1025.6c-1.48,0-3,0-4.48-.11-17.33-.79-33.45-6.13-45.39-15-12.23-9.12-18.66-20.89-18.1-33.15s8-23.38,21.06-31.34c12.7-7.77,29.26-11.6,46.58-10.81s33.46,6.13,45.4,15c12.22,9.12,18.65,20.89,18.09,33.14s-8,23.39-21.05,31.35C779.56,1021.78,764.75,1025.6,749.06,1025.6Zm-4.81-85.49c-14.77,0-28.65,3.56-39.46,10.18-11.54,7.05-18.16,16.73-18.64,27.26h0c-.49,10.52,5.22,20.77,16.06,28.85,11.14,8.31,26.27,13.29,42.6,14s31.87-2.83,43.72-10.07c11.53-7.06,18.15-16.74,18.64-27.27S802,962.33,791.1,954.25c-11.13-8.31-26.26-13.29-42.6-14C747.08,940.14,745.65,940.11,744.25,940.11Z"/><g class="cls-10"><path class="cls-14" d="M809.7,983.2c-.51,11-7.11,20.72-17.54,27.78a29.4,29.4,0,0,0,1.18-6.93c1.07-23.54-26.26-43.93-61.07-45.54-18.57-.85-35.54,3.82-47.44,11.94,5.84-20,32.5-34.21,63.77-32.78C783.44,939.27,810.76,959.66,809.7,983.2Z"/><path class="cls-3" d="M787.72,1017.05l2-6.79a27.22,27.22,0,0,0,1.08-6.34c1-22.1-25.32-41.34-58.67-42.88-17.29-.82-34,3.4-45.9,11.5l-5.83,4,2-6.78c6.29-21.51,34.19-36.09,66.31-34.6,36.15,1.67,64.64,23.28,63.52,48.18h0c-.53,11.41-7.16,22-18.65,29.76ZM728,955.89c1.44,0,2.89,0,4.34.09,36.13,1.67,64.61,23.28,63.49,48.18,0,.26,0,.53,0,.79,7-6.26,11-13.86,11.36-21.86,1-22.12-25.34-41.36-58.7-42.89-25.7-1.21-49,8.87-58.2,24.12C701.07,958.86,714.31,955.89,728,955.89Z"/></g><path class="cls-3" d="M749,1035.19c-1.63,0-3.26,0-4.9-.12-19.23-.88-37.23-6.89-50.68-16.92-14.65-10.92-22.65-26-21.94-41.27s10-29.56,25.62-39.09c14.32-8.76,32.82-13.09,52-12.21s37.23,6.89,50.69,16.92c14.64,10.92,22.64,26,21.94,41.27s-10,29.56-25.63,39.09C783.07,1030.87,766.49,1035.18,749,1035.19Zm-4.66-85.49c-12.94,0-25.38,3.13-34.59,8.77-5.06,3.09-13.62,9.74-14.06,19.52h0c-.45,9.78,7.46,17.18,12.21,20.73,9.48,7.06,23.08,11.49,37.31,12.14s28.19-2.51,38.27-8.67c5.06-3.1,13.62-9.75,14.07-19.53s-7.46-17.18-12.22-20.73c-9.48-7.06-23.08-11.49-37.31-12.14C746.83,949.73,745.6,949.7,744.38,949.7Zm-60.76,27.73h0Z"/><ellipse class="cls-18" cx="347.31" cy="912.5" rx="42.69" ry="63.1" transform="translate(-580.31 1217.13) rotate(-87.34)"/><path class="cls-3" d="M349.68,957.2c-1.47,0-2.95,0-4.44-.11C328,956.3,312,951,300.17,942.15c-12.07-9-18.41-20.61-17.85-32.67,1.14-24.59,31.27-43.18,67.06-41.58,17.23.8,33.23,6.11,45.08,15,12.06,9,18.4,20.61,17.84,32.67C411.21,939.08,383.53,957.2,349.68,957.2Zm-4.77-85.49c-31.76,0-57.68,16.48-58.68,37.95-.5,10.72,5.29,21.15,16.28,29.35,11.22,8.38,26.46,13.41,42.91,14.17,33.63,1.6,61.93-15.41,63-37.85.5-10.72-5.28-21.14-16.28-29.34-11.22-8.38-26.46-13.41-42.91-14.18C347.76,871.75,346.33,871.71,344.91,871.71Z"/><path class="cls-3" d="M349.85,967.36c-1.68,0-3.37,0-5.08-.12-19.23-.89-37.23-6.91-50.68-17-14.64-10.92-22.63-26-21.92-41.28,1.43-30.7,35.61-53.26,77.68-51.26,19.23.9,37.23,6.92,50.68,17,14.64,10.93,22.63,26,21.92,41.29C421.08,945.44,389.61,967.36,349.85,967.36ZM345,881.88c-26,0-47.83,12.46-48.57,28.25-.45,9.78,7.46,17.19,12.21,20.74,9.47,7.07,23.07,11.5,37.3,12.16,27.61,1.27,51.58-11.62,52.35-28.17.46-9.77-7.45-17.18-12.2-20.73-9.48-7.07-23.07-11.51-37.31-12.17C347.46,881.9,346.2,881.88,345,881.88Z"/><ellipse class="cls-17" cx="347.31" cy="912.5" rx="42.69" ry="63.1" transform="translate(-580.31 1217.13) rotate(-87.34)"/><path class="cls-3" d="M349.67,957.77c-1.47,0-3,0-4.46-.1-17.33-.81-33.45-6.16-45.38-15.06-12.23-9.13-18.65-20.9-18.08-33.15,1.16-24.91,31.5-43.78,67.66-42.13,17.34.81,33.45,6.15,45.39,15.06,12.22,9.12,18.64,20.9,18.07,33.15C411.77,939.41,383.83,957.77,349.67,957.77Zm-4.77-85.48c-31.45,0-57.11,16.23-58.1,37.4-.49,10.52,5.21,20.78,16.05,28.86,11.13,8.31,26.26,13.31,42.6,14.06,33.36,1.6,61.34-15.18,62.37-37.3.49-10.53-5.21-20.78-16.05-28.87-11.13-8.31-26.26-13.3-42.6-14.05C347.74,872.32,346.31,872.29,344.9,872.29Z"/><g class="cls-10"><path class="cls-14" d="M410.35,915.43c-.79,17.18-16.52,31.27-38.48,37,6.42-6.27,10.3-13.87,10.69-22.17,1.1-23.54-26.23-44-61-45.57a88.09,88.09,0,0,0-26.6,2.73c11.69-11.51,31.84-18.6,54.38-17.54C384.11,871.47,411.44,891.86,410.35,915.43Z"/><path class="cls-3" d="M363.28,957.27l6.82-6.66c6.15-6,9.59-13.09,9.94-20.48.49-10.52-5.21-20.77-16.05-28.87-11.13-8.31-26.26-13.3-42.59-14a84.93,84.93,0,0,0-25.83,2.64l-9.25,2.48,6.82-6.72c12.7-12.5,33.74-19.31,56.28-18.27,17.33.8,33.45,6.14,45.38,15,12.22,9.12,18.64,20.89,18.07,33.16h0c-.81,17.7-16.65,33.14-40.36,39.32Zm-46.11-75.22c1.48,0,3,0,4.46.1,17.34.8,33.45,6.15,45.39,15.06,12.22,9.13,18.64,20.9,18.07,33.15a33.47,33.47,0,0,1-5.72,17c16.94-6.61,27.83-18.63,28.45-32h0c.49-10.54-5.21-20.79-16.05-28.88-11.13-8.31-26.25-13.29-42.59-14.05-16.9-.8-32.78,3.05-44.47,10.49A92.58,92.58,0,0,1,317.17,882.05Z"/></g><path class="cls-3" d="M349.85,967.36c-1.68,0-3.37,0-5.08-.12-19.23-.89-37.23-6.91-50.68-17-14.64-10.92-22.63-26-21.92-41.28,1.43-30.7,35.61-53.26,77.68-51.26,19.23.9,37.23,6.92,50.68,17,14.64,10.93,22.63,26,21.92,41.29C421.08,945.44,389.61,967.36,349.85,967.36ZM345,881.88c-26,0-47.83,12.46-48.57,28.25-.45,9.78,7.46,17.19,12.21,20.74,9.47,7.07,23.07,11.5,37.3,12.16,27.61,1.27,51.58-11.62,52.35-28.17.46-9.77-7.45-17.18-12.2-20.73-9.48-7.07-23.07-11.51-37.31-12.17C347.46,881.9,346.2,881.88,345,881.88Z"/><path class="cls-3" d="M2012.05,1056a12.1,12.1,0,0,1-10.09-5.39c-95-142.24-284.26-212-286.16-212.67a12.12,12.12,0,0,1,8.24-22.79c8.06,2.91,198.52,73,298.07,222a12.12,12.12,0,0,1-10.06,18.85Z"/><path class="cls-3" d="M409.74,1056a12.12,12.12,0,0,1-10.06-18.85C490.9,900.66,660.09,829.77,693.08,817a12.12,12.12,0,0,1,8.78,22.59c-31.8,12.36-194.85,80.63-282,211.1A12.11,12.11,0,0,1,409.74,1056Z"/><g class="cls-7"><path class="cls-1" d="M676.16,613.36S659,507,749.62,385.33C827,281.4,880.26,344.61,847.07,405.74,801.52,489.59,781.58,569.65,765,654.83,755.51,703.58,680.66,725.8,676.16,613.36Z"/></g><g class="cls-7"><path class="cls-1" d="M900.67,300.77c-18.41,8.55-75.45,15.25-64.21-46.56s78.12-79.45,102.21-58.09C952.73,208.59,951.63,277.09,900.67,300.77Z"/></g><g class="cls-7"><path class="cls-1" d="M206.69,789.44c59.45-34.91,152.89-58.63,238.23-54.42,77.25,3.82-63.63,31.18-113.16,42.83-35.69,8.38-102.06,33.77-133.41,39.64S169.09,811.53,206.69,789.44Z"/></g><g class="cls-10"><path class="cls-3" d="M1792.12,764.33c0-209.34-94.95-612-459.37-706.37l-.39-.3c11.87,9.25,56.41,45,109.84,101,213.8,223.83,77.37,595.62-230.47,628-187.08,19.69-409,18.88-623.6-40.4-5.78-1.6-11.37-3.06-17-4.53,0,2.57-.06,5.15-.06,7.66,0,68,280,123.06,625.47,123.06,250.15,0,466-28.89,566-70.64C1781.74,790,1792.12,777.39,1792.12,764.33Z"/></g></g></g></svg>